<ttFont>
    <TTGlyph name="A" xMin="-39" yMin="0" xMax="1381" yMax="1452">
      <contour>
        <pt x="496" y="1205" on="1"/>
        <pt x="352" y="1249" on="1"/>
        <pt x="358" y="1291" on="0"/>
        <pt x="362" y="1358" on="0"/>
        <pt x="368" y="1384" on="1"/>
        <pt x="455" y="1423" on="0"/>
        <pt x="657" y="1448" on="1"/>
        <pt x="689" y="1452" on="0"/>
        <pt x="713" y="1452" on="1"/>
        <pt x="738" y="1422" on="0"/>
        <pt x="749" y="1395" on="1"/>
        <pt x="1212" y="229" on="1"/>
        <pt x="1242" y="152" on="0"/>
        <pt x="1321" y="79" on="0"/>
        <pt x="1381" y="74" on="1"/>
        <pt x="1381" y="0" on="1"/>
        <pt x="742" y="0" on="1"/>
        <pt x="742" y="63" on="1"/>
        <pt x="767" y="78" on="0"/>
        <pt x="820" y="93" on="0"/>
        <pt x="842" y="100" on="1"/>
        <pt x="890" y="114" on="0"/>
        <pt x="890" y="150" on="1"/>
        <pt x="890" y="170" on="0"/>
        <pt x="871" y="219" on="1"/>
      </contour>
      <contour>
        <pt x="513" y="896" on="1"/>
        <pt x="288" y="252" on="1"/>
        <pt x="272" y="207" on="0"/>
        <pt x="272" y="147" on="0"/>
        <pt x="306" y="114" on="0"/>
        <pt x="357" y="95" on="0"/>
        <pt x="415" y="81" on="0"/>
        <pt x="440" y="68" on="1"/>
        <pt x="440" y="0" on="1"/>
        <pt x="-39" y="0" on="1"/>
        <pt x="-39" y="68" on="1"/>
        <pt x="-19" y="81" on="0"/>
        <pt x="28" y="97" on="0"/>
        <pt x="52" y="110" on="1"/>
        <pt x="108" y="143" on="0"/>
        <pt x="136" y="219" on="1"/>
        <pt x="447" y="1073" on="1"/>
      </contour>
      <contour>
        <pt x="693" y="426" on="1"/>
        <pt x="447" y="426" on="1"/>
        <pt x="480" y="532" on="1"/>
        <pt x="653" y="532" on="1"/>
      </contour>
    </TTGlyph>
    <TTGlyph name="AE" xMin="-39" yMin="0" xMax="2592" yMax="1452">
      <component glyphName="A" x="0" y="0" flags="0x1004"/>
      <component glyphName="E" x="1343" y="0" flags="0x1004"/>
    </TTGlyph>
    <TTGlyph name="Aacute" xMin="-39" yMin="0" xMax="1381" yMax="1939">
      <component glyphName="A" x="0" y="0" flags="0x1204"/>
      <component glyphName="acute" x="261" y="446" flags="0x1004"/>
    </TTGlyph>
    <TTGlyph name="Acircumflex" xMin="-39" yMin="0" xMax="1381" yMax="1923">
      <component glyphName="A" x="0" y="0" flags="0x1204"/>
      <component glyphName="circumflex" x="352" y="446" flags="0x1004"/>
    </TTGlyph>
    <TTGlyph name="Adieresis" xMin="-39" yMin="0" xMax="1381" yMax="1841">
      <component glyphName="A" x="0" y="0" flags="0x1204"/>
      <component glyphName="dieresis" x="352" y="446" flags="0x1004"/>
    </TTGlyph>
    <TTGlyph name="Agrave" xMin="-39" yMin="0" xMax="1381" yMax="1939">
      <component glyphName="A" x="0" y="0" flags="0x1204"/>
      <component glyphName="grave" x="441" y="446" flags="0x1004"/>
    </TTGlyph>
    <TTGlyph name="Aring" xMin="-39" yMin="0" xMax="1381" yMax="1994">
      <component glyphName="A" x="0" y="0" flags="0x1204"/>
      <component glyphName="ring" x="351" y="446" flags="0x1004"/>
    </TTGlyph>
    <TTGlyph name="Atilde" xMin="-39" yMin="0" xMax="1381" yMax="1857">
      <component glyphName="A" x="0" y="0" flags="0x1204"/>
      <component glyphName="tilde" x="352" y="446" flags="0x1004"/>
    </TTGlyph>
    <TTGlyph name="B" xMin="57" yMin="0" xMax="1339" yMax="1421">
      <contour>
        <pt x="621" y="801" on="1"/>
        <pt x="901" y="801" on="0"/>
        <pt x="901" y="1065" on="1"/>
        <pt x="901" y="1254" on="0"/>
        <pt x="758" y="1307" on="1"/>
        <pt x="709" y="1325" on="0"/>
        <pt x="674" y="1325" on="1"/>
        <pt x="632" y="1325" on="1"/>
        <pt x="626" y="1325" on="0"/>
        <pt x="621" y="1324" on="1"/>
        <pt x="621" y="1421" on="1"/>
        <pt x="793" y="1421" on="1"/>
        <pt x="1031" y="1421" on="0"/>
        <pt x="1258" y="1244" on="0"/>
        <pt x="1258" y="1081" on="1"/>
        <pt x="1258" y="942" on="0"/>
        <pt x="1154" y="858" on="1"/>
        <pt x="1062" y="784" on="0"/>
        <pt x="906" y="764" on="1"/>
        <pt x="906" y="760" on="1"/>
        <pt x="1093" y="754" on="0"/>
        <pt x="1210" y="666" on="1"/>
        <pt x="1339" y="568" on="0"/>
        <pt x="1339" y="397" on="1"/>
        <pt x="1339" y="223" on="0"/>
        <pt x="1205" y="117" on="1"/>
        <pt x="1058" y="0" on="0"/>
        <pt x="785" y="0" on="1"/>
        <pt x="621" y="0" on="1"/>
        <pt x="621" y="110" on="1"/>
        <pt x="638" y="106" on="0"/>
        <pt x="673" y="106" on="1"/>
        <pt x="971" y="106" on="0"/>
        <pt x="971" y="688" on="0"/>
        <pt x="621" y="688" on="1"/>
      </contour>
      <contour>
        <pt x="532" y="0" on="1"/>
        <pt x="57" y="0" on="1"/>
        <pt x="57" y="74" on="1"/>
        <pt x="84" y="85" on="0"/>
        <pt x="135" y="96" on="0"/>
        <pt x="156" y="106" on="1"/>
        <pt x="200" y="128" on="0"/>
        <pt x="200" y="190" on="1"/>
        <pt x="200" y="1229" on="1"/>
        <pt x="200" y="1292" on="0"/>
        <pt x="156" y="1314" on="1"/>
        <pt x="135" y="1324" on="0"/>
        <pt x="84" y="1335" on="0"/>
        <pt x="57" y="1346" on="1"/>
        <pt x="57" y="1421" on="1"/>
        <pt x="532" y="1421" on="1"/>
      </contour>
    </TTGlyph>
    <TTGlyph name="C" xMin="57" yMin="-20" xMax="1193" yMax="1452">
      <contour>
        <pt x="762" y="108" on="1"/>
        <pt x="887" y="110" on="0"/>
        <pt x="964" y="188" on="1"/>
        <pt x="1063" y="286" on="0"/>
        <pt x="1078" y="512" on="1"/>
        <pt x="1193" y="473" on="1"/>
        <pt x="1165" y="139" on="0"/>
        <pt x="954" y="26" on="1"/>
        <pt x="875" y="-16" on="0"/>
        <pt x="762" y="-20" on="1"/>
      </contour>
      <contour>
        <pt x="428" y="723" on="1"/>
        <pt x="428" y="162" on="0"/>
        <pt x="673" y="108" on="1"/>
        <pt x="673" y="-20" on="1"/>
        <pt x="395" y="-8" on="0"/>
        <pt x="224" y="197" on="1"/>
        <pt x="57" y="399" on="0"/>
        <pt x="57" y="709" on="1"/>
        <pt x="57" y="1030" on="0"/>
        <pt x="232" y="1241" on="1"/>
        <pt x="315" y="1340" on="0"/>
        <pt x="541" y="1452" on="0"/>
        <pt x="673" y="1452" on="1"/>
        <pt x="673" y="1324" on="1"/>
        <pt x="476" y="1293" on="0"/>
        <pt x="440" y="958" on="1"/>
        <pt x="428" y="852" on="0"/>
      </contour>
      <contour>
        <pt x="762" y="1452" on="1"/>
        <pt x="844" y="1440" on="0"/>
        <pt x="957" y="1386" on="0"/>
        <pt x="998" y="1364" on="0"/>
        <pt x="1026" y="1364" on="0"/>
        <pt x="1047" y="1396" on="0"/>
        <pt x="1059" y="1421" on="1"/>
        <pt x="1154" y="1421" on="1"/>
        <pt x="1154" y="905" on="1"/>
        <pt x="1078" y="905" on="1"/>
        <pt x="1053" y="940" on="0"/>
        <pt x="987" y="1103" on="0"/>
        <pt x="944" y="1193" on="0"/>
        <pt x="916" y="1230" on="1"/>
        <pt x="851" y="1313" on="0"/>
        <pt x="762" y="1324" on="1"/>
      </contour>
    </TTGlyph>
    <TTGlyph name="Ccedilla" xMin="57" yMin="-449" xMax="1193" yMax="1452">
      <component glyphName="C" x="0" y="0" flags="0x1204"/>
      <component glyphName="cedilla" x="348" y="0" flags="0x1004"/>
    </TTGlyph>
    <TTGlyph name="D" xMin="64" yMin="0" xMax="1438" yMax="1421">
      <contour>
        <pt x="539" y="0" on="1"/>
        <pt x="64" y="0" on="1"/>
        <pt x="64" y="74" on="1"/>
        <pt x="91" y="85" on="0"/>
        <pt x="142" y="96" on="0"/>
        <pt x="162" y="106" on="1"/>
        <pt x="207" y="128" on="0"/>
        <pt x="207" y="190" on="1"/>
        <pt x="207" y="1229" on="1"/>
        <pt x="207" y="1292" on="0"/>
        <pt x="162" y="1314" on="1"/>
        <pt x="142" y="1324" on="0"/>
        <pt x="91" y="1335" on="0"/>
        <pt x="64" y="1346" on="1"/>
        <pt x="64" y="1421" on="1"/>
        <pt x="539" y="1421" on="1"/>
      </contour>
      <contour>
        <pt x="937" y="1252" on="0"/>
        <pt x="799" y="1325" on="0"/>
        <pt x="656" y="1325" on="0"/>
        <pt x="628" y="1321" on="1"/>
        <pt x="628" y="1421" on="1"/>
        <pt x="726" y="1421" on="1"/>
        <pt x="1081" y="1421" on="0"/>
        <pt x="1270" y="1201" on="1"/>
        <pt x="1438" y="1005" on="0"/>
        <pt x="1438" y="711" on="1"/>
        <pt x="1438" y="406" on="0"/>
        <pt x="1264" y="212" on="1"/>
        <pt x="1074" y="0" on="0"/>
        <pt x="737" y="0" on="1"/>
        <pt x="628" y="0" on="1"/>
        <pt x="628" y="100" on="1"/>
        <pt x="660" y="96" on="0"/>
        <pt x="796" y="96" on="0"/>
        <pt x="935" y="157" on="0"/>
        <pt x="980" y="229" on="1"/>
        <pt x="1067" y="368" on="0"/>
        <pt x="1067" y="711" on="1"/>
        <pt x="1067" y="1030" on="0"/>
        <pt x="981" y="1177" on="1"/>
      </contour>
    </TTGlyph>
    <TTGlyph name="Delta" xMin="71" yMin="0" xMax="1321" yMax="1448">
      <contour>
        <pt x="71" y="0" on="1"/>
        <pt x="71" y="74" on="1"/>
        <pt x="623" y="1421" on="1"/>
        <pt x="742" y="1448" on="1"/>
        <pt x="1321" y="74" on="1"/>
        <pt x="1321" y="0" on="1"/>
      </contour>
      <contour>
        <pt x="588" y="1053" on="1"/>
        <pt x="224" y="127" on="1"/>
        <pt x="966" y="127" on="1"/>
      </contour>
    </TTGlyph>
    <TTGlyph name="E" xMin="77" yMin="0" xMax="1249" yMax="1436">
      <contour>
        <pt x="550" y="1421" on="1"/>
        <pt x="550" y="0" on="1"/>
        <pt x="77" y="0" on="1"/>
        <pt x="77" y="74" on="1"/>
        <pt x="104" y="85" on="0"/>
        <pt x="155" y="96" on="0"/>
        <pt x="175" y="106" on="1"/>
        <pt x="220" y="128" on="0"/>
        <pt x="220" y="190" on="1"/>
        <pt x="220" y="1229" on="1"/>
        <pt x="220" y="1292" on="0"/>
        <pt x="175" y="1314" on="1"/>
        <pt x="155" y="1324" on="0"/>
        <pt x="104" y="1335" on="0"/>
        <pt x="77" y="1346" on="1"/>
        <pt x="77" y="1421" on="1"/>
      </contour>
      <contour>
        <pt x="639" y="100" on="1"/>
        <pt x="689" y="96" on="0"/>
        <pt x="843" y="96" on="0"/>
        <pt x="966" y="144" on="0"/>
        <pt x="1043" y="219" on="0"/>
        <pt x="1087" y="311" on="0"/>
        <pt x="1119" y="400" on="0"/>
        <pt x="1152" y="475" on="0"/>
        <pt x="1181" y="496" on="1"/>
        <pt x="1249" y="496" on="1"/>
        <pt x="1249" y="0" on="1"/>
        <pt x="639" y="0" on="1"/>
      </contour>
      <contour>
        <pt x="914" y="1283" on="0"/>
        <pt x="809" y="1325" on="0"/>
        <pt x="669" y="1325" on="0"/>
        <pt x="639" y="1322" on="1"/>
        <pt x="639" y="1421" on="1"/>
        <pt x="865" y="1421" on="1"/>
        <pt x="1090" y="1421" on="0"/>
        <pt x="1192" y="1436" on="1"/>
        <pt x="1192" y="952" on="1"/>
        <pt x="1122" y="952" on="1"/>
        <pt x="1097" y="976" on="0"/>
        <pt x="1063" y="1050" on="0"/>
        <pt x="1028" y="1133" on="0"/>
        <pt x="984" y="1216" on="0"/>
      </contour>
      <contour>
        <pt x="639" y="846" on="1"/>
        <pt x="972" y="846" on="1"/>
        <pt x="972" y="590" on="1"/>
        <pt x="639" y="590" on="1"/>
      </contour>
    </TTGlyph>
    <TTGlyph name="Eacute" xMin="77" yMin="0" xMax="1249" yMax="1939">
      <component glyphName="E" x="0" y="0" flags="0x1204"/>
      <component glyphName="acute" x="261" y="446" flags="0x1004"/>
    </TTGlyph>
    <TTGlyph name="Ecircumflex" xMin="77" yMin="0" xMax="1249" yMax="1923">
      <component glyphName="E" x="0" y="0" flags="0x1204"/>
      <component glyphName="circumflex" x="352" y="446" flags="0x1004"/>
    </TTGlyph>
    <TTGlyph name="Edieresis" xMin="77" yMin="0" xMax="1249" yMax="1841">
      <component glyphName="E" x="0" y="0" flags="0x1204"/>
      <component glyphName="dieresis" x="352" y="446" flags="0x1004"/>
    </TTGlyph>
    <TTGlyph name="Egrave" xMin="77" yMin="0" xMax="1249" yMax="1939">
      <component glyphName="E" x="0" y="0" flags="0x1204"/>
      <component glyphName="grave" x="441" y="446" flags="0x1004"/>
    </TTGlyph>
    <TTGlyph name="Eth" xMin="0" yMin="0" xMax="1438" yMax="1421">
      <contour>
        <pt x="64" y="0" on="1"/>
        <pt x="64" y="74" on="1"/>
        <pt x="91" y="85" on="0"/>
        <pt x="142" y="96" on="0"/>
        <pt x="162" y="106" on="1"/>
        <pt x="207" y="128" on="0"/>
        <pt x="207" y="190" on="1"/>
        <pt x="207" y="675" on="1"/>
        <pt x="0" y="675" on="1"/>
        <pt x="0" y="776" on="1"/>
        <pt x="207" y="776" on="1"/>
        <pt x="207" y="1229" on="1"/>
        <pt x="207" y="1292" on="0"/>
        <pt x="162" y="1314" on="1"/>
        <pt x="142" y="1324" on="0"/>
        <pt x="91" y="1335" on="0"/>
        <pt x="64" y="1346" on="1"/>
        <pt x="64" y="1421" on="1"/>
        <pt x="539" y="1421" on="1"/>
        <pt x="539" y="776" on="1"/>
        <pt x="736" y="776" on="1"/>
        <pt x="736" y="675" on="1"/>
        <pt x="539" y="675" on="1"/>
        <pt x="539" y="0" on="1"/>
      </contour>
      <contour>
        <pt x="937" y="1252" on="0"/>
        <pt x="799" y="1325" on="0"/>
        <pt x="656" y="1325" on="0"/>
        <pt x="628" y="1321" on="1"/>
        <pt x="628" y="1421" on="1"/>
        <pt x="726" y="1421" on="1"/>
        <pt x="1081" y="1421" on="0"/>
        <pt x="1270" y="1201" on="1"/>
        <pt x="1438" y="1005" on="0"/>
        <pt x="1438" y="711" on="1"/>
        <pt x="1438" y="406" on="0"/>
        <pt x="1264" y="212" on="1"/>
        <pt x="1074" y="0" on="0"/>
        <pt x="737" y="0" on="1"/>
        <pt x="628" y="0" on="1"/>
        <pt x="628" y="100" on="1"/>
        <pt x="660" y="96" on="0"/>
        <pt x="796" y="96" on="0"/>
        <pt x="935" y="157" on="0"/>
        <pt x="980" y="229" on="1"/>
        <pt x="1067" y="368" on="0"/>
        <pt x="1067" y="711" on="1"/>
        <pt x="1067" y="1030" on="0"/>
        <pt x="981" y="1177" on="1"/>
      </contour>
    </TTGlyph>
    <TTGlyph name="Euro" xMin="31" yMin="-29" xMax="1102" yMax="1452">
      <contour>
        <pt x="762" y="1441" on="1"/>
        <pt x="820" y="1427" on="0"/>
        <pt x="906" y="1374" on="0"/>
        <pt x="937" y="1354" on="0"/>
        <pt x="959" y="1354" on="0"/>
        <pt x="974" y="1380" on="0"/>
        <pt x="984" y="1405" on="1"/>
        <pt x="1070" y="1405" on="1"/>
        <pt x="1070" y="987" on="1"/>
        <pt x="988" y="987" on="1"/>
        <pt x="966" y="1023" on="0"/>
        <pt x="910" y="1164" on="0"/>
        <pt x="879" y="1239" on="0"/>
        <pt x="860" y="1270" on="1"/>
        <pt x="817" y="1340" on="0"/>
        <pt x="762" y="1356" on="1"/>
      </contour>
      <contour>
        <pt x="762" y="76" on="1"/>
        <pt x="907" y="86" on="0"/>
        <pt x="966" y="290" on="1"/>
        <pt x="987" y="361" on="0"/>
        <pt x="992" y="440" on="1"/>
        <pt x="1102" y="422" on="1"/>
        <pt x="1086" y="221" on="0"/>
        <pt x="914" y="-13" on="0"/>
        <pt x="762" y="-29" on="1"/>
      </contour>
      <contour>
        <pt x="517" y="563" on="1"/>
        <pt x="539" y="174" on="0"/>
        <pt x="673" y="96" on="1"/>
        <pt x="673" y="-29" on="1"/>
        <pt x="479" y="-11" on="0"/>
        <pt x="350" y="150" on="1"/>
        <pt x="222" y="310" on="0"/>
        <pt x="192" y="563" on="1"/>
        <pt x="31" y="563" on="1"/>
        <pt x="44" y="664" on="1"/>
        <pt x="185" y="664" on="1"/>
        <pt x="185" y="714" on="1"/>
        <pt x="185" y="769" on="0"/>
        <pt x="188" y="805" on="1"/>
        <pt x="31" y="805" on="1"/>
        <pt x="44" y="905" on="1"/>
        <pt x="201" y="905" on="1"/>
        <pt x="239" y="1148" on="0"/>
        <pt x="369" y="1298" on="1"/>
        <pt x="499" y="1448" on="0"/>
        <pt x="673" y="1452" on="1"/>
        <pt x="673" y="1351" on="1"/>
        <pt x="596" y="1321" on="0"/>
        <pt x="525" y="1092" on="0"/>
        <pt x="517" y="905" on="1"/>
        <pt x="849" y="905" on="1"/>
        <pt x="837" y="805" on="1"/>
        <pt x="515" y="805" on="1"/>
        <pt x="515" y="664" on="1"/>
        <pt x="817" y="664" on="1"/>
        <pt x="803" y="563" on="1"/>
      </contour>
    </TTGlyph>
    <TTGlyph name="F" xMin="64" yMin="0" xMax="1183" yMax="1436">
      <contour>
        <pt x="539" y="1421" on="1"/>
        <pt x="539" y="244" on="1"/>
        <pt x="539" y="163" on="0"/>
        <pt x="576" y="115" on="0"/>
        <pt x="609" y="102" on="0"/>
        <pt x="648" y="94" on="0"/>
        <pt x="693" y="85" on="0"/>
        <pt x="717" y="74" on="1"/>
        <pt x="717" y="0" on="1"/>
        <pt x="64" y="0" on="1"/>
        <pt x="64" y="74" on="1"/>
        <pt x="91" y="85" on="0"/>
        <pt x="142" y="96" on="0"/>
        <pt x="162" y="106" on="1"/>
        <pt x="207" y="128" on="0"/>
        <pt x="207" y="190" on="1"/>
        <pt x="207" y="1184" on="1"/>
        <pt x="207" y="1263" on="0"/>
        <pt x="175" y="1308" on="0"/>
        <pt x="148" y="1320" on="0"/>
        <pt x="132" y="1323" on="1"/>
        <pt x="86" y="1332" on="0"/>
        <pt x="64" y="1346" on="1"/>
        <pt x="64" y="1421" on="1"/>
      </contour>
      <contour>
        <pt x="935" y="1421" on="1"/>
        <pt x="1105" y="1421" on="0"/>
        <pt x="1183" y="1436" on="1"/>
        <pt x="1183" y="952" on="1"/>
        <pt x="1113" y="952" on="1"/>
        <pt x="1083" y="977" on="0"/>
        <pt x="1049" y="1052" on="0"/>
        <pt x="1017" y="1135" on="0"/>
        <pt x="976" y="1217" on="0"/>
        <pt x="938" y="1250" on="1"/>
        <pt x="855" y="1325" on="0"/>
        <pt x="687" y="1325" on="1"/>
        <pt x="655" y="1325" on="0"/>
        <pt x="628" y="1322" on="1"/>
        <pt x="628" y="1421" on="1"/>
      </contour>
      <contour>
        <pt x="628" y="795" on="1"/>
        <pt x="681" y="799" on="1"/>
        <pt x="784" y="806" on="0"/>
        <pt x="815" y="873" on="1"/>
        <pt x="824" y="892" on="0"/>
        <pt x="832" y="912" on="1"/>
        <pt x="855" y="966" on="0"/>
        <pt x="881" y="991" on="1"/>
        <pt x="955" y="991" on="1"/>
        <pt x="955" y="496" on="1"/>
        <pt x="881" y="496" on="1"/>
        <pt x="856" y="517" on="0"/>
        <pt x="821" y="589" on="0"/>
        <pt x="796" y="626" on="0"/>
        <pt x="774" y="641" on="1"/>
        <pt x="726" y="675" on="0"/>
        <pt x="628" y="680" on="1"/>
      </contour>
    </TTGlyph>
    <TTGlyph name="G" xMin="60" yMin="-20" xMax="1339" yMax="1452">
      <contour>
        <pt x="662" y="1324" on="1"/>
        <pt x="431" y="1272" on="0"/>
        <pt x="431" y="145" on="0"/>
        <pt x="662" y="108" on="1"/>
        <pt x="662" y="-20" on="1"/>
        <pt x="641" y="-20" on="1"/>
        <pt x="512" y="-20" on="0"/>
        <pt x="298" y="95" on="0"/>
        <pt x="222" y="194" on="1"/>
        <pt x="60" y="405" on="0"/>
        <pt x="60" y="711" on="1"/>
        <pt x="60" y="1015" on="0"/>
        <pt x="226" y="1226" on="1"/>
        <pt x="334" y="1364" on="0"/>
        <pt x="492" y="1420" on="1"/>
        <pt x="572" y="1449" on="0"/>
        <pt x="662" y="1452" on="1"/>
      </contour>
      <contour>
        <pt x="751" y="1452" on="1"/>
        <pt x="884" y="1439" on="0"/>
        <pt x="1002" y="1362" on="1"/>
        <pt x="1024" y="1348" on="0"/>
        <pt x="1038" y="1348" on="1"/>
        <pt x="1061" y="1348" on="0"/>
        <pt x="1092" y="1421" on="1"/>
        <pt x="1182" y="1421" on="1"/>
        <pt x="1182" y="901" on="1"/>
        <pt x="1108" y="901" on="1"/>
        <pt x="1085" y="928" on="0"/>
        <pt x="1025" y="1096" on="0"/>
        <pt x="982" y="1192" on="0"/>
        <pt x="949" y="1231" on="1"/>
        <pt x="873" y="1320" on="0"/>
        <pt x="751" y="1324" on="1"/>
      </contour>
      <contour>
        <pt x="751" y="108" on="1"/>
        <pt x="832" y="116" on="0"/>
        <pt x="899" y="223" on="0"/>
        <pt x="899" y="381" on="0"/>
        <pt x="894" y="483" on="0"/>
        <pt x="878" y="524" on="1"/>
        <pt x="842" y="614" on="0"/>
        <pt x="728" y="614" on="1"/>
        <pt x="728" y="692" on="1"/>
        <pt x="1339" y="692" on="1"/>
        <pt x="1336" y="677" on="0"/>
        <pt x="1330" y="650" on="0"/>
        <pt x="1324" y="622" on="0"/>
        <pt x="1321" y="610" on="1"/>
        <pt x="1267" y="586" on="0"/>
        <pt x="1231" y="511" on="0"/>
        <pt x="1231" y="457" on="1"/>
        <pt x="1231" y="336" on="1"/>
        <pt x="1231" y="37" on="0"/>
        <pt x="935" y="-4" on="1"/>
        <pt x="848" y="-16" on="0"/>
        <pt x="751" y="-20" on="1"/>
      </contour>
    </TTGlyph>
    <TTGlyph name="H" xMin="67" yMin="0" xMax="1469" yMax="1421">
      <contour>
        <pt x="541" y="190" on="1"/>
        <pt x="541" y="129" on="0"/>
        <pt x="584" y="106" on="1"/>
        <pt x="603" y="96" on="0"/>
        <pt x="649" y="85" on="0"/>
        <pt x="671" y="74" on="1"/>
        <pt x="671" y="0" on="1"/>
        <pt x="67" y="0" on="1"/>
        <pt x="67" y="74" on="1"/>
        <pt x="94" y="85" on="0"/>
        <pt x="145" y="96" on="0"/>
        <pt x="165" y="106" on="1"/>
        <pt x="209" y="128" on="0"/>
        <pt x="209" y="190" on="1"/>
        <pt x="209" y="1180" on="1"/>
        <pt x="209" y="1263" on="0"/>
        <pt x="178" y="1308" on="0"/>
        <pt x="151" y="1319" on="0"/>
        <pt x="135" y="1322" on="1"/>
        <pt x="85" y="1334" on="0"/>
        <pt x="67" y="1346" on="1"/>
        <pt x="67" y="1421" on="1"/>
        <pt x="671" y="1421" on="1"/>
        <pt x="671" y="1346" on="1"/>
        <pt x="649" y="1335" on="0"/>
        <pt x="603" y="1324" on="0"/>
        <pt x="584" y="1314" on="1"/>
        <pt x="541" y="1291" on="0"/>
        <pt x="541" y="1229" on="1"/>
      </contour>
      <contour>
        <pt x="994" y="1229" on="1"/>
        <pt x="994" y="1292" on="0"/>
        <pt x="951" y="1314" on="1"/>
        <pt x="932" y="1323" on="0"/>
        <pt x="886" y="1335" on="0"/>
        <pt x="865" y="1346" on="1"/>
        <pt x="865" y="1421" on="1"/>
        <pt x="1469" y="1421" on="1"/>
        <pt x="1469" y="1346" on="1"/>
        <pt x="1442" y="1335" on="0"/>
        <pt x="1391" y="1324" on="0"/>
        <pt x="1370" y="1314" on="1"/>
        <pt x="1326" y="1292" on="0"/>
        <pt x="1326" y="1229" on="1"/>
        <pt x="1326" y="240" on="1"/>
        <pt x="1326" y="157" on="0"/>
        <pt x="1358" y="111" on="0"/>
        <pt x="1385" y="99" on="0"/>
        <pt x="1401" y="96" on="1"/>
        <pt x="1447" y="87" on="0"/>
        <pt x="1469" y="74" on="1"/>
        <pt x="1469" y="0" on="1"/>
        <pt x="865" y="0" on="1"/>
        <pt x="865" y="74" on="1"/>
        <pt x="886" y="85" on="0"/>
        <pt x="932" y="97" on="0"/>
        <pt x="951" y="106" on="1"/>
        <pt x="994" y="128" on="0"/>
        <pt x="994" y="190" on="1"/>
      </contour>
      <contour>
        <pt x="905" y="684" on="1"/>
        <pt x="630" y="684" on="1"/>
        <pt x="630" y="797" on="1"/>
        <pt x="905" y="797" on="1"/>
      </contour>
    </TTGlyph>
    <TTGlyph name="I" xMin="74" yMin="0" xMax="689" yMax="1421">
      <contour>
        <pt x="217" y="1180" on="1"/>
        <pt x="217" y="1262" on="0"/>
        <pt x="186" y="1307" on="0"/>
        <pt x="159" y="1319" on="0"/>
        <pt x="127" y="1327" on="0"/>
        <pt x="92" y="1335" on="0"/>
        <pt x="74" y="1346" on="1"/>
        <pt x="74" y="1421" on="1"/>
        <pt x="689" y="1421" on="1"/>
        <pt x="689" y="1346" on="1"/>
        <pt x="671" y="1335" on="0"/>
        <pt x="637" y="1327" on="0"/>
        <pt x="605" y="1319" on="0"/>
        <pt x="579" y="1307" on="0"/>
        <pt x="569" y="1292" on="1"/>
        <pt x="548" y="1262" on="0"/>
        <pt x="548" y="1180" on="1"/>
        <pt x="548" y="240" on="1"/>
        <pt x="548" y="157" on="0"/>
        <pt x="579" y="112" on="0"/>
        <pt x="606" y="100" on="0"/>
        <pt x="622" y="96" on="1"/>
        <pt x="670" y="86" on="0"/>
        <pt x="689" y="74" on="1"/>
        <pt x="689" y="0" on="1"/>
        <pt x="74" y="0" on="1"/>
        <pt x="74" y="74" on="1"/>
        <pt x="101" y="85" on="0"/>
        <pt x="152" y="96" on="0"/>
        <pt x="172" y="106" on="1"/>
        <pt x="217" y="128" on="0"/>
        <pt x="217" y="190" on="1"/>
      </contour>
    </TTGlyph>
    <TTGlyph name="IJ" xMin="74" yMin="-20" xMax="1818" yMax="1421">
      <component glyphName="I" x="0" y="0" flags="0x1004"/>
      <component glyphName="J" x="767" y="0" flags="0x1004"/>
    </TTGlyph>
    <TTGlyph name="Iacute" xMin="74" yMin="0" xMax="689" yMax="1939">
      <component glyphName="I" x="0" y="0" flags="0x1204"/>
      <component glyphName="acute" x="-25" y="446" flags="0x1004"/>
    </TTGlyph>
    <TTGlyph name="Icircumflex" xMin="23" yMin="0" xMax="744" yMax="1923">
      <component glyphName="I" x="0" y="0" flags="0x1204"/>
      <component glyphName="circumflex" x="64" y="446" flags="0x1004"/>
    </TTGlyph>
    <TTGlyph name="Idieresis" xMin="-71" yMin="0" xMax="838" yMax="1841">
      <component glyphName="I" x="0" y="0" flags="0x1204"/>
      <component glyphName="dieresis" x="64" y="446" flags="0x1004"/>
    </TTGlyph>
    <TTGlyph name="Igrave" xMin="74" yMin="0" xMax="689" yMax="1939">
      <component glyphName="I" x="0" y="0" flags="0x1204"/>
      <component glyphName="grave" x="153" y="446" flags="0x1004"/>
    </TTGlyph>
    <TTGlyph name="Itilde" xMin="4" yMin="0" xMax="763" yMax="1827">
      <component glyphName="I" x="0" y="0" flags="0x1204"/>
      <component glyphName="tilde" x="64" y="416" flags="0x1004"/>
    </TTGlyph>
    <TTGlyph name="J" xMin="7" yMin="-20" xMax="1051" yMax="1421">
      <contour>
        <pt x="358" y="-20" on="1"/>
        <pt x="206" y="-3" on="0"/>
        <pt x="111" y="82" on="1"/>
        <pt x="7" y="174" on="0"/>
        <pt x="7" y="320" on="1"/>
        <pt x="7" y="466" on="0"/>
        <pt x="119" y="514" on="1"/>
        <pt x="154" y="529" on="0"/>
        <pt x="232" y="529" on="0"/>
        <pt x="293" y="508" on="0"/>
        <pt x="316" y="488" on="1"/>
        <pt x="365" y="445" on="0"/>
        <pt x="365" y="368" on="1"/>
        <pt x="365" y="278" on="0"/>
        <pt x="268" y="215" on="1"/>
        <pt x="241" y="198" on="0"/>
        <pt x="217" y="189" on="1"/>
        <pt x="223" y="163" on="0"/>
        <pt x="296" y="114" on="0"/>
        <pt x="358" y="108" on="1"/>
      </contour>
      <contour>
        <pt x="447" y="108" on="1"/>
        <pt x="571" y="133" on="0"/>
        <pt x="571" y="271" on="1"/>
        <pt x="571" y="1229" on="1"/>
        <pt x="571" y="1293" on="0"/>
        <pt x="524" y="1314" on="1"/>
        <pt x="503" y="1323" on="0"/>
        <pt x="444" y="1335" on="0"/>
        <pt x="411" y="1346" on="1"/>
        <pt x="411" y="1421" on="1"/>
        <pt x="1051" y="1421" on="1"/>
        <pt x="1051" y="1346" on="1"/>
        <pt x="1022" y="1335" on="0"/>
        <pt x="968" y="1323" on="0"/>
        <pt x="948" y="1314" on="1"/>
        <pt x="903" y="1293" on="0"/>
        <pt x="903" y="1229" on="1"/>
        <pt x="903" y="380" on="1"/>
        <pt x="903" y="79" on="0"/>
        <pt x="640" y="6" on="1"/>
        <pt x="555" y="-17" on="0"/>
        <pt x="447" y="-20" on="1"/>
      </contour>
    </TTGlyph>
    <TTGlyph name="Jcircumflex" xMin="7" yMin="-20" xMax="1051" yMax="1893">
      <component glyphName="J" x="0" y="0" flags="0x1204"/>
      <component glyphName="circumflex" x="225" y="416" flags="0x1004"/>
    </TTGlyph>
    <TTGlyph name="K" xMin="118" yMin="0" xMax="1556" yMax="1421">
      <contour>
        <pt x="682" y="858" on="1"/>
        <pt x="1026" y="1188" on="1"/>
        <pt x="1079" y="1239" on="0"/>
        <pt x="1079" y="1293" on="0"/>
        <pt x="1057" y="1313" on="0"/>
        <pt x="1021" y="1326" on="0"/>
        <pt x="974" y="1337" on="0"/>
        <pt x="949" y="1346" on="1"/>
        <pt x="949" y="1421" on="1"/>
        <pt x="1466" y="1421" on="1"/>
        <pt x="1466" y="1348" on="1"/>
        <pt x="1449" y="1335" on="0"/>
        <pt x="1405" y="1324" on="0"/>
        <pt x="1380" y="1318" on="1"/>
        <pt x="1315" y="1300" on="0"/>
        <pt x="1273" y="1262" on="1"/>
        <pt x="1241" y="1234" on="0"/>
        <pt x="1211" y="1204" on="1"/>
        <pt x="912" y="916" on="1"/>
        <pt x="1349" y="252" on="1"/>
        <pt x="1432" y="126" on="0"/>
        <pt x="1512" y="89" on="1"/>
        <pt x="1533" y="79" on="0"/>
        <pt x="1556" y="66" on="1"/>
        <pt x="1556" y="0" on="1"/>
        <pt x="916" y="0" on="1"/>
        <pt x="916" y="74" on="1"/>
        <pt x="928" y="81" on="0"/>
        <pt x="965" y="94" on="0"/>
        <pt x="982" y="102" on="1"/>
        <pt x="1022" y="122" on="0"/>
        <pt x="1022" y="146" on="1"/>
        <pt x="1022" y="183" on="0"/>
        <pt x="980" y="246" on="1"/>
        <pt x="682" y="706" on="1"/>
      </contour>
      <contour>
        <pt x="593" y="190" on="1"/>
        <pt x="593" y="129" on="0"/>
        <pt x="636" y="106" on="1"/>
        <pt x="654" y="96" on="0"/>
        <pt x="698" y="85" on="0"/>
        <pt x="718" y="74" on="1"/>
        <pt x="718" y="0" on="1"/>
        <pt x="118" y="0" on="1"/>
        <pt x="118" y="74" on="1"/>
        <pt x="139" y="89" on="0"/>
        <pt x="200" y="100" on="0"/>
        <pt x="228" y="111" on="0"/>
        <pt x="238" y="124" on="1"/>
        <pt x="261" y="153" on="0"/>
        <pt x="261" y="231" on="1"/>
        <pt x="261" y="1188" on="1"/>
        <pt x="261" y="1296" on="0"/>
        <pt x="215" y="1314" on="1"/>
        <pt x="201" y="1320" on="0"/>
        <pt x="185" y="1324" on="1"/>
        <pt x="136" y="1334" on="0"/>
        <pt x="118" y="1346" on="1"/>
        <pt x="118" y="1421" on="1"/>
        <pt x="722" y="1421" on="1"/>
        <pt x="722" y="1346" on="1"/>
        <pt x="701" y="1335" on="0"/>
        <pt x="655" y="1325" on="0"/>
        <pt x="636" y="1317" on="1"/>
        <pt x="593" y="1299" on="0"/>
        <pt x="593" y="1245" on="1"/>
      </contour>
    </TTGlyph>
    <TTGlyph name="L" xMin="83" yMin="0" xMax="1157" yMax="1421">
      <contour>
        <pt x="648" y="97" on="1"/>
        <pt x="654" y="96" on="0"/>
        <pt x="668" y="96" on="0"/>
        <pt x="675" y="96" on="1"/>
        <pt x="901" y="96" on="0"/>
        <pt x="980" y="266" on="1"/>
        <pt x="1001" y="312" on="0"/>
        <pt x="1032" y="401" on="0"/>
        <pt x="1063" y="477" on="0"/>
        <pt x="1089" y="498" on="1"/>
        <pt x="1157" y="498" on="1"/>
        <pt x="1157" y="0" on="1"/>
        <pt x="648" y="0" on="1"/>
      </contour>
      <contour>
        <pt x="558" y="0" on="1"/>
        <pt x="83" y="0" on="1"/>
        <pt x="83" y="74" on="1"/>
        <pt x="110" y="85" on="0"/>
        <pt x="161" y="96" on="0"/>
        <pt x="181" y="106" on="1"/>
        <pt x="226" y="128" on="0"/>
        <pt x="226" y="190" on="1"/>
        <pt x="226" y="1229" on="1"/>
        <pt x="226" y="1292" on="0"/>
        <pt x="181" y="1314" on="1"/>
        <pt x="161" y="1324" on="0"/>
        <pt x="110" y="1335" on="0"/>
        <pt x="83" y="1346" on="1"/>
        <pt x="83" y="1421" on="1"/>
        <pt x="708" y="1421" on="1"/>
        <pt x="708" y="1346" on="1"/>
        <pt x="678" y="1335" on="0"/>
        <pt x="624" y="1324" on="0"/>
        <pt x="604" y="1314" on="1"/>
        <pt x="558" y="1292" on="0"/>
        <pt x="558" y="1229" on="1"/>
      </contour>
    </TTGlyph>
    <TTGlyph name="Ldotaccent" xMin="83" yMin="0" xMax="1157" yMax="1421">
      <component glyphName="L" x="0" y="0" flags="0x1204"/>
      <component glyphName="dotaccent" x="583" y="-460" flags="0x1004"/>
    </TTGlyph>
    <TTGlyph name="Lslash" xMin="10" yMin="0" xMax="1157" yMax="1421">
      <contour>
        <pt x="648" y="963" on="1"/>
        <pt x="863" y="1064" on="1"/>
        <pt x="863" y="905" on="1"/>
        <pt x="648" y="804" on="1"/>
      </contour>
      <contour>
        <pt x="151" y="571" on="1"/>
        <pt x="10" y="505" on="1"/>
        <pt x="10" y="664" on="1"/>
        <pt x="151" y="730" on="1"/>
      </contour>
      <contour>
        <pt x="558" y="0" on="1"/>
        <pt x="83" y="0" on="1"/>
        <pt x="83" y="74" on="1"/>
        <pt x="110" y="85" on="0"/>
        <pt x="161" y="96" on="0"/>
        <pt x="181" y="106" on="1"/>
        <pt x="226" y="128" on="0"/>
        <pt x="226" y="190" on="1"/>
        <pt x="226" y="1229" on="1"/>
        <pt x="226" y="1292" on="0"/>
        <pt x="181" y="1314" on="1"/>
        <pt x="161" y="1324" on="0"/>
        <pt x="110" y="1335" on="0"/>
        <pt x="83" y="1346" on="1"/>
        <pt x="83" y="1421" on="1"/>
        <pt x="708" y="1421" on="1"/>
        <pt x="708" y="1346" on="1"/>
        <pt x="678" y="1335" on="0"/>
        <pt x="624" y="1324" on="0"/>
        <pt x="604" y="1314" on="1"/>
        <pt x="558" y="1292" on="0"/>
        <pt x="558" y="1229" on="1"/>
      </contour>
      <contour>
        <pt x="648" y="97" on="1"/>
        <pt x="654" y="96" on="0"/>
        <pt x="668" y="96" on="0"/>
        <pt x="675" y="96" on="1"/>
        <pt x="901" y="96" on="0"/>
        <pt x="980" y="266" on="1"/>
        <pt x="1001" y="312" on="0"/>
        <pt x="1032" y="401" on="0"/>
        <pt x="1063" y="477" on="0"/>
        <pt x="1089" y="498" on="1"/>
        <pt x="1157" y="498" on="1"/>
        <pt x="1157" y="0" on="1"/>
        <pt x="648" y="0" on="1"/>
      </contour>
    </TTGlyph>
    <TTGlyph name="M" xMin="82" yMin="0" xMax="1701" yMax="1421">
      <contour>
        <pt x="407" y="673" on="1"/>
        <pt x="407" y="221" on="1"/>
        <pt x="407" y="140" on="0"/>
        <pt x="462" y="112" on="1"/>
        <pt x="485" y="99" on="0"/>
        <pt x="540" y="85" on="0"/>
        <pt x="565" y="70" on="1"/>
        <pt x="565" y="0" on="1"/>
        <pt x="121" y="0" on="1"/>
        <pt x="121" y="70" on="1"/>
        <pt x="142" y="85" on="0"/>
        <pt x="195" y="100" on="0"/>
        <pt x="218" y="112" on="1"/>
        <pt x="273" y="140" on="0"/>
        <pt x="273" y="221" on="1"/>
        <pt x="273" y="1030" on="1"/>
      </contour>
      <contour>
        <pt x="311" y="1180" on="1"/>
        <pt x="294" y="1222" on="0"/>
        <pt x="280" y="1254" on="1"/>
        <pt x="254" y="1260" on="0"/>
        <pt x="199" y="1272" on="0"/>
        <pt x="172" y="1278" on="1"/>
        <pt x="114" y="1293" on="0"/>
        <pt x="82" y="1306" on="1"/>
        <pt x="82" y="1421" on="1"/>
        <pt x="564" y="1421" on="1"/>
        <pt x="997" y="287" on="1"/>
        <pt x="925" y="0" on="1"/>
        <pt x="753" y="0" on="1"/>
      </contour>
      <contour>
        <pt x="969" y="607" on="1"/>
        <pt x="1173" y="1421" on="1"/>
        <pt x="1701" y="1421" on="1"/>
        <pt x="1701" y="1346" on="1"/>
        <pt x="1674" y="1335" on="0"/>
        <pt x="1624" y="1324" on="0"/>
        <pt x="1604" y="1314" on="1"/>
        <pt x="1560" y="1292" on="0"/>
        <pt x="1560" y="1229" on="1"/>
        <pt x="1560" y="190" on="1"/>
        <pt x="1560" y="128" on="0"/>
        <pt x="1604" y="106" on="1"/>
        <pt x="1624" y="96" on="0"/>
        <pt x="1674" y="85" on="0"/>
        <pt x="1701" y="74" on="1"/>
        <pt x="1701" y="0" on="1"/>
        <pt x="1092" y="0" on="1"/>
        <pt x="1092" y="74" on="1"/>
        <pt x="1119" y="85" on="0"/>
        <pt x="1170" y="96" on="0"/>
        <pt x="1190" y="106" on="1"/>
        <pt x="1235" y="128" on="0"/>
        <pt x="1235" y="190" on="1"/>
        <pt x="1235" y="1206" on="1"/>
        <pt x="1230" y="1206" on="1"/>
        <pt x="1037" y="431" on="1"/>
      </contour>
    </TTGlyph>
    <TTGlyph name="N" xMin="53" yMin="0" xMax="1431" yMax="1421">
      <contour>
        <pt x="1143" y="668" on="1"/>
        <pt x="1143" y="1229" on="1"/>
        <pt x="1143" y="1291" on="0"/>
        <pt x="1094" y="1314" on="1"/>
        <pt x="1072" y="1325" on="0"/>
        <pt x="1016" y="1338" on="0"/>
        <pt x="987" y="1350" on="1"/>
        <pt x="987" y="1421" on="1"/>
        <pt x="1431" y="1421" on="1"/>
        <pt x="1431" y="1350" on="1"/>
        <pt x="1403" y="1338" on="0"/>
        <pt x="1348" y="1325" on="0"/>
        <pt x="1326" y="1314" on="1"/>
        <pt x="1277" y="1291" on="0"/>
        <pt x="1277" y="1229" on="1"/>
        <pt x="1277" y="470" on="1"/>
      </contour>
      <contour>
        <pt x="345" y="966" on="1"/>
        <pt x="345" y="215" on="1"/>
        <pt x="345" y="122" on="0"/>
        <pt x="455" y="92" on="1"/>
        <pt x="484" y="84" on="0"/>
        <pt x="510" y="72" on="1"/>
        <pt x="510" y="0" on="1"/>
        <pt x="53" y="0" on="1"/>
        <pt x="53" y="72" on="1"/>
        <pt x="78" y="84" on="0"/>
        <pt x="133" y="100" on="0"/>
        <pt x="156" y="114" on="1"/>
        <pt x="211" y="145" on="0"/>
        <pt x="211" y="215" on="1"/>
        <pt x="211" y="1165" on="1"/>
      </contour>
      <contour>
        <pt x="254" y="1260" on="1"/>
        <pt x="206" y="1269" on="0"/>
        <pt x="169" y="1276" on="1"/>
        <pt x="85" y="1290" on="0"/>
        <pt x="62" y="1296" on="1"/>
        <pt x="62" y="1421" on="1"/>
        <pt x="527" y="1421" on="1"/>
        <pt x="1277" y="311" on="1"/>
        <pt x="1277" y="0" on="1"/>
        <pt x="1104" y="0" on="1"/>
      </contour>
    </TTGlyph>
    <TTGlyph name="Nacute" xMin="53" yMin="0" xMax="1431" yMax="1909">
      <component glyphName="N" x="0" y="0" flags="0x1204"/>
      <component glyphName="acute" x="314" y="416" flags="0x1004"/>
    </TTGlyph>
    <TTGlyph name="Ntilde" xMin="53" yMin="0" xMax="1431" yMax="1857">
      <component glyphName="N" x="0" y="0" flags="0x1204"/>
      <component glyphName="tilde" x="405" y="446" flags="0x1004"/>
    </TTGlyph>
    <TTGlyph name="O" xMin="74" yMin="-20" xMax="1397" yMax="1452">
      <contour>
        <pt x="701" y="-20" on="1"/>
        <pt x="412" y="-7" on="0"/>
        <pt x="238" y="210" on="1"/>
        <pt x="74" y="412" on="0"/>
        <pt x="74" y="1010" on="0"/>
        <pt x="235" y="1217" on="1"/>
        <pt x="407" y="1438" on="0"/>
        <pt x="691" y="1452" on="1"/>
        <pt x="691" y="1324" on="1"/>
        <pt x="490" y="1292" on="0"/>
        <pt x="455" y="926" on="1"/>
        <pt x="445" y="821" on="0"/>
        <pt x="445" y="600" on="0"/>
        <pt x="466" y="393" on="0"/>
        <pt x="494" y="310" on="1"/>
        <pt x="557" y="130" on="0"/>
        <pt x="701" y="108" on="1"/>
      </contour>
      <contour>
        <pt x="1025" y="711" on="1"/>
        <pt x="1025" y="1289" on="0"/>
        <pt x="780" y="1324" on="1"/>
        <pt x="780" y="1452" on="1"/>
        <pt x="1066" y="1437" on="0"/>
        <pt x="1236" y="1217" on="1"/>
        <pt x="1397" y="1009" on="0"/>
        <pt x="1397" y="711" on="1"/>
        <pt x="1397" y="414" on="0"/>
        <pt x="1239" y="210" on="1"/>
        <pt x="1072" y="-5" on="0"/>
        <pt x="790" y="-20" on="1"/>
        <pt x="790" y="108" on="1"/>
        <pt x="983" y="134" on="0"/>
        <pt x="1016" y="496" on="1"/>
        <pt x="1025" y="600" on="0"/>
      </contour>
    </TTGlyph>
    <TTGlyph name="OE" xMin="74" yMin="-31" xMax="2100" yMax="1452">
      <contour>
        <pt x="780" y="1452" on="1"/>
        <pt x="921" y="1448" on="0"/>
        <pt x="1060" y="1421" on="1"/>
        <pt x="1397" y="1421" on="1"/>
        <pt x="1397" y="0" on="1"/>
        <pt x="1067" y="0" on="1"/>
        <pt x="935" y="-27" on="0"/>
        <pt x="790" y="-31" on="1"/>
        <pt x="790" y="74" on="1"/>
        <pt x="1025" y="107" on="0"/>
        <pt x="1025" y="1312" on="0"/>
        <pt x="780" y="1348" on="1"/>
      </contour>
      <contour>
        <pt x="691" y="1348" on="1"/>
        <pt x="445" y="1309" on="0"/>
        <pt x="445" y="113" on="0"/>
        <pt x="701" y="74" on="1"/>
        <pt x="701" y="-31" on="1"/>
        <pt x="414" y="-18" on="0"/>
        <pt x="238" y="204" on="1"/>
        <pt x="74" y="411" on="0"/>
        <pt x="74" y="711" on="1"/>
        <pt x="74" y="1010" on="0"/>
        <pt x="235" y="1217" on="1"/>
        <pt x="407" y="1438" on="0"/>
        <pt x="691" y="1452" on="1"/>
      </contour>
      <contour>
        <pt x="1490" y="100" on="1"/>
        <pt x="1540" y="96" on="0"/>
        <pt x="1694" y="96" on="0"/>
        <pt x="1817" y="144" on="0"/>
        <pt x="1894" y="219" on="0"/>
        <pt x="1938" y="311" on="0"/>
        <pt x="1970" y="400" on="0"/>
        <pt x="2003" y="475" on="0"/>
        <pt x="2032" y="496" on="1"/>
        <pt x="2100" y="496" on="1"/>
        <pt x="2100" y="0" on="1"/>
        <pt x="1490" y="0" on="1"/>
      </contour>
      <contour>
        <pt x="1765" y="1283" on="0"/>
        <pt x="1660" y="1325" on="0"/>
        <pt x="1520" y="1325" on="0"/>
        <pt x="1490" y="1322" on="1"/>
        <pt x="1490" y="1421" on="1"/>
        <pt x="1716" y="1421" on="1"/>
        <pt x="1941" y="1421" on="0"/>
        <pt x="2043" y="1436" on="1"/>
        <pt x="2043" y="952" on="1"/>
        <pt x="1973" y="952" on="1"/>
        <pt x="1948" y="976" on="0"/>
        <pt x="1914" y="1050" on="0"/>
        <pt x="1879" y="1133" on="0"/>
        <pt x="1835" y="1216" on="0"/>
      </contour>
      <contour>
        <pt x="1490" y="794" on="1"/>
        <pt x="1638" y="801" on="0"/>
        <pt x="1675" y="866" on="1"/>
        <pt x="1686" y="885" on="0"/>
        <pt x="1695" y="906" on="1"/>
        <pt x="1719" y="963" on="0"/>
        <pt x="1750" y="991" on="1"/>
        <pt x="1823" y="991" on="1"/>
        <pt x="1823" y="496" on="1"/>
        <pt x="1750" y="496" on="1"/>
        <pt x="1721" y="521" on="0"/>
        <pt x="1686" y="598" on="0"/>
        <pt x="1663" y="637" on="0"/>
        <pt x="1641" y="652" on="1"/>
        <pt x="1593" y="685" on="0"/>
        <pt x="1490" y="685" on="1"/>
      </contour>
    </TTGlyph>
    <TTGlyph name="Oacute" xMin="74" yMin="-20" xMax="1397" yMax="1939">
      <component glyphName="O" x="0" y="0" flags="0x1204"/>
      <component glyphName="acute" x="326" y="446" flags="0x1004"/>
    </TTGlyph>
    <TTGlyph name="Ocircumflex" xMin="74" yMin="-20" xMax="1397" yMax="1923">
      <component glyphName="O" x="0" y="0" flags="0x1204"/>
      <component glyphName="circumflex" x="417" y="446" flags="0x1004"/>
    </TTGlyph>
    <TTGlyph name="Odieresis" xMin="74" yMin="-20" xMax="1397" yMax="1841">
      <component glyphName="O" x="0" y="0" flags="0x1204"/>
      <component glyphName="dieresis" x="417" y="446" flags="0x1004"/>
    </TTGlyph>
    <TTGlyph name="Ograve" xMin="74" yMin="-20" xMax="1397" yMax="1939">
      <component glyphName="O" x="0" y="0" flags="0x1204"/>
      <component glyphName="grave" x="506" y="446" flags="0x1004"/>
    </TTGlyph>
    <TTGlyph name="Omega" xMin="64" yMin="0" xMax="1441" yMax="1449">
      <contour>
        <pt x="703" y="1369" on="1"/>
        <pt x="583" y="1352" on="0"/>
        <pt x="523" y="1231" on="1"/>
        <pt x="453" y="1091" on="0"/>
        <pt x="453" y="797" on="1"/>
        <pt x="453" y="571" on="0"/>
        <pt x="587" y="226" on="1"/>
        <pt x="624" y="130" on="0"/>
        <pt x="661" y="41" on="1"/>
        <pt x="640" y="0" on="1"/>
        <pt x="115" y="0" on="1"/>
        <pt x="64" y="342" on="1"/>
        <pt x="141" y="344" on="1"/>
        <pt x="172" y="257" on="0"/>
        <pt x="199" y="235" on="1"/>
        <pt x="238" y="203" on="0"/>
        <pt x="306" y="203" on="1"/>
        <pt x="497" y="203" on="1"/>
        <pt x="337" y="329" on="0"/>
        <pt x="257" y="432" on="1"/>
        <pt x="127" y="602" on="0"/>
        <pt x="127" y="813" on="1"/>
        <pt x="127" y="1083" on="0"/>
        <pt x="292" y="1260" on="1"/>
        <pt x="451" y="1430" on="0"/>
        <pt x="703" y="1448" on="1"/>
      </contour>
      <contour>
        <pt x="1051" y="797" on="1"/>
        <pt x="1051" y="1332" on="0"/>
        <pt x="792" y="1369" on="1"/>
        <pt x="792" y="1449" on="1"/>
        <pt x="1052" y="1437" on="0"/>
        <pt x="1212" y="1271" on="1"/>
        <pt x="1379" y="1099" on="0"/>
        <pt x="1379" y="823" on="1"/>
        <pt x="1379" y="551" on="0"/>
        <pt x="1124" y="320" on="1"/>
        <pt x="1055" y="258" on="0"/>
        <pt x="991" y="203" on="1"/>
        <pt x="1210" y="203" on="1"/>
        <pt x="1274" y="203" on="0"/>
        <pt x="1296" y="222" on="1"/>
        <pt x="1334" y="256" on="0"/>
        <pt x="1364" y="344" on="1"/>
        <pt x="1441" y="342" on="1"/>
        <pt x="1385" y="0" on="1"/>
        <pt x="859" y="0" on="1"/>
        <pt x="839" y="41" on="1"/>
        <pt x="870" y="124" on="0"/>
        <pt x="944" y="314" on="0"/>
        <pt x="976" y="412" on="1"/>
        <pt x="1051" y="642" on="0"/>
      </contour>
    </TTGlyph>
    <TTGlyph name="Oslash" xMin="74" yMin="-154" xMax="1397" yMax="1559">
      <contour>
        <pt x="508" y="252" on="1"/>
        <pt x="569" y="114" on="0"/>
        <pt x="701" y="97" on="1"/>
        <pt x="701" y="-31" on="1"/>
        <pt x="523" y="-21" on="0"/>
        <pt x="392" y="63" on="1"/>
        <pt x="260" y="-154" on="1"/>
        <pt x="129" y="-154" on="1"/>
        <pt x="303" y="132" on="1"/>
        <pt x="136" y="287" on="0"/>
        <pt x="89" y="544" on="1"/>
        <pt x="74" y="626" on="0"/>
        <pt x="74" y="806" on="0"/>
        <pt x="111" y="987" on="0"/>
        <pt x="182" y="1149" on="0"/>
        <pt x="288" y="1285" on="0"/>
        <pt x="356" y="1336" on="1"/>
        <pt x="501" y="1442" on="0"/>
        <pt x="691" y="1452" on="1"/>
        <pt x="691" y="1324" on="1"/>
        <pt x="445" y="1285" on="0"/>
        <pt x="445" y="711" on="1"/>
        <pt x="445" y="522" on="0"/>
        <pt x="467" y="400" on="1"/>
        <pt x="953" y="1195" on="1"/>
        <pt x="887" y="1312" on="0"/>
        <pt x="780" y="1324" on="1"/>
        <pt x="780" y="1452" on="1"/>
        <pt x="934" y="1444" on="0"/>
        <pt x="1060" y="1371" on="1"/>
        <pt x="1175" y="1559" on="1"/>
        <pt x="1305" y="1559" on="1"/>
        <pt x="1151" y="1307" on="1"/>
        <pt x="1331" y="1151" on="0"/>
        <pt x="1381" y="884" on="1"/>
        <pt x="1397" y="799" on="0"/>
        <pt x="1397" y="615" on="0"/>
        <pt x="1361" y="434" on="0"/>
        <pt x="1291" y="273" on="0"/>
        <pt x="1187" y="136" on="0"/>
        <pt x="1120" y="86" on="1"/>
        <pt x="977" y="-21" on="0"/>
        <pt x="790" y="-31" on="1"/>
        <pt x="790" y="97" on="1"/>
        <pt x="982" y="123" on="0"/>
        <pt x="1016" y="494" on="1"/>
        <pt x="1025" y="600" on="0"/>
        <pt x="1025" y="701" on="1"/>
        <pt x="1025" y="912" on="0"/>
        <pt x="996" y="1053" on="1"/>
      </contour>
    </TTGlyph>
    <TTGlyph name="Otilde" xMin="74" yMin="-20" xMax="1397" yMax="1857">
      <component glyphName="O" x="0" y="0" flags="0x1204"/>
      <component glyphName="tilde" x="417" y="446" flags="0x1004"/>
    </TTGlyph>
    <TTGlyph name="P" xMin="78" yMin="0" xMax="1220" yMax="1421">
      <contour>
        <pt x="562" y="190" on="1"/>
        <pt x="562" y="128" on="0"/>
        <pt x="608" y="106" on="1"/>
        <pt x="629" y="96" on="0"/>
        <pt x="686" y="85" on="0"/>
        <pt x="718" y="74" on="1"/>
        <pt x="718" y="0" on="1"/>
        <pt x="78" y="0" on="1"/>
        <pt x="78" y="74" on="1"/>
        <pt x="108" y="85" on="0"/>
        <pt x="163" y="96" on="0"/>
        <pt x="184" y="106" on="1"/>
        <pt x="230" y="128" on="0"/>
        <pt x="230" y="190" on="1"/>
        <pt x="230" y="1229" on="1"/>
        <pt x="230" y="1292" on="0"/>
        <pt x="184" y="1314" on="1"/>
        <pt x="163" y="1324" on="0"/>
        <pt x="108" y="1335" on="0"/>
        <pt x="78" y="1346" on="1"/>
        <pt x="78" y="1421" on="1"/>
        <pt x="562" y="1421" on="1"/>
      </contour>
      <contour>
        <pt x="651" y="739" on="1"/>
        <pt x="758" y="751" on="0"/>
        <pt x="809" y="815" on="1"/>
        <pt x="864" y="884" on="0"/>
        <pt x="864" y="1028" on="1"/>
        <pt x="864" y="1254" on="0"/>
        <pt x="735" y="1304" on="1"/>
        <pt x="696" y="1319" on="0"/>
        <pt x="651" y="1322" on="1"/>
        <pt x="651" y="1421" on="1"/>
        <pt x="746" y="1421" on="1"/>
        <pt x="988" y="1421" on="0"/>
        <pt x="1110" y="1312" on="1"/>
        <pt x="1220" y="1214" on="0"/>
        <pt x="1220" y="1032" on="1"/>
        <pt x="1220" y="725" on="0"/>
        <pt x="918" y="660" on="1"/>
        <pt x="817" y="639" on="0"/>
        <pt x="684" y="639" on="1"/>
        <pt x="651" y="639" on="1"/>
      </contour>
    </TTGlyph>
    <TTGlyph name="Q" xMin="74" yMin="-381" xMax="1515" yMax="1452">
      <contour>
        <pt x="1239" y="-165" on="0"/>
        <pt x="1325" y="-213" on="0"/>
        <pt x="1395" y="-213" on="0"/>
        <pt x="1444" y="-176" on="1"/>
        <pt x="1515" y="-241" on="1"/>
        <pt x="1449" y="-336" on="0"/>
        <pt x="1326" y="-369" on="1"/>
        <pt x="1281" y="-381" on="0"/>
        <pt x="1142" y="-381" on="0"/>
        <pt x="1011" y="-316" on="0"/>
        <pt x="908" y="-218" on="0"/>
        <pt x="826" y="-104" on="0"/>
        <pt x="790" y="-56" on="1"/>
        <pt x="790" y="108" on="1"/>
        <pt x="982" y="134" on="0"/>
        <pt x="1016" y="498" on="1"/>
        <pt x="1025" y="602" on="0"/>
        <pt x="1025" y="711" on="1"/>
        <pt x="1025" y="1289" on="0"/>
        <pt x="780" y="1324" on="1"/>
        <pt x="780" y="1452" on="1"/>
        <pt x="1066" y="1437" on="0"/>
        <pt x="1236" y="1217" on="1"/>
        <pt x="1397" y="1009" on="0"/>
        <pt x="1397" y="711" on="1"/>
        <pt x="1397" y="452" on="0"/>
        <pt x="1272" y="258" on="1"/>
        <pt x="1139" y="52" on="0"/>
        <pt x="914" y="-2" on="1"/>
        <pt x="1028" y="-35" on="0"/>
        <pt x="1184" y="-132" on="1"/>
      </contour>
      <contour>
        <pt x="691" y="1324" on="1"/>
        <pt x="445" y="1285" on="0"/>
        <pt x="445" y="147" on="0"/>
        <pt x="701" y="108" on="1"/>
        <pt x="701" y="-20" on="1"/>
        <pt x="413" y="-7" on="0"/>
        <pt x="238" y="212" on="1"/>
        <pt x="74" y="415" on="0"/>
        <pt x="74" y="711" on="1"/>
        <pt x="74" y="1010" on="0"/>
        <pt x="235" y="1217" on="1"/>
        <pt x="407" y="1438" on="0"/>
        <pt x="691" y="1452" on="1"/>
      </contour>
    </TTGlyph>
    <TTGlyph name="R" xMin="76" yMin="-21" xMax="1366" yMax="1421">
      <contour>
        <pt x="1366" y="128" on="1"/>
        <pt x="1283" y="-21" on="0"/>
        <pt x="1090" y="-21" on="1"/>
        <pt x="917" y="-21" on="0"/>
        <pt x="845" y="142" on="1"/>
        <pt x="812" y="217" on="0"/>
        <pt x="764" y="406" on="0"/>
        <pt x="746" y="457" on="1"/>
        <pt x="705" y="574" on="0"/>
        <pt x="638" y="625" on="1"/>
        <pt x="638" y="772" on="1"/>
        <pt x="757" y="783" on="0"/>
        <pt x="808" y="836" on="1"/>
        <pt x="868" y="900" on="0"/>
        <pt x="868" y="1038" on="1"/>
        <pt x="868" y="1195" on="0"/>
        <pt x="813" y="1258" on="1"/>
        <pt x="762" y="1318" on="0"/>
        <pt x="638" y="1324" on="1"/>
        <pt x="638" y="1421" on="1"/>
        <pt x="756" y="1421" on="1"/>
        <pt x="990" y="1421" on="0"/>
        <pt x="1114" y="1314" on="1"/>
        <pt x="1226" y="1218" on="0"/>
        <pt x="1226" y="1059" on="1"/>
        <pt x="1226" y="819" on="0"/>
        <pt x="977" y="740" on="1"/>
        <pt x="897" y="714" on="0"/>
        <pt x="795" y="709" on="1"/>
        <pt x="795" y="700" on="1"/>
        <pt x="888" y="685" on="0"/>
        <pt x="930" y="656" on="1"/>
        <pt x="1024" y="591" on="0"/>
        <pt x="1076" y="463" on="1"/>
        <pt x="1094" y="420" on="0"/>
        <pt x="1127" y="330" on="0"/>
        <pt x="1159" y="244" on="0"/>
        <pt x="1177" y="210" on="1"/>
        <pt x="1217" y="135" on="0"/>
        <pt x="1259" y="135" on="1"/>
        <pt x="1280" y="135" on="0"/>
        <pt x="1313" y="184" on="0"/>
        <pt x="1335" y="207" on="0"/>
        <pt x="1363" y="207" on="0"/>
        <pt x="1366" y="206" on="1"/>
      </contour>
      <contour>
        <pt x="549" y="1421" on="1"/>
        <pt x="549" y="190" on="1"/>
        <pt x="549" y="128" on="0"/>
        <pt x="594" y="106" on="1"/>
        <pt x="615" y="96" on="0"/>
        <pt x="666" y="85" on="0"/>
        <pt x="693" y="74" on="1"/>
        <pt x="693" y="0" on="1"/>
        <pt x="76" y="0" on="1"/>
        <pt x="76" y="74" on="1"/>
        <pt x="103" y="85" on="0"/>
        <pt x="154" y="96" on="0"/>
        <pt x="174" y="106" on="1"/>
        <pt x="219" y="128" on="0"/>
        <pt x="219" y="190" on="1"/>
        <pt x="219" y="1229" on="1"/>
        <pt x="219" y="1292" on="0"/>
        <pt x="174" y="1314" on="1"/>
        <pt x="154" y="1324" on="0"/>
        <pt x="103" y="1335" on="0"/>
        <pt x="76" y="1346" on="1"/>
        <pt x="76" y="1421" on="1"/>
      </contour>
    </TTGlyph>
    <TTGlyph name="Racute" xMin="76" yMin="-21" xMax="1366" yMax="1909">
      <component glyphName="R" x="0" y="0" flags="0x1204"/>
      <component glyphName="acute" x="296" y="416" flags="0x1004"/>
    </TTGlyph>
    <TTGlyph name="Rcaron" xMin="76" yMin="-21" xMax="1366" yMax="1893">
      <component glyphName="R" x="0" y="0" flags="0x1204"/>
      <component glyphName="caron" x="387" y="416" flags="0x1004"/>
    </TTGlyph>
    <TTGlyph name="Rcommaaccent" xMin="76" yMin="-823" xMax="1366" yMax="1421">
      <component glyphName="R" x="0" y="0" flags="0x1204"/>
      <component glyphName="commaaccent" x="419" y="0" flags="0x1004"/>
    </TTGlyph>
    <TTGlyph name="S" xMin="92" yMin="-20" xMax="1126" yMax="1452">
      <contour>
        <pt x="640" y="1452" on="1"/>
        <pt x="734" y="1437" on="0"/>
        <pt x="836" y="1372" on="1"/>
        <pt x="854" y="1360" on="0"/>
        <pt x="887" y="1360" on="0"/>
        <pt x="917" y="1397" on="0"/>
        <pt x="935" y="1421" on="1"/>
        <pt x="1025" y="1421" on="1"/>
        <pt x="1025" y="936" on="1"/>
        <pt x="949" y="936" on="1"/>
        <pt x="921" y="966" on="0"/>
        <pt x="857" y="1107" on="0"/>
        <pt x="816" y="1190" on="0"/>
        <pt x="789" y="1226" on="1"/>
        <pt x="728" y="1306" on="0"/>
        <pt x="640" y="1324" on="1"/>
      </contour>
      <contour>
        <pt x="257" y="61" on="1"/>
        <pt x="220" y="61" on="0"/>
        <pt x="195" y="1" on="1"/>
        <pt x="94" y="1" on="1"/>
        <pt x="94" y="524" on="1"/>
        <pt x="161" y="524" on="1"/>
        <pt x="198" y="501" on="0"/>
        <pt x="263" y="350" on="0"/>
        <pt x="310" y="255" on="0"/>
        <pt x="344" y="214" on="1"/>
        <pt x="423" y="120" on="0"/>
        <pt x="551" y="108" on="1"/>
        <pt x="551" y="-20" on="1"/>
        <pt x="458" y="-14" on="0"/>
        <pt x="322" y="39" on="0"/>
        <pt x="272" y="61" on="0"/>
      </contour>
      <contour>
        <pt x="640" y="108" on="1"/>
        <pt x="737" y="119" on="0"/>
        <pt x="848" y="226" on="0"/>
        <pt x="848" y="384" on="0"/>
        <pt x="783" y="476" on="0"/>
        <pt x="677" y="546" on="0"/>
        <pt x="541" y="602" on="0"/>
        <pt x="399" y="660" on="0"/>
        <pt x="263" y="727" on="0"/>
        <pt x="210" y="773" on="1"/>
        <pt x="92" y="875" on="0"/>
        <pt x="92" y="1032" on="1"/>
        <pt x="92" y="1193" on="0"/>
        <pt x="210" y="1315" on="1"/>
        <pt x="342" y="1450" on="0"/>
        <pt x="551" y="1452" on="1"/>
        <pt x="551" y="1324" on="1"/>
        <pt x="470" y="1316" on="0"/>
        <pt x="371" y="1228" on="0"/>
        <pt x="371" y="1100" on="0"/>
        <pt x="436" y="1016" on="0"/>
        <pt x="542" y="951" on="0"/>
        <pt x="678" y="898" on="0"/>
        <pt x="819" y="841" on="0"/>
        <pt x="955" y="772" on="0"/>
        <pt x="1008" y="724" on="1"/>
        <pt x="1126" y="617" on="0"/>
        <pt x="1126" y="455" on="1"/>
        <pt x="1126" y="265" on="0"/>
        <pt x="1006" y="136" on="1"/>
        <pt x="873" y="-9" on="0"/>
        <pt x="640" y="-20" on="1"/>
      </contour>
    </TTGlyph>
    <TTGlyph name="Scaron" xMin="92" yMin="-20" xMax="1126" yMax="1932">
      <component glyphName="S" x="0" y="0" flags="0x1204"/>
      <component glyphName="caron" x="289" y="455" flags="0x1004"/>
    </TTGlyph>
    <TTGlyph name="T" xMin="30" yMin="0" xMax="1253" yMax="1436">
      <contour>
        <pt x="30" y="1436" on="1"/>
        <pt x="159" y="1421" on="0"/>
        <pt x="173" y="1421" on="1"/>
        <pt x="386" y="1421" on="1"/>
        <pt x="386" y="1320" on="1"/>
        <pt x="231" y="1305" on="0"/>
        <pt x="186" y="1164" on="1"/>
        <pt x="174" y="1124" on="0"/>
        <pt x="162" y="1086" on="1"/>
        <pt x="131" y="986" on="0"/>
        <pt x="92" y="954" on="1"/>
        <pt x="30" y="954" on="1"/>
      </contour>
      <contour>
        <pt x="808" y="248" on="1"/>
        <pt x="808" y="136" on="0"/>
        <pt x="858" y="110" on="1"/>
        <pt x="881" y="99" on="0"/>
        <pt x="940" y="91" on="0"/>
        <pt x="972" y="74" on="1"/>
        <pt x="972" y="0" on="1"/>
        <pt x="308" y="0" on="1"/>
        <pt x="308" y="74" on="1"/>
        <pt x="340" y="85" on="0"/>
        <pt x="400" y="100" on="0"/>
        <pt x="424" y="112" on="1"/>
        <pt x="475" y="140" on="0"/>
        <pt x="475" y="203" on="1"/>
        <pt x="475" y="1421" on="1"/>
        <pt x="808" y="1421" on="1"/>
      </contour>
      <contour>
        <pt x="1110" y="1421" on="1"/>
        <pt x="1124" y="1421" on="0"/>
        <pt x="1253" y="1436" on="1"/>
        <pt x="1253" y="954" on="1"/>
        <pt x="1191" y="954" on="1"/>
        <pt x="1152" y="986" on="0"/>
        <pt x="1109" y="1124" on="0"/>
        <pt x="1083" y="1203" on="0"/>
        <pt x="1060" y="1236" on="1"/>
        <pt x="1009" y="1309" on="0"/>
        <pt x="897" y="1320" on="1"/>
        <pt x="897" y="1421" on="1"/>
      </contour>
    </TTGlyph>
    <TTGlyph name="Thorn" xMin="59" yMin="0" xMax="1201" yMax="1421">
      <contour>
        <pt x="845" y="741" on="1"/>
        <pt x="845" y="1024" on="0"/>
        <pt x="632" y="1037" on="1"/>
        <pt x="632" y="1135" on="1"/>
        <pt x="669" y="1135" on="1"/>
        <pt x="1082" y="1135" on="0"/>
        <pt x="1172" y="913" on="1"/>
        <pt x="1201" y="840" on="0"/>
        <pt x="1201" y="638" on="0"/>
        <pt x="1133" y="488" on="0"/>
        <pt x="1066" y="441" on="1"/>
        <pt x="939" y="352" on="0"/>
        <pt x="665" y="352" on="1"/>
        <pt x="632" y="352" on="1"/>
        <pt x="632" y="454" on="1"/>
        <pt x="747" y="468" on="0"/>
        <pt x="796" y="533" on="1"/>
        <pt x="845" y="599" on="0"/>
      </contour>
      <contour>
        <pt x="543" y="223" on="1"/>
        <pt x="543" y="152" on="0"/>
        <pt x="577" y="110" on="0"/>
        <pt x="607" y="99" on="0"/>
        <pt x="624" y="96" on="1"/>
        <pt x="678" y="84" on="0"/>
        <pt x="699" y="74" on="1"/>
        <pt x="699" y="0" on="1"/>
        <pt x="59" y="0" on="1"/>
        <pt x="59" y="74" on="1"/>
        <pt x="89" y="85" on="0"/>
        <pt x="144" y="96" on="0"/>
        <pt x="165" y="106" on="1"/>
        <pt x="211" y="128" on="0"/>
        <pt x="211" y="190" on="1"/>
        <pt x="211" y="1184" on="1"/>
        <pt x="211" y="1295" on="0"/>
        <pt x="164" y="1314" on="1"/>
        <pt x="146" y="1322" on="0"/>
        <pt x="78" y="1336" on="0"/>
        <pt x="59" y="1346" on="1"/>
        <pt x="59" y="1421" on="1"/>
        <pt x="704" y="1421" on="1"/>
        <pt x="704" y="1346" on="1"/>
        <pt x="684" y="1335" on="0"/>
        <pt x="610" y="1321" on="0"/>
        <pt x="579" y="1311" on="0"/>
        <pt x="568" y="1299" on="1"/>
        <pt x="543" y="1273" on="0"/>
        <pt x="543" y="1206" on="1"/>
      </contour>
    </TTGlyph>
    <TTGlyph name="U" xMin="35" yMin="-20" xMax="1399" yMax="1421">
      <contour>
        <pt x="854" y="108" on="1"/>
        <pt x="1004" y="118" on="0"/>
        <pt x="1063" y="196" on="1"/>
        <pt x="1117" y="268" on="0"/>
        <pt x="1117" y="432" on="1"/>
        <pt x="1117" y="1223" on="1"/>
        <pt x="1117" y="1293" on="0"/>
        <pt x="1065" y="1316" on="1"/>
        <pt x="1042" y="1327" on="0"/>
        <pt x="987" y="1338" on="0"/>
        <pt x="961" y="1350" on="1"/>
        <pt x="961" y="1421" on="1"/>
        <pt x="1399" y="1421" on="1"/>
        <pt x="1399" y="1350" on="1"/>
        <pt x="1377" y="1339" on="0"/>
        <pt x="1326" y="1329" on="0"/>
        <pt x="1304" y="1320" on="1"/>
        <pt x="1254" y="1297" on="0"/>
        <pt x="1254" y="1233" on="1"/>
        <pt x="1254" y="444" on="1"/>
        <pt x="1254" y="232" on="0"/>
        <pt x="1166" y="122" on="1"/>
        <pt x="1072" y="5" on="0"/>
        <pt x="854" y="-20" on="1"/>
      </contour>
      <contour>
        <pt x="765" y="-20" on="1"/>
        <pt x="314" y="-20" on="0"/>
        <pt x="214" y="192" on="1"/>
        <pt x="180" y="263" on="0"/>
        <pt x="180" y="358" on="1"/>
        <pt x="180" y="1233" on="1"/>
        <pt x="180" y="1296" on="0"/>
        <pt x="130" y="1317" on="1"/>
        <pt x="109" y="1326" on="0"/>
        <pt x="58" y="1337" on="0"/>
        <pt x="35" y="1350" on="1"/>
        <pt x="35" y="1421" on="1"/>
        <pt x="671" y="1421" on="1"/>
        <pt x="671" y="1350" on="1"/>
        <pt x="643" y="1339" on="0"/>
        <pt x="589" y="1330" on="0"/>
        <pt x="568" y="1321" on="1"/>
        <pt x="521" y="1301" on="0"/>
        <pt x="521" y="1239" on="1"/>
        <pt x="521" y="399" on="1"/>
        <pt x="521" y="200" on="0"/>
        <pt x="649" y="137" on="1"/>
        <pt x="696" y="114" on="0"/>
        <pt x="765" y="108" on="1"/>
      </contour>
    </TTGlyph>
    <TTGlyph name="Uacute" xMin="35" yMin="-20" xMax="1399" yMax="1939">
      <component glyphName="U" x="0" y="0" flags="0x1204"/>
      <component glyphName="acute" x="293" y="446" flags="0x1004"/>
    </TTGlyph>
    <TTGlyph name="Ucircumflex" xMin="35" yMin="-20" xMax="1399" yMax="1923">
      <component glyphName="U" x="0" y="0" flags="0x1204"/>
      <component glyphName="circumflex" x="384" y="446" flags="0x1004"/>
    </TTGlyph>
    <TTGlyph name="Udieresis" xMin="35" yMin="-20" xMax="1399" yMax="1841">
      <component glyphName="U" x="0" y="0" flags="0x1204"/>
      <component glyphName="dieresis" x="382" y="446" flags="0x1004"/>
    </TTGlyph>
    <TTGlyph name="Ugrave" xMin="35" yMin="-20" xMax="1399" yMax="1939">
      <component glyphName="U" x="0" y="0" flags="0x1204"/>
      <component glyphName="grave" x="473" y="446" flags="0x1004"/>
    </TTGlyph>
    <TTGlyph name="V" xMin="-51" yMin="0" xMax="1287" yMax="1421">
      <contour>
        <pt x="752" y="469" on="1"/>
        <pt x="994" y="1176" on="1"/>
        <pt x="1007" y="1215" on="0"/>
        <pt x="1007" y="1281" on="0"/>
        <pt x="977" y="1310" on="0"/>
        <pt x="935" y="1321" on="0"/>
        <pt x="889" y="1328" on="0"/>
        <pt x="873" y="1343" on="1"/>
        <pt x="873" y="1421" on="1"/>
        <pt x="1287" y="1421" on="1"/>
        <pt x="1287" y="1346" on="1"/>
        <pt x="1270" y="1334" on="0"/>
        <pt x="1230" y="1321" on="0"/>
        <pt x="1210" y="1312" on="1"/>
        <pt x="1162" y="1288" on="0"/>
        <pt x="1146" y="1239" on="1"/>
        <pt x="814" y="291" on="1"/>
      </contour>
      <contour>
        <pt x="787" y="217" on="1"/>
        <pt x="710" y="0" on="1"/>
        <pt x="537" y="0" on="1"/>
        <pt x="95" y="1241" on="1"/>
        <pt x="70" y="1311" on="0"/>
        <pt x="-11" y="1330" on="1"/>
        <pt x="-32" y="1335" on="0"/>
        <pt x="-51" y="1346" on="1"/>
        <pt x="-51" y="1421" on="1"/>
        <pt x="585" y="1421" on="1"/>
        <pt x="585" y="1348" on="1"/>
        <pt x="562" y="1339" on="0"/>
        <pt x="512" y="1327" on="0"/>
        <pt x="490" y="1318" on="1"/>
        <pt x="440" y="1298" on="0"/>
        <pt x="440" y="1255" on="1"/>
        <pt x="440" y="1230" on="0"/>
        <pt x="468" y="1149" on="1"/>
      </contour>
    </TTGlyph>
    <TTGlyph name="W" xMin="-46" yMin="0" xMax="1869" yMax="1421">
      <contour>
        <pt x="693" y="260" on="1"/>
        <pt x="609" y="0" on="1"/>
        <pt x="451" y="0" on="1"/>
        <pt x="71" y="1235" on="1"/>
        <pt x="51" y="1300" on="0"/>
        <pt x="14" y="1322" on="1"/>
        <pt x="-2" y="1331" on="0"/>
        <pt x="-33" y="1342" on="0"/>
        <pt x="-46" y="1352" on="1"/>
        <pt x="-46" y="1421" on="1"/>
        <pt x="535" y="1421" on="1"/>
        <pt x="535" y="1350" on="1"/>
        <pt x="515" y="1340" on="0"/>
        <pt x="473" y="1327" on="0"/>
        <pt x="456" y="1318" on="1"/>
        <pt x="415" y="1297" on="0"/>
        <pt x="415" y="1222" on="0"/>
        <pt x="442" y="1136" on="0"/>
        <pt x="457" y="1085" on="1"/>
      </contour>
      <contour>
        <pt x="1403" y="577" on="1"/>
        <pt x="1577" y="1149" on="1"/>
        <pt x="1599" y="1223" on="0"/>
        <pt x="1599" y="1279" on="0"/>
        <pt x="1571" y="1306" on="0"/>
        <pt x="1526" y="1323" on="0"/>
        <pt x="1472" y="1337" on="0"/>
        <pt x="1447" y="1348" on="1"/>
        <pt x="1447" y="1421" on="1"/>
        <pt x="1869" y="1421" on="1"/>
        <pt x="1869" y="1348" on="1"/>
        <pt x="1848" y="1336" on="0"/>
        <pt x="1806" y="1318" on="0"/>
        <pt x="1786" y="1304" on="1"/>
        <pt x="1743" y="1271" on="0"/>
        <pt x="1717" y="1192" on="1"/>
        <pt x="1459" y="386" on="1"/>
      </contour>
      <contour>
        <pt x="1421" y="268" on="1"/>
        <pt x="1333" y="0" on="1"/>
        <pt x="1179" y="0" on="1"/>
        <pt x="901" y="889" on="1"/>
        <pt x="897" y="889" on="1"/>
        <pt x="732" y="374" on="1"/>
        <pt x="674" y="574" on="1"/>
        <pt x="839" y="1077" on="1"/>
        <pt x="828" y="1111" on="0"/>
        <pt x="812" y="1193" on="0"/>
        <pt x="797" y="1230" on="1"/>
        <pt x="762" y="1316" on="0"/>
        <pt x="678" y="1325" on="1"/>
        <pt x="659" y="1341" on="0"/>
        <pt x="659" y="1368" on="1"/>
        <pt x="659" y="1421" on="1"/>
        <pt x="1272" y="1421" on="1"/>
        <pt x="1272" y="1343" on="1"/>
        <pt x="1250" y="1331" on="0"/>
        <pt x="1201" y="1321" on="0"/>
        <pt x="1180" y="1315" on="1"/>
        <pt x="1132" y="1301" on="0"/>
        <pt x="1132" y="1257" on="1"/>
        <pt x="1132" y="1239" on="0"/>
        <pt x="1146" y="1195" on="0"/>
        <pt x="1151" y="1176" on="1"/>
      </contour>
    </TTGlyph>
    <TTGlyph name="X" xMin="9" yMin="0" xMax="1360" yMax="1421">
      <contour>
        <pt x="569" y="492" on="1"/>
        <pt x="411" y="252" on="1"/>
        <pt x="365" y="183" on="0"/>
        <pt x="365" y="130" on="0"/>
        <pt x="393" y="106" on="0"/>
        <pt x="436" y="92" on="0"/>
        <pt x="486" y="81" on="0"/>
        <pt x="508" y="70" on="1"/>
        <pt x="508" y="0" on="1"/>
        <pt x="9" y="0" on="1"/>
        <pt x="9" y="70" on="1"/>
        <pt x="30" y="80" on="0"/>
        <pt x="81" y="93" on="0"/>
        <pt x="108" y="104" on="1"/>
        <pt x="171" y="130" on="0"/>
        <pt x="214" y="193" on="1"/>
        <pt x="497" y="610" on="1"/>
      </contour>
      <contour>
        <pt x="790" y="991" on="1"/>
        <pt x="929" y="1196" on="1"/>
        <pt x="961" y="1242" on="0"/>
        <pt x="961" y="1293" on="0"/>
        <pt x="936" y="1315" on="0"/>
        <pt x="900" y="1329" on="0"/>
        <pt x="857" y="1340" on="0"/>
        <pt x="839" y="1350" on="1"/>
        <pt x="839" y="1421" on="1"/>
        <pt x="1305" y="1421" on="1"/>
        <pt x="1305" y="1348" on="1"/>
        <pt x="1281" y="1339" on="0"/>
        <pt x="1227" y="1328" on="0"/>
        <pt x="1200" y="1318" on="1"/>
        <pt x="1134" y="1294" on="0"/>
        <pt x="1097" y="1239" on="1"/>
        <pt x="856" y="882" on="1"/>
      </contour>
      <contour>
        <pt x="1185" y="199" on="1"/>
        <pt x="1231" y="121" on="0"/>
        <pt x="1322" y="91" on="1"/>
        <pt x="1343" y="84" on="0"/>
        <pt x="1360" y="74" on="1"/>
        <pt x="1360" y="0" on="1"/>
        <pt x="706" y="0" on="1"/>
        <pt x="706" y="72" on="1"/>
        <pt x="728" y="83" on="0"/>
        <pt x="775" y="94" on="0"/>
        <pt x="794" y="100" on="1"/>
        <pt x="839" y="115" on="0"/>
        <pt x="839" y="150" on="1"/>
        <pt x="839" y="186" on="0"/>
        <pt x="788" y="270" on="1"/>
        <pt x="264" y="1139" on="1"/>
        <pt x="176" y="1285" on="0"/>
        <pt x="128" y="1317" on="0"/>
        <pt x="92" y="1330" on="0"/>
        <pt x="55" y="1338" on="0"/>
        <pt x="39" y="1346" on="1"/>
        <pt x="39" y="1421" on="1"/>
        <pt x="683" y="1421" on="1"/>
        <pt x="683" y="1350" on="1"/>
        <pt x="659" y="1340" on="0"/>
        <pt x="611" y="1330" on="0"/>
        <pt x="592" y="1324" on="1"/>
        <pt x="550" y="1311" on="0"/>
        <pt x="550" y="1280" on="1"/>
        <pt x="550" y="1264" on="0"/>
        <pt x="593" y="1192" on="1"/>
      </contour>
    </TTGlyph>
    <TTGlyph name="Y" xMin="-53" yMin="0" xMax="1206" yMax="1421">
      <contour>
        <pt x="757" y="665" on="1"/>
        <pt x="757" y="180" on="1"/>
        <pt x="757" y="122" on="0"/>
        <pt x="804" y="104" on="1"/>
        <pt x="826" y="95" on="0"/>
        <pt x="883" y="85" on="0"/>
        <pt x="915" y="74" on="1"/>
        <pt x="915" y="0" on="1"/>
        <pt x="262" y="0" on="1"/>
        <pt x="262" y="74" on="1"/>
        <pt x="294" y="85" on="0"/>
        <pt x="353" y="96" on="0"/>
        <pt x="376" y="104" on="1"/>
        <pt x="425" y="123" on="0"/>
        <pt x="425" y="178" on="1"/>
        <pt x="425" y="614" on="1"/>
        <pt x="115" y="1208" on="1"/>
        <pt x="62" y="1310" on="0"/>
        <pt x="-18" y="1331" on="1"/>
        <pt x="-37" y="1336" on="0"/>
        <pt x="-53" y="1346" on="1"/>
        <pt x="-53" y="1421" on="1"/>
        <pt x="588" y="1421" on="1"/>
        <pt x="588" y="1346" on="1"/>
        <pt x="566" y="1337" on="0"/>
        <pt x="518" y="1327" on="0"/>
        <pt x="498" y="1320" on="1"/>
        <pt x="454" y="1306" on="0"/>
        <pt x="454" y="1272" on="1"/>
        <pt x="454" y="1251" on="0"/>
        <pt x="488" y="1187" on="0"/>
        <pt x="510" y="1145" on="1"/>
      </contour>
      <contour>
        <pt x="739" y="864" on="1"/>
        <pt x="869" y="1120" on="1"/>
        <pt x="924" y="1228" on="0"/>
        <pt x="924" y="1288" on="0"/>
        <pt x="897" y="1312" on="0"/>
        <pt x="855" y="1326" on="0"/>
        <pt x="805" y="1337" on="0"/>
        <pt x="781" y="1346" on="1"/>
        <pt x="781" y="1421" on="1"/>
        <pt x="1206" y="1421" on="1"/>
        <pt x="1206" y="1350" on="1"/>
        <pt x="1190" y="1337" on="0"/>
        <pt x="1156" y="1325" on="0"/>
        <pt x="1138" y="1314" on="1"/>
        <pt x="1091" y="1288" on="0"/>
        <pt x="1058" y="1223" on="1"/>
        <pt x="803" y="730" on="1"/>
      </contour>
    </TTGlyph>
    <TTGlyph name="Yacute" xMin="-53" yMin="0" xMax="1206" yMax="1939">
      <component glyphName="Y" x="0" y="0" flags="0x1204"/>
      <component glyphName="acute" x="166" y="446" flags="0x1004"/>
    </TTGlyph>
    <TTGlyph name="Ydieresis" xMin="-53" yMin="0" xMax="1206" yMax="1841">
      <component glyphName="Y" x="0" y="0" flags="0x1204"/>
      <component glyphName="dieresis" x="257" y="446" flags="0x1004"/>
    </TTGlyph>
    <TTGlyph name="Z" xMin="77" yMin="0" xMax="1120" yMax="1436">
      <contour>
        <pt x="493" y="107" on="1"/>
        <pt x="605" y="113" on="1"/>
        <pt x="842" y="126" on="0"/>
        <pt x="924" y="266" on="1"/>
        <pt x="949" y="310" on="0"/>
        <pt x="1020" y="473" on="0"/>
        <pt x="1049" y="508" on="1"/>
        <pt x="1120" y="508" on="1"/>
        <pt x="1120" y="0" on="1"/>
        <pt x="433" y="0" on="1"/>
      </contour>
      <contour>
        <pt x="132" y="1436" on="1"/>
        <pt x="244" y="1421" on="0"/>
        <pt x="385" y="1421" on="1"/>
        <pt x="716" y="1421" on="1"/>
        <pt x="662" y="1325" on="1"/>
        <pt x="636" y="1325" on="1"/>
        <pt x="405" y="1325" on="0"/>
        <pt x="315" y="1197" on="1"/>
        <pt x="274" y="1138" on="0"/>
        <pt x="222" y="995" on="0"/>
        <pt x="203" y="958" on="1"/>
        <pt x="132" y="958" on="1"/>
      </contour>
      <contour>
        <pt x="795" y="1421" on="1"/>
        <pt x="1089" y="1421" on="1"/>
        <pt x="1089" y="1315" on="1"/>
        <pt x="353" y="0" on="1"/>
        <pt x="77" y="0" on="1"/>
        <pt x="77" y="150" on="1"/>
      </contour>
    </TTGlyph>
    <TTGlyph name="Zcaron" xMin="77" yMin="0" xMax="1120" yMax="1923">
      <component glyphName="Z" x="0" y="0" flags="0x1204"/>
      <component glyphName="caron" x="257" y="446" flags="0x1004"/>
    </TTGlyph>
    <TTGlyph name="a" xMin="67" yMin="-15" xMax="1141" yMax="1025">
      <contour>
        <pt x="887" y="-15" on="1"/>
        <pt x="736" y="-15" on="0"/>
        <pt x="659" y="54" on="1"/>
        <pt x="659" y="648" on="1"/>
        <pt x="659" y="776" on="0"/>
        <pt x="648" y="814" on="1"/>
        <pt x="628" y="890" on="0"/>
        <pt x="566" y="905" on="1"/>
        <pt x="566" y="1025" on="1"/>
        <pt x="957" y="1011" on="0"/>
        <pt x="957" y="673" on="1"/>
        <pt x="957" y="225" on="1"/>
        <pt x="957" y="105" on="0"/>
        <pt x="1013" y="105" on="1"/>
        <pt x="1059" y="105" on="0"/>
        <pt x="1069" y="227" on="1"/>
        <pt x="1141" y="209" on="1"/>
        <pt x="1116" y="40" on="0"/>
        <pt x="994" y="0" on="1"/>
        <pt x="950" y="-15" on="0"/>
      </contour>
      <contour>
        <pt x="570" y="33" on="1"/>
        <pt x="513" y="-15" on="0"/>
        <pt x="328" y="-15" on="0"/>
        <pt x="206" y="20" on="0"/>
        <pt x="162" y="54" on="1"/>
        <pt x="67" y="128" on="0"/>
        <pt x="67" y="257" on="1"/>
        <pt x="67" y="405" on="0"/>
        <pt x="205" y="491" on="1"/>
        <pt x="304" y="553" on="0"/>
        <pt x="570" y="625" on="1"/>
        <pt x="570" y="519" on="1"/>
        <pt x="392" y="449" on="0"/>
        <pt x="392" y="273" on="1"/>
        <pt x="392" y="158" on="0"/>
        <pt x="446" y="118" on="1"/>
        <pt x="465" y="105" on="0"/>
        <pt x="537" y="105" on="0"/>
        <pt x="570" y="128" on="1"/>
      </contour>
      <contour>
        <pt x="359" y="841" on="1"/>
        <pt x="427" y="810" on="0"/>
        <pt x="427" y="749" on="1"/>
        <pt x="427" y="672" on="0"/>
        <pt x="338" y="648" on="1"/>
        <pt x="313" y="642" on="0"/>
        <pt x="288" y="642" on="1"/>
        <pt x="215" y="642" on="0"/>
        <pt x="139" y="724" on="0"/>
        <pt x="139" y="837" on="0"/>
        <pt x="183" y="918" on="0"/>
        <pt x="226" y="950" on="1"/>
        <pt x="319" y="1017" on="0"/>
        <pt x="477" y="1025" on="1"/>
        <pt x="477" y="905" on="1"/>
        <pt x="398" y="900" on="0"/>
      </contour>
    </TTGlyph>
    <TTGlyph name="aacute" xMin="67" yMin="-15" xMax="1141" yMax="1493">
      <component glyphName="a" x="0" y="0" flags="0x1204"/>
      <component glyphName="acute" x="166" y="0" flags="0x1004"/>
    </TTGlyph>
    <TTGlyph name="acircumflex" xMin="67" yMin="-15" xMax="1141" yMax="1477">
      <component glyphName="a" x="0" y="0" flags="0x1204"/>
      <component glyphName="circumflex" x="257" y="0" flags="0x1004"/>
    </TTGlyph>
    <TTGlyph name="acute" xMin="150" yMin="1120" xMax="671" yMax="1493">
      <contour>
        <pt x="150" y="1120" on="1"/>
        <pt x="443" y="1427" on="1"/>
        <pt x="507" y="1493" on="0"/>
        <pt x="570" y="1493" on="1"/>
        <pt x="632" y="1493" on="0"/>
        <pt x="662" y="1443" on="1"/>
        <pt x="671" y="1427" on="0"/>
        <pt x="671" y="1407" on="1"/>
        <pt x="671" y="1370" on="0"/>
        <pt x="654" y="1353" on="1"/>
        <pt x="632" y="1330" on="0"/>
        <pt x="585" y="1303" on="1"/>
        <pt x="273" y="1120" on="1"/>
      </contour>
    </TTGlyph>
    <TTGlyph name="adieresis" xMin="67" yMin="-15" xMax="1141" yMax="1395">
      <component glyphName="a" x="0" y="0" flags="0x1204"/>
      <component glyphName="dieresis" x="257" y="0" flags="0x1004"/>
    </TTGlyph>
    <TTGlyph name="ae" xMin="67" yMin="-25" xMax="1593" yMax="1008">
      <contour>
        <pt x="1103" y="-25" on="1"/>
        <pt x="784" y="-25" on="0"/>
        <pt x="659" y="58" on="1"/>
        <pt x="659" y="633" on="1"/>
        <pt x="659" y="773" on="0"/>
        <pt x="648" y="815" on="1"/>
        <pt x="628" y="900" on="0"/>
        <pt x="566" y="916" on="1"/>
        <pt x="566" y="1008" on="1"/>
        <pt x="754" y="1000" on="0"/>
        <pt x="855" y="914" on="1"/>
        <pt x="965" y="996" on="0"/>
        <pt x="1103" y="1006" on="1"/>
        <pt x="1103" y="902" on="1"/>
        <pt x="1037" y="882" on="0"/>
        <pt x="989" y="706" on="0"/>
        <pt x="989" y="463" on="0"/>
        <pt x="998" y="323" on="0"/>
        <pt x="1010" y="266" on="1"/>
        <pt x="1037" y="146" on="0"/>
        <pt x="1103" y="105" on="1"/>
      </contour>
      <contour>
        <pt x="570" y="34" on="1"/>
        <pt x="494" y="-23" on="0"/>
        <pt x="328" y="-23" on="0"/>
        <pt x="206" y="13" on="0"/>
        <pt x="162" y="47" on="1"/>
        <pt x="67" y="119" on="0"/>
        <pt x="67" y="246" on="1"/>
        <pt x="67" y="391" on="0"/>
        <pt x="205" y="477" on="1"/>
        <pt x="308" y="541" on="0"/>
        <pt x="570" y="610" on="1"/>
        <pt x="570" y="507" on="1"/>
        <pt x="392" y="437" on="0"/>
        <pt x="392" y="262" on="1"/>
        <pt x="392" y="153" on="0"/>
        <pt x="446" y="116" on="1"/>
        <pt x="465" y="104" on="0"/>
        <pt x="537" y="104" on="0"/>
        <pt x="570" y="127" on="1"/>
      </contour>
      <contour>
        <pt x="1192" y="1006" on="1"/>
        <pt x="1398" y="991" on="0"/>
        <pt x="1501" y="845" on="1"/>
        <pt x="1593" y="715" on="0"/>
        <pt x="1593" y="496" on="1"/>
        <pt x="1078" y="496" on="1"/>
        <pt x="1078" y="596" on="1"/>
        <pt x="1285" y="596" on="1"/>
        <pt x="1285" y="734" on="0"/>
        <pt x="1246" y="881" on="0"/>
        <pt x="1192" y="900" on="1"/>
      </contour>
      <contour>
        <pt x="359" y="821" on="1"/>
        <pt x="427" y="792" on="0"/>
        <pt x="427" y="731" on="1"/>
        <pt x="427" y="657" on="0"/>
        <pt x="338" y="634" on="1"/>
        <pt x="313" y="627" on="0"/>
        <pt x="288" y="627" on="1"/>
        <pt x="215" y="627" on="0"/>
        <pt x="139" y="708" on="0"/>
        <pt x="139" y="817" on="0"/>
        <pt x="183" y="898" on="0"/>
        <pt x="226" y="930" on="1"/>
        <pt x="321" y="1000" on="0"/>
        <pt x="477" y="1008" on="1"/>
        <pt x="477" y="922" on="1"/>
        <pt x="415" y="917" on="0"/>
        <pt x="379" y="858" on="1"/>
        <pt x="368" y="840" on="0"/>
      </contour>
      <contour>
        <pt x="1192" y="80" on="1"/>
        <pt x="1403" y="91" on="0"/>
        <pt x="1472" y="334" on="1"/>
        <pt x="1564" y="293" on="1"/>
        <pt x="1486" y="2" on="0"/>
        <pt x="1192" y="-24" on="1"/>
      </contour>
    </TTGlyph>
    <TTGlyph name="afii61289" xMin="51" yMin="-29" xMax="927" yMax="1518">
      <contour>
        <pt x="645" y="131" on="1"/>
        <pt x="762" y="131" on="0"/>
        <pt x="871" y="276" on="1"/>
        <pt x="927" y="233" on="1"/>
        <pt x="784" y="-29" on="0"/>
        <pt x="523" y="-29" on="1"/>
        <pt x="352" y="-29" on="0"/>
        <pt x="275" y="53" on="1"/>
        <pt x="231" y="105" on="0"/>
        <pt x="219" y="148" on="1"/>
        <pt x="198" y="221" on="0"/>
        <pt x="198" y="354" on="1"/>
        <pt x="198" y="506" on="1"/>
        <pt x="81" y="434" on="1"/>
        <pt x="51" y="498" on="1"/>
        <pt x="196" y="596" on="1"/>
        <pt x="196" y="891" on="1"/>
        <pt x="196" y="1101" on="0"/>
        <pt x="235" y="1263" on="0"/>
        <pt x="279" y="1347" on="0"/>
        <pt x="363" y="1449" on="0"/>
        <pt x="489" y="1518" on="0"/>
        <pt x="612" y="1518" on="0"/>
        <pt x="698" y="1476" on="0"/>
        <pt x="727" y="1438" on="1"/>
        <pt x="786" y="1362" on="0"/>
        <pt x="786" y="1145" on="0"/>
        <pt x="745" y="994" on="0"/>
        <pt x="706" y="926" on="1"/>
        <pt x="637" y="806" on="0"/>
        <pt x="479" y="657" on="1"/>
        <pt x="479" y="485" on="1"/>
        <pt x="479" y="285" on="0"/>
        <pt x="514" y="208" on="1"/>
        <pt x="549" y="131" on="0"/>
      </contour>
      <contour>
        <pt x="636" y="1229" on="1"/>
        <pt x="636" y="1446" on="0"/>
        <pt x="556" y="1446" on="1"/>
        <pt x="532" y="1446" on="0"/>
        <pt x="502" y="1410" on="0"/>
        <pt x="494" y="1360" on="1"/>
        <pt x="479" y="1276" on="0"/>
        <pt x="479" y="993" on="1"/>
        <pt x="479" y="778" on="1"/>
        <pt x="589" y="894" on="0"/>
        <pt x="624" y="1097" on="1"/>
        <pt x="636" y="1162" on="0"/>
      </contour>
    </TTGlyph>
    <TTGlyph name="agrave" xMin="67" yMin="-15" xMax="1141" yMax="1493">
      <component glyphName="a" x="0" y="0" flags="0x1204"/>
      <component glyphName="grave" x="346" y="0" flags="0x1004"/>
    </TTGlyph>
    <TTGlyph name="ampersand" xMin="89" yMin="-31" xMax="1551" yMax="1452">
      <contour>
        <pt x="701" y="-30" on="1"/>
        <pt x="675" y="-31" on="1"/>
        <pt x="412" y="-31" on="0"/>
        <pt x="251" y="72" on="1"/>
        <pt x="89" y="177" on="0"/>
        <pt x="89" y="343" on="1"/>
        <pt x="89" y="526" on="0"/>
        <pt x="246" y="651" on="1"/>
        <pt x="295" y="690" on="0"/>
        <pt x="355" y="718" on="1"/>
        <pt x="432" y="598" on="1"/>
        <pt x="415" y="539" on="0"/>
        <pt x="415" y="402" on="1"/>
        <pt x="415" y="292" on="0"/>
        <pt x="498" y="204" on="1"/>
        <pt x="583" y="113" on="0"/>
        <pt x="701" y="97" on="1"/>
      </contour>
      <contour>
        <pt x="752" y="920" on="1"/>
        <pt x="899" y="1009" on="0"/>
        <pt x="899" y="1178" on="1"/>
        <pt x="899" y="1233" on="0"/>
        <pt x="837" y="1315" on="0"/>
        <pt x="770" y="1324" on="1"/>
        <pt x="770" y="1452" on="1"/>
        <pt x="912" y="1442" on="0"/>
        <pt x="1003" y="1364" on="1"/>
        <pt x="1097" y="1284" on="0"/>
        <pt x="1097" y="1163" on="1"/>
        <pt x="1097" y="989" on="0"/>
        <pt x="918" y="888" on="1"/>
        <pt x="866" y="858" on="0"/>
        <pt x="811" y="831" on="1"/>
      </contour>
      <contour>
        <pt x="1519" y="129" on="0"/>
        <pt x="1384" y="-12" on="0"/>
        <pt x="1125" y="-12" on="0"/>
        <pt x="1012" y="99" on="1"/>
        <pt x="908" y="4" on="0"/>
        <pt x="770" y="-22" on="1"/>
        <pt x="770" y="97" on="1"/>
        <pt x="861" y="107" on="0"/>
        <pt x="927" y="170" on="1"/>
        <pt x="900" y="200" on="0"/>
        <pt x="818" y="282" on="0"/>
        <pt x="722" y="382" on="0"/>
        <pt x="617" y="497" on="0"/>
        <pt x="516" y="622" on="0"/>
        <pt x="425" y="755" on="0"/>
        <pt x="391" y="822" on="1"/>
        <pt x="316" y="971" on="0"/>
        <pt x="316" y="1171" on="0"/>
        <pt x="370" y="1301" on="0"/>
        <pt x="420" y="1348" on="1"/>
        <pt x="523" y="1442" on="0"/>
        <pt x="701" y="1452" on="1"/>
        <pt x="701" y="1324" on="1"/>
        <pt x="638" y="1314" on="0"/>
        <pt x="576" y="1240" on="0"/>
        <pt x="576" y="1182" on="1"/>
        <pt x="576" y="1068" on="0"/>
        <pt x="692" y="898" on="1"/>
        <pt x="896" y="598" on="0"/>
        <pt x="1118" y="387" on="1"/>
        <pt x="1156" y="488" on="0"/>
        <pt x="1156" y="623" on="0"/>
        <pt x="1120" y="668" on="0"/>
        <pt x="1069" y="688" on="0"/>
        <pt x="1013" y="697" on="0"/>
        <pt x="994" y="709" on="1"/>
        <pt x="994" y="782" on="1"/>
        <pt x="1481" y="782" on="1"/>
        <pt x="1481" y="711" on="1"/>
        <pt x="1458" y="701" on="0"/>
        <pt x="1412" y="689" on="0"/>
        <pt x="1392" y="678" on="1"/>
        <pt x="1346" y="654" on="0"/>
        <pt x="1324" y="594" on="1"/>
        <pt x="1254" y="400" on="0"/>
        <pt x="1193" y="299" on="1"/>
        <pt x="1287" y="198" on="0"/>
        <pt x="1346" y="174" on="0"/>
        <pt x="1387" y="174" on="0"/>
        <pt x="1420" y="187" on="0"/>
        <pt x="1433" y="203" on="1"/>
        <pt x="1456" y="231" on="0"/>
        <pt x="1476" y="307" on="1"/>
        <pt x="1551" y="274" on="1"/>
      </contour>
    </TTGlyph>
    <TTGlyph name="approxequal" xMin="69" yMin="436" xMax="1051" yMax="739">
      <contour>
        <pt x="1051" y="645" on="1"/>
        <pt x="975" y="500" on="0"/>
        <pt x="848" y="452" on="1"/>
        <pt x="806" y="436" on="0"/>
        <pt x="731" y="436" on="0"/>
        <pt x="677" y="445" on="0"/>
        <pt x="650" y="454" on="1"/>
        <pt x="606" y="469" on="0"/>
        <pt x="537" y="508" on="1"/>
        <pt x="491" y="538" on="0"/>
        <pt x="413" y="575" on="0"/>
        <pt x="333" y="575" on="0"/>
        <pt x="281" y="550" on="0"/>
        <pt x="260" y="530" on="1"/>
        <pt x="233" y="506" on="0"/>
        <pt x="185" y="436" on="1"/>
        <pt x="69" y="522" on="1"/>
        <pt x="69" y="524" on="0"/>
        <pt x="71" y="526" on="1"/>
        <pt x="69" y="528" on="1"/>
        <pt x="140" y="670" on="0"/>
        <pt x="284" y="719" on="1"/>
        <pt x="330" y="735" on="0"/>
        <pt x="418" y="735" on="0"/>
        <pt x="481" y="722" on="0"/>
        <pt x="508" y="712" on="1"/>
        <pt x="562" y="691" on="0"/>
        <pt x="663" y="629" on="0"/>
        <pt x="682" y="620" on="1"/>
        <pt x="726" y="600" on="0"/>
        <pt x="790" y="600" on="0"/>
        <pt x="838" y="621" on="0"/>
        <pt x="859" y="640" on="1"/>
        <pt x="892" y="669" on="0"/>
        <pt x="939" y="739" on="1"/>
        <pt x="1051" y="651" on="1"/>
        <pt x="1050" y="649" on="0"/>
        <pt x="1050" y="648" on="1"/>
        <pt x="1050" y="647" on="0"/>
        <pt x="1049" y="647" on="1"/>
      </contour>
    </TTGlyph>
    <TTGlyph name="aring" xMin="67" yMin="-15" xMax="1141" yMax="1548">
      <component glyphName="a" x="0" y="0" flags="0x1204"/>
      <component glyphName="ring" x="256" y="0" flags="0x1004"/>
    </TTGlyph>
    <TTGlyph name="asciicircum" xMin="209" yMin="713" xMax="1173" yMax="1421">
      <contour>
        <pt x="209" y="713" on="1"/>
        <pt x="587" y="1421" on="1"/>
        <pt x="794" y="1421" on="1"/>
        <pt x="1173" y="713" on="1"/>
        <pt x="929" y="713" on="1"/>
        <pt x="691" y="1184" on="1"/>
        <pt x="451" y="713" on="1"/>
      </contour>
    </TTGlyph>
    <TTGlyph name="asciitilde" xMin="163" yMin="305" xMax="1219" yMax="674">
      <contour>
        <pt x="443" y="449" on="1"/>
        <pt x="325" y="449" on="0"/>
        <pt x="253" y="305" on="1"/>
        <pt x="163" y="496" on="1"/>
        <pt x="218" y="573" on="0"/>
        <pt x="263" y="605" on="1"/>
        <pt x="351" y="666" on="0"/>
        <pt x="451" y="666" on="1"/>
        <pt x="545" y="666" on="0"/>
        <pt x="866" y="530" on="0"/>
        <pt x="963" y="530" on="0"/>
        <pt x="1019" y="555" on="0"/>
        <pt x="1043" y="576" on="1"/>
        <pt x="1075" y="603" on="0"/>
        <pt x="1127" y="674" on="1"/>
        <pt x="1219" y="485" on="1"/>
        <pt x="1141" y="399" on="0"/>
        <pt x="1102" y="371" on="1"/>
        <pt x="1020" y="313" on="0"/>
        <pt x="929" y="313" on="1"/>
        <pt x="855" y="313" on="0"/>
        <pt x="732" y="363" on="0"/>
        <pt x="659" y="399" on="0"/>
        <pt x="620" y="414" on="1"/>
        <pt x="527" y="449" on="0"/>
      </contour>
    </TTGlyph>
    <TTGlyph name="asterisk" xMin="40" yMin="569" xMax="923" yMax="1520">
      <contour>
        <pt x="923" y="1212" on="1"/>
        <pt x="599" y="1044" on="1"/>
        <pt x="923" y="874" on="1"/>
        <pt x="835" y="719" on="1"/>
        <pt x="540" y="958" on="1"/>
        <pt x="564" y="569" on="1"/>
        <pt x="400" y="569" on="1"/>
        <pt x="424" y="958" on="1"/>
        <pt x="129" y="719" on="1"/>
        <pt x="40" y="874" on="1"/>
        <pt x="365" y="1044" on="1"/>
        <pt x="40" y="1212" on="1"/>
        <pt x="129" y="1370" on="1"/>
        <pt x="424" y="1128" on="1"/>
        <pt x="400" y="1520" on="1"/>
        <pt x="564" y="1520" on="1"/>
        <pt x="540" y="1128" on="1"/>
        <pt x="835" y="1370" on="1"/>
      </contour>
    </TTGlyph>
    <TTGlyph name="at" xMin="88" yMin="-31" xMax="1757" yMax="1451">
      <contour>
        <pt x="1016" y="129" on="1"/>
        <pt x="1257" y="132" on="0"/>
        <pt x="1467" y="229" on="1"/>
        <pt x="1489" y="102" on="1"/>
        <pt x="1241" y="-24" on="0"/>
        <pt x="1016" y="-31" on="1"/>
      </contour>
      <contour>
        <pt x="927" y="-29" on="1"/>
        <pt x="523" y="-9" on="0"/>
        <pt x="290" y="230" on="1"/>
        <pt x="88" y="438" on="0"/>
        <pt x="88" y="678" on="1"/>
        <pt x="88" y="896" on="0"/>
        <pt x="204" y="1074" on="1"/>
        <pt x="314" y="1243" on="0"/>
        <pt x="506" y="1344" on="1"/>
        <pt x="697" y="1443" on="0"/>
        <pt x="927" y="1451" on="1"/>
        <pt x="927" y="1291" on="1"/>
        <pt x="692" y="1278" on="0"/>
        <pt x="542" y="1129" on="1"/>
        <pt x="374" y="962" on="0"/>
        <pt x="374" y="672" on="1"/>
        <pt x="374" y="454" on="0"/>
        <pt x="544" y="298" on="1"/>
        <pt x="704" y="153" on="0"/>
        <pt x="927" y="132" on="1"/>
      </contour>
      <contour>
        <pt x="1280" y="508" on="1"/>
        <pt x="1280" y="412" on="0"/>
        <pt x="1349" y="412" on="1"/>
        <pt x="1387" y="412" on="0"/>
        <pt x="1468" y="482" on="0"/>
        <pt x="1501" y="539" on="1"/>
        <pt x="1577" y="670" on="0"/>
        <pt x="1577" y="815" on="1"/>
        <pt x="1577" y="992" on="0"/>
        <pt x="1426" y="1129" on="1"/>
        <pt x="1265" y="1275" on="0"/>
        <pt x="1017" y="1290" on="1"/>
        <pt x="1016" y="1451" on="1"/>
        <pt x="1333" y="1437" on="0"/>
        <pt x="1544" y="1258" on="1"/>
        <pt x="1644" y="1173" on="0"/>
        <pt x="1757" y="947" on="0"/>
        <pt x="1757" y="817" on="1"/>
        <pt x="1757" y="637" on="0"/>
        <pt x="1640" y="482" on="1"/>
        <pt x="1560" y="375" on="0"/>
        <pt x="1441" y="332" on="1"/>
        <pt x="1380" y="309" on="0"/>
        <pt x="1249" y="309" on="0"/>
        <pt x="1166" y="347" on="0"/>
        <pt x="1140" y="372" on="1"/>
        <pt x="1093" y="420" on="0"/>
        <pt x="1093" y="463" on="1"/>
        <pt x="1089" y="463" on="1"/>
        <pt x="1072" y="423" on="0"/>
        <pt x="1017" y="385" on="1"/>
        <pt x="907" y="309" on="0"/>
        <pt x="812" y="309" on="1"/>
        <pt x="660" y="309" on="0"/>
        <pt x="600" y="454" on="1"/>
        <pt x="579" y="505" on="0"/>
        <pt x="579" y="628" on="0"/>
        <pt x="606" y="745" on="0"/>
        <pt x="659" y="862" on="0"/>
        <pt x="737" y="970" on="0"/>
        <pt x="788" y="1011" on="1"/>
        <pt x="903" y="1102" on="0"/>
        <pt x="1043" y="1102" on="1"/>
        <pt x="1102" y="1102" on="0"/>
        <pt x="1155" y="1070" on="1"/>
        <pt x="1117" y="959" on="1"/>
        <pt x="1095" y="973" on="0"/>
        <pt x="1022" y="973" on="0"/>
        <pt x="930" y="913" on="0"/>
        <pt x="891" y="862" on="1"/>
        <pt x="801" y="743" on="0"/>
        <pt x="801" y="592" on="1"/>
        <pt x="801" y="523" on="0"/>
        <pt x="849" y="438" on="0"/>
        <pt x="943" y="438" on="0"/>
        <pt x="1023" y="502" on="0"/>
        <pt x="1054" y="552" on="1"/>
        <pt x="1110" y="639" on="0"/>
        <pt x="1154" y="785" on="1"/>
        <pt x="1241" y="1069" on="1"/>
        <pt x="1423" y="1069" on="1"/>
        <pt x="1289" y="573" on="1"/>
        <pt x="1280" y="547" on="0"/>
      </contour>
    </TTGlyph>
    <TTGlyph name="atilde" xMin="67" yMin="-15" xMax="1141" yMax="1411">
      <component glyphName="a" x="0" y="0" flags="0x1204"/>
      <component glyphName="tilde" x="257" y="0" flags="0x1004"/>
    </TTGlyph>
    <TTGlyph name="b" xMin="7" yMin="-15" xMax="1063" yMax="1455">
      <contour>
        <pt x="123" y="0" on="1"/>
        <pt x="134" y="158" on="0"/>
        <pt x="134" y="192" on="1"/>
        <pt x="134" y="1279" on="1"/>
        <pt x="134" y="1334" on="0"/>
        <pt x="87" y="1354" on="1"/>
        <pt x="67" y="1362" on="0"/>
        <pt x="23" y="1374" on="0"/>
        <pt x="7" y="1386" on="1"/>
        <pt x="7" y="1455" on="1"/>
        <pt x="431" y="1455" on="1"/>
        <pt x="431" y="-1" on="1"/>
        <pt x="358" y="25" on="0"/>
        <pt x="288" y="76" on="1"/>
        <pt x="264" y="59" on="0"/>
        <pt x="205" y="0" on="1"/>
      </contour>
      <contour>
        <pt x="570" y="105" on="1"/>
        <pt x="731" y="105" on="0"/>
        <pt x="731" y="905" on="0"/>
        <pt x="565" y="905" on="1"/>
        <pt x="541" y="905" on="0"/>
        <pt x="520" y="895" on="1"/>
        <pt x="520" y="994" on="1"/>
        <pt x="582" y="1025" on="0"/>
        <pt x="740" y="1025" on="0"/>
        <pt x="886" y="947" on="0"/>
        <pt x="942" y="878" on="1"/>
        <pt x="1063" y="725" on="0"/>
        <pt x="1063" y="508" on="1"/>
        <pt x="1063" y="287" on="0"/>
        <pt x="942" y="142" on="1"/>
        <pt x="811" y="-15" on="0"/>
        <pt x="588" y="-15" on="1"/>
        <pt x="568" y="-15" on="0"/>
        <pt x="520" y="-9" on="1"/>
        <pt x="520" y="113" on="1"/>
        <pt x="544" y="105" on="0"/>
      </contour>
    </TTGlyph>
    <TTGlyph name="backslash" xMin="-111" yMin="-31" xMax="751" yMax="1452">
      <contour>
        <pt x="-111" y="1452" on="1"/>
        <pt x="127" y="1452" on="1"/>
        <pt x="751" y="-31" on="1"/>
        <pt x="512" y="-31" on="1"/>
      </contour>
    </TTGlyph>
    <TTGlyph name="bar" xMin="134" yMin="0" xMax="376" yMax="1436">
      <contour>
        <pt x="134" y="1436" on="1"/>
        <pt x="376" y="1436" on="1"/>
        <pt x="376" y="0" on="1"/>
        <pt x="134" y="0" on="1"/>
      </contour>
    </TTGlyph>
    <TTGlyph name="braceleft" xMin="180" yMin="-401" xMax="779" yMax="1462">
      <contour>
        <pt x="352" y="285" on="1"/>
        <pt x="352" y="394" on="0"/>
        <pt x="300" y="473" on="0"/>
        <pt x="233" y="515" on="0"/>
        <pt x="180" y="530" on="1"/>
        <pt x="283" y="559" on="0"/>
        <pt x="320" y="616" on="1"/>
        <pt x="352" y="668" on="0"/>
        <pt x="352" y="776" on="1"/>
        <pt x="352" y="1159" on="1"/>
        <pt x="352" y="1346" on="0"/>
        <pt x="454" y="1408" on="1"/>
        <pt x="543" y="1462" on="0"/>
        <pt x="779" y="1462" on="1"/>
        <pt x="779" y="1407" on="1"/>
        <pt x="674" y="1394" on="0"/>
        <pt x="638" y="1332" on="1"/>
        <pt x="609" y="1281" on="0"/>
        <pt x="609" y="1153" on="1"/>
        <pt x="609" y="809" on="1"/>
        <pt x="609" y="684" on="0"/>
        <pt x="554" y="593" on="0"/>
        <pt x="482" y="546" on="0"/>
        <pt x="424" y="532" on="1"/>
        <pt x="424" y="528" on="1"/>
        <pt x="534" y="501" on="0"/>
        <pt x="574" y="434" on="1"/>
        <pt x="609" y="374" on="0"/>
        <pt x="609" y="252" on="1"/>
        <pt x="609" y="-94" on="1"/>
        <pt x="609" y="-222" on="0"/>
        <pt x="656" y="-304" on="0"/>
        <pt x="723" y="-340" on="0"/>
        <pt x="779" y="-346" on="1"/>
        <pt x="779" y="-401" on="1"/>
        <pt x="541" y="-401" on="0"/>
        <pt x="454" y="-348" on="1"/>
        <pt x="352" y="-284" on="0"/>
        <pt x="352" y="-100" on="1"/>
      </contour>
    </TTGlyph>
    <TTGlyph name="braceright" xMin="242" yMin="-401" xMax="842" yMax="1462">
      <contour>
        <pt x="669" y="774" on="1"/>
        <pt x="669" y="665" on="0"/>
        <pt x="721" y="586" on="0"/>
        <pt x="788" y="545" on="0"/>
        <pt x="842" y="530" on="1"/>
        <pt x="739" y="499" on="0"/>
        <pt x="702" y="443" on="1"/>
        <pt x="669" y="393" on="0"/>
        <pt x="669" y="285" on="1"/>
        <pt x="669" y="-100" on="1"/>
        <pt x="669" y="-284" on="0"/>
        <pt x="567" y="-348" on="1"/>
        <pt x="481" y="-401" on="0"/>
        <pt x="242" y="-401" on="1"/>
        <pt x="242" y="-346" on="1"/>
        <pt x="349" y="-335" on="0"/>
        <pt x="384" y="-272" on="1"/>
        <pt x="413" y="-222" on="0"/>
        <pt x="413" y="-94" on="1"/>
        <pt x="413" y="252" on="1"/>
        <pt x="413" y="375" on="0"/>
        <pt x="468" y="466" on="0"/>
        <pt x="540" y="513" on="0"/>
        <pt x="599" y="528" on="1"/>
        <pt x="599" y="532" on="1"/>
        <pt x="441" y="569" on="0"/>
        <pt x="420" y="705" on="1"/>
        <pt x="413" y="750" on="0"/>
        <pt x="413" y="807" on="1"/>
        <pt x="413" y="1153" on="1"/>
        <pt x="413" y="1281" on="0"/>
        <pt x="366" y="1363" on="0"/>
        <pt x="298" y="1400" on="0"/>
        <pt x="242" y="1407" on="1"/>
        <pt x="242" y="1462" on="1"/>
        <pt x="480" y="1462" on="0"/>
        <pt x="567" y="1408" on="1"/>
        <pt x="669" y="1344" on="0"/>
        <pt x="669" y="1159" on="1"/>
      </contour>
    </TTGlyph>
    <TTGlyph name="bracketleft" xMin="306" yMin="-375" xMax="765" yMax="1438">
      <contour>
        <pt x="563" y="-186" on="1"/>
        <pt x="563" y="-245" on="0"/>
        <pt x="630" y="-268" on="1"/>
        <pt x="659" y="-279" on="0"/>
        <pt x="730" y="-291" on="0"/>
        <pt x="765" y="-301" on="1"/>
        <pt x="765" y="-375" on="1"/>
        <pt x="306" y="-375" on="1"/>
        <pt x="306" y="1438" on="1"/>
        <pt x="765" y="1438" on="1"/>
        <pt x="765" y="1364" on="1"/>
        <pt x="730" y="1354" on="0"/>
        <pt x="659" y="1341" on="0"/>
        <pt x="630" y="1330" on="1"/>
        <pt x="563" y="1305" on="0"/>
        <pt x="563" y="1247" on="1"/>
      </contour>
    </TTGlyph>
    <TTGlyph name="bracketright" xMin="258" yMin="-375" xMax="717" yMax="1438">
      <contour>
        <pt x="717" y="-375" on="1"/>
        <pt x="258" y="-375" on="1"/>
        <pt x="258" y="-301" on="1"/>
        <pt x="292" y="-291" on="0"/>
        <pt x="365" y="-279" on="0"/>
        <pt x="394" y="-268" on="1"/>
        <pt x="461" y="-244" on="0"/>
        <pt x="461" y="-186" on="1"/>
        <pt x="461" y="1247" on="1"/>
        <pt x="461" y="1324" on="0"/>
        <pt x="328" y="1348" on="1"/>
        <pt x="292" y="1354" on="0"/>
        <pt x="258" y="1364" on="1"/>
        <pt x="258" y="1438" on="1"/>
        <pt x="717" y="1438" on="1"/>
      </contour>
    </TTGlyph>
    <TTGlyph name="breve" xMin="5" yMin="1120" xMax="636" yMax="1440">
      <contour>
        <pt x="308" y="1262" on="1"/>
        <pt x="516" y="1262" on="0"/>
        <pt x="548" y="1440" on="1"/>
        <pt x="636" y="1440" on="1"/>
        <pt x="619" y="1199" on="0"/>
        <pt x="426" y="1136" on="1"/>
        <pt x="378" y="1120" on="0"/>
        <pt x="237" y="1120" on="0"/>
        <pt x="123" y="1171" on="0"/>
        <pt x="84" y="1214" on="1"/>
        <pt x="9" y="1300" on="0"/>
        <pt x="5" y="1440" on="1"/>
        <pt x="93" y="1440" on="1"/>
        <pt x="135" y="1262" on="0"/>
      </contour>
    </TTGlyph>
    <TTGlyph name="brokenbar" xMin="134" yMin="0" xMax="376" yMax="1436">
      <contour>
        <pt x="134" y="535" on="1"/>
        <pt x="376" y="535" on="1"/>
        <pt x="376" y="0" on="1"/>
        <pt x="134" y="0" on="1"/>
      </contour>
      <contour>
        <pt x="134" y="1436" on="1"/>
        <pt x="376" y="1436" on="1"/>
        <pt x="376" y="899" on="1"/>
        <pt x="134" y="899" on="1"/>
      </contour>
    </TTGlyph>
    <TTGlyph name="bullet" xMin="175" yMin="354" xMax="975" yMax="1065">
      <contour>
        <pt x="175" y="710" on="1"/>
        <pt x="175" y="784" on="0"/>
        <pt x="238" y="913" on="0"/>
        <pt x="292" y="961" on="1"/>
        <pt x="411" y="1065" on="0"/>
        <pt x="576" y="1065" on="1"/>
        <pt x="742" y="1065" on="0"/>
        <pt x="859" y="961" on="1"/>
        <pt x="975" y="858" on="0"/>
        <pt x="975" y="711" on="1"/>
        <pt x="975" y="563" on="0"/>
        <pt x="859" y="458" on="1"/>
        <pt x="743" y="354" on="0"/>
        <pt x="576" y="354" on="1"/>
        <pt x="410" y="354" on="0"/>
        <pt x="175" y="563" on="0"/>
      </contour>
    </TTGlyph>
    <TTGlyph name="c" xMin="62" yMin="-15" xMax="986" yMax="1025">
      <contour>
        <pt x="748" y="868" on="1"/>
        <pt x="725" y="903" on="0"/>
        <pt x="658" y="905" on="1"/>
        <pt x="658" y="1025" on="1"/>
        <pt x="798" y="1013" on="0"/>
        <pt x="886" y="936" on="1"/>
        <pt x="970" y="862" on="0"/>
        <pt x="970" y="760" on="1"/>
        <pt x="970" y="696" on="0"/>
        <pt x="941" y="662" on="1"/>
        <pt x="888" y="600" on="0"/>
        <pt x="810" y="600" on="1"/>
        <pt x="739" y="600" on="0"/>
        <pt x="694" y="642" on="1"/>
        <pt x="654" y="678" on="0"/>
        <pt x="654" y="729" on="1"/>
        <pt x="654" y="818" on="0"/>
      </contour>
      <contour>
        <pt x="658" y="105" on="1"/>
        <pt x="802" y="108" on="0"/>
        <pt x="862" y="236" on="1"/>
        <pt x="881" y="276" on="0"/>
        <pt x="893" y="323" on="1"/>
        <pt x="986" y="281" on="1"/>
        <pt x="924" y="15" on="0"/>
        <pt x="658" y="-15" on="1"/>
      </contour>
      <contour>
        <pt x="569" y="-15" on="1"/>
        <pt x="345" y="-13" on="0"/>
        <pt x="200" y="135" on="1"/>
        <pt x="62" y="277" on="0"/>
        <pt x="62" y="491" on="1"/>
        <pt x="62" y="719" on="0"/>
        <pt x="196" y="866" on="1"/>
        <pt x="335" y="1017" on="0"/>
        <pt x="569" y="1025" on="1"/>
        <pt x="569" y="905" on="1"/>
        <pt x="481" y="881" on="0"/>
        <pt x="387" y="677" on="0"/>
        <pt x="387" y="510" on="1"/>
        <pt x="387" y="262" on="0"/>
        <pt x="486" y="156" on="1"/>
        <pt x="521" y="120" on="0"/>
        <pt x="569" y="105" on="1"/>
      </contour>
    </TTGlyph>
    <TTGlyph name="caron" xMin="-41" yMin="1120" xMax="680" yMax="1477">
      <contour>
        <pt x="79" y="1477" on="1"/>
        <pt x="321" y="1264" on="1"/>
        <pt x="563" y="1477" on="1"/>
        <pt x="680" y="1477" on="1"/>
        <pt x="418" y="1120" on="1"/>
        <pt x="222" y="1120" on="1"/>
        <pt x="-41" y="1477" on="1"/>
      </contour>
    </TTGlyph>
    <TTGlyph name="ccedilla" xMin="62" yMin="-449" xMax="986" yMax="1025">
      <component glyphName="c" x="0" y="0" flags="0x1204"/>
      <component glyphName="cedilla" x="209" y="0" flags="0x1004"/>
    </TTGlyph>
    <TTGlyph name="cedilla" xMin="35" yMin="-449" xMax="550" yMax="-2">
      <contour>
        <pt x="348" y="-245" on="0"/>
        <pt x="290" y="-203" on="0"/>
        <pt x="219" y="-203" on="0"/>
        <pt x="171" y="-217" on="1"/>
        <pt x="145" y="-201" on="1"/>
        <pt x="244" y="-2" on="1"/>
        <pt x="339" y="-2" on="1"/>
        <pt x="270" y="-135" on="1"/>
        <pt x="303" y="-125" on="0"/>
        <pt x="386" y="-125" on="0"/>
        <pt x="462" y="-142" on="0"/>
        <pt x="490" y="-160" on="1"/>
        <pt x="550" y="-197" on="0"/>
        <pt x="550" y="-268" on="1"/>
        <pt x="550" y="-352" on="0"/>
        <pt x="465" y="-402" on="1"/>
        <pt x="384" y="-449" on="0"/>
        <pt x="251" y="-449" on="1"/>
        <pt x="145" y="-449" on="0"/>
        <pt x="35" y="-414" on="1"/>
        <pt x="71" y="-340" on="1"/>
        <pt x="143" y="-371" on="0"/>
        <pt x="207" y="-371" on="1"/>
        <pt x="348" y="-371" on="0"/>
        <pt x="348" y="-283" on="1"/>
      </contour>
    </TTGlyph>
    <TTGlyph name="cent" xMin="161" yMin="-16" xMax="926" yMax="1401">
      <contour>
        <pt x="634" y="348" on="1"/>
        <pt x="812" y="348" on="0"/>
        <pt x="860" y="584" on="1"/>
        <pt x="926" y="569" on="1"/>
        <pt x="898" y="363" on="0"/>
        <pt x="756" y="294" on="1"/>
        <pt x="702" y="267" on="0"/>
        <pt x="623" y="262" on="1"/>
        <pt x="623" y="-16" on="1"/>
        <pt x="548" y="-16" on="1"/>
        <pt x="548" y="262" on="1"/>
        <pt x="366" y="273" on="0"/>
        <pt x="258" y="416" on="1"/>
        <pt x="161" y="543" on="0"/>
        <pt x="161" y="717" on="1"/>
        <pt x="161" y="900" on="0"/>
        <pt x="272" y="1030" on="1"/>
        <pt x="381" y="1156" on="0"/>
        <pt x="548" y="1178" on="1"/>
        <pt x="548" y="1401" on="1"/>
        <pt x="623" y="1401" on="1"/>
        <pt x="623" y="1184" on="1"/>
        <pt x="769" y="1180" on="0"/>
        <pt x="850" y="1108" on="1"/>
        <pt x="926" y="1042" on="0"/>
        <pt x="926" y="936" on="1"/>
        <pt x="926" y="867" on="0"/>
        <pt x="850" y="799" on="0"/>
        <pt x="752" y="799" on="0"/>
        <pt x="704" y="821" on="0"/>
        <pt x="689" y="840" on="1"/>
        <pt x="660" y="875" on="0"/>
        <pt x="660" y="956" on="0"/>
        <pt x="674" y="1002" on="0"/>
        <pt x="689" y="1020" on="1"/>
        <pt x="721" y="1057" on="0"/>
        <pt x="788" y="1057" on="1"/>
        <pt x="757" y="1114" on="0"/>
        <pt x="662" y="1114" on="1"/>
        <pt x="636" y="1114" on="0"/>
        <pt x="623" y="1110" on="1"/>
        <pt x="623" y="350" on="1"/>
        <pt x="627" y="348" on="0"/>
      </contour>
      <contour>
        <pt x="548" y="1081" on="1"/>
        <pt x="429" y="1005" on="0"/>
        <pt x="429" y="711" on="1"/>
        <pt x="429" y="573" on="0"/>
        <pt x="482" y="402" on="0"/>
        <pt x="548" y="371" on="1"/>
      </contour>
    </TTGlyph>
    <TTGlyph name="circumflex" xMin="-41" yMin="1120" xMax="680" yMax="1477">
      <contour>
        <pt x="563" y="1120" on="1"/>
        <pt x="321" y="1333" on="1"/>
        <pt x="79" y="1120" on="1"/>
        <pt x="-41" y="1120" on="1"/>
        <pt x="222" y="1477" on="1"/>
        <pt x="418" y="1477" on="1"/>
        <pt x="680" y="1120" on="1"/>
      </contour>
    </TTGlyph>
    <TTGlyph name="colon" xMin="119" yMin="-18" xMax="457" yMax="958">
      <contour>
        <pt x="119" y="158" on="1"/>
        <pt x="119" y="232" on="0"/>
        <pt x="166" y="283" on="1"/>
        <pt x="214" y="334" on="0"/>
        <pt x="288" y="334" on="1"/>
        <pt x="362" y="334" on="0"/>
        <pt x="410" y="283" on="1"/>
        <pt x="457" y="232" on="0"/>
        <pt x="457" y="158" on="1"/>
        <pt x="457" y="84" on="0"/>
        <pt x="410" y="33" on="1"/>
        <pt x="362" y="-18" on="0"/>
        <pt x="288" y="-18" on="1"/>
        <pt x="214" y="-18" on="0"/>
        <pt x="166" y="33" on="1"/>
        <pt x="119" y="84" on="0"/>
      </contour>
      <contour>
        <pt x="119" y="782" on="1"/>
        <pt x="119" y="856" on="0"/>
        <pt x="166" y="907" on="1"/>
        <pt x="214" y="958" on="0"/>
        <pt x="288" y="958" on="1"/>
        <pt x="362" y="958" on="0"/>
        <pt x="410" y="907" on="1"/>
        <pt x="457" y="856" on="0"/>
        <pt x="457" y="782" on="1"/>
        <pt x="457" y="708" on="0"/>
        <pt x="410" y="657" on="1"/>
        <pt x="362" y="606" on="0"/>
        <pt x="288" y="606" on="1"/>
        <pt x="214" y="606" on="0"/>
        <pt x="166" y="657" on="1"/>
        <pt x="119" y="708" on="0"/>
      </contour>
    </TTGlyph>
    <TTGlyph name="comma" xMin="111" yMin="-381" xMax="475" yMax="336">
      <contour>
        <pt x="129" y="-319" on="1"/>
        <pt x="156" y="-286" on="0"/>
        <pt x="219" y="-215" on="0"/>
        <pt x="246" y="-178" on="1"/>
        <pt x="311" y="-92" on="0"/>
        <pt x="321" y="-20" on="1"/>
        <pt x="215" y="-14" on="0"/>
        <pt x="111" y="81" on="0"/>
        <pt x="111" y="160" on="1"/>
        <pt x="111" y="231" on="0"/>
        <pt x="158" y="282" on="1"/>
        <pt x="208" y="336" on="0"/>
        <pt x="332" y="336" on="0"/>
        <pt x="403" y="298" on="0"/>
        <pt x="427" y="266" on="1"/>
        <pt x="475" y="200" on="0"/>
        <pt x="475" y="46" on="0"/>
        <pt x="437" y="-72" on="0"/>
        <pt x="402" y="-133" on="1"/>
        <pt x="329" y="-260" on="0"/>
        <pt x="210" y="-381" on="1"/>
      </contour>
    </TTGlyph>
    <TTGlyph name="commaaccent" xMin="106" yMin="-823" xMax="470" yMax="-106">
      <contour>
        <pt x="124" y="-761" on="1"/>
        <pt x="151" y="-728" on="0"/>
        <pt x="214" y="-657" on="0"/>
        <pt x="242" y="-620" on="1"/>
        <pt x="306" y="-534" on="0"/>
        <pt x="316" y="-462" on="1"/>
        <pt x="210" y="-456" on="0"/>
        <pt x="106" y="-361" on="0"/>
        <pt x="106" y="-282" on="1"/>
        <pt x="106" y="-211" on="0"/>
        <pt x="154" y="-160" on="1"/>
        <pt x="203" y="-106" on="0"/>
        <pt x="327" y="-106" on="0"/>
        <pt x="398" y="-144" on="0"/>
        <pt x="422" y="-176" on="1"/>
        <pt x="470" y="-242" on="0"/>
        <pt x="470" y="-396" on="0"/>
        <pt x="432" y="-514" on="0"/>
        <pt x="397" y="-575" on="1"/>
        <pt x="324" y="-702" on="0"/>
        <pt x="205" y="-823" on="1"/>
      </contour>
    </TTGlyph>
    <TTGlyph name="copyright" xMin="104" yMin="-31" xMax="1736" yMax="1451">
      <contour>
        <pt x="886" y="-31" on="1"/>
        <pt x="548" y="-22" on="0"/>
        <pt x="324" y="190" on="1"/>
        <pt x="184" y="323" on="0"/>
        <pt x="130" y="514" on="1"/>
        <pt x="104" y="607" on="0"/>
        <pt x="104" y="863" on="0"/>
        <pt x="220" y="1129" on="0"/>
        <pt x="324" y="1228" on="1"/>
        <pt x="546" y="1439" on="0"/>
        <pt x="886" y="1451" on="1"/>
        <pt x="886" y="1322" on="1"/>
        <pt x="630" y="1310" on="0"/>
        <pt x="466" y="1134" on="1"/>
        <pt x="306" y="960" on="0"/>
        <pt x="306" y="709" on="1"/>
        <pt x="306" y="459" on="0"/>
        <pt x="466" y="287" on="1"/>
        <pt x="631" y="111" on="0"/>
        <pt x="886" y="99" on="1"/>
      </contour>
      <contour>
        <pt x="955" y="99" on="1"/>
        <pt x="1209" y="111" on="0"/>
        <pt x="1372" y="288" on="1"/>
        <pt x="1533" y="461" on="0"/>
        <pt x="1533" y="709" on="1"/>
        <pt x="1533" y="959" on="0"/>
        <pt x="1372" y="1132" on="1"/>
        <pt x="1207" y="1308" on="0"/>
        <pt x="955" y="1322" on="1"/>
        <pt x="955" y="1451" on="1"/>
        <pt x="1297" y="1439" on="0"/>
        <pt x="1516" y="1227" on="1"/>
        <pt x="1736" y="1015" on="0"/>
        <pt x="1736" y="709" on="1"/>
        <pt x="1736" y="556" on="0"/>
        <pt x="1620" y="291" on="0"/>
        <pt x="1516" y="192" on="1"/>
        <pt x="1297" y="-18" on="0"/>
        <pt x="955" y="-30" on="1"/>
      </contour>
      <contour>
        <pt x="1219" y="907" on="1"/>
        <pt x="1148" y="1077" on="0"/>
        <pt x="955" y="1087" on="1"/>
        <pt x="955" y="1147" on="1"/>
        <pt x="1056" y="1145" on="0"/>
        <pt x="1135" y="1129" on="1"/>
        <pt x="1278" y="1101" on="0"/>
        <pt x="1278" y="1073" on="1"/>
        <pt x="1278" y="907" on="1"/>
      </contour>
      <contour>
        <pt x="955" y="367" on="1"/>
        <pt x="1150" y="373" on="0"/>
        <pt x="1259" y="561" on="1"/>
        <pt x="1314" y="561" on="1"/>
        <pt x="1278" y="381" on="1"/>
        <pt x="1271" y="352" on="0"/>
        <pt x="1064" y="319" on="1"/>
        <pt x="1007" y="310" on="0"/>
        <pt x="955" y="308" on="1"/>
      </contour>
      <contour>
        <pt x="886" y="1079" on="1"/>
        <pt x="747" y="1032" on="0"/>
        <pt x="747" y="427" on="0"/>
        <pt x="886" y="377" on="1"/>
        <pt x="886" y="308" on="1"/>
        <pt x="568" y="320" on="0"/>
        <pt x="478" y="556" on="1"/>
        <pt x="449" y="634" on="0"/>
        <pt x="449" y="811" on="0"/>
        <pt x="500" y="953" on="0"/>
        <pt x="553" y="1009" on="1"/>
        <pt x="670" y="1133" on="0"/>
        <pt x="886" y="1146" on="1"/>
      </contour>
    </TTGlyph>
    <TTGlyph name="currency" xMin="11" yMin="201" xMax="1141" yMax="1221">
      <contour>
        <pt x="268" y="1106" on="1"/>
        <pt x="397" y="1192" on="0"/>
        <pt x="757" y="1192" on="0"/>
        <pt x="882" y="1106" on="1"/>
        <pt x="1009" y="1221" on="1"/>
        <pt x="1141" y="1104" on="1"/>
        <pt x="1012" y="991" on="1"/>
        <pt x="1118" y="885" on="0"/>
        <pt x="1118" y="711" on="1"/>
        <pt x="1118" y="540" on="0"/>
        <pt x="1012" y="430" on="1"/>
        <pt x="1141" y="315" on="1"/>
        <pt x="1009" y="201" on="1"/>
        <pt x="882" y="313" on="1"/>
        <pt x="754" y="229" on="0"/>
        <pt x="401" y="229" on="0"/>
        <pt x="268" y="313" on="1"/>
        <pt x="141" y="201" on="1"/>
        <pt x="11" y="315" on="1"/>
        <pt x="139" y="430" on="1"/>
        <pt x="35" y="534" on="0"/>
        <pt x="35" y="711" on="1"/>
        <pt x="35" y="891" on="0"/>
        <pt x="139" y="991" on="1"/>
        <pt x="11" y="1104" on="1"/>
        <pt x="141" y="1221" on="1"/>
      </contour>
      <contour>
        <pt x="279" y="710" on="1"/>
        <pt x="279" y="655" on="0"/>
        <pt x="324" y="556" on="0"/>
        <pt x="364" y="519" on="1"/>
        <pt x="449" y="440" on="0"/>
        <pt x="576" y="440" on="1"/>
        <pt x="702" y="440" on="0"/>
        <pt x="787" y="519" on="1"/>
        <pt x="873" y="599" on="0"/>
        <pt x="873" y="711" on="1"/>
        <pt x="873" y="821" on="0"/>
        <pt x="787" y="901" on="1"/>
        <pt x="701" y="981" on="0"/>
        <pt x="576" y="981" on="1"/>
        <pt x="450" y="981" on="0"/>
        <pt x="364" y="901" on="1"/>
        <pt x="279" y="822" on="0"/>
      </contour>
    </TTGlyph>
    <TTGlyph name="d" xMin="57" yMin="-15" xMax="1117" yMax="1455">
      <contour>
        <pt x="699" y="94" on="1"/>
        <pt x="699" y="1281" on="1"/>
        <pt x="699" y="1334" on="0"/>
        <pt x="652" y="1354" on="1"/>
        <pt x="632" y="1362" on="0"/>
        <pt x="586" y="1373" on="0"/>
        <pt x="567" y="1386" on="1"/>
        <pt x="567" y="1455" on="1"/>
        <pt x="996" y="1455" on="1"/>
        <pt x="996" y="168" on="1"/>
        <pt x="996" y="116" on="0"/>
        <pt x="1042" y="97" on="1"/>
        <pt x="1061" y="89" on="0"/>
        <pt x="1102" y="77" on="0"/>
        <pt x="1117" y="64" on="1"/>
        <pt x="1117" y="0" on="1"/>
        <pt x="712" y="0" on="1"/>
      </contour>
      <contour>
        <pt x="610" y="15" on="1"/>
        <pt x="550" y="-15" on="0"/>
        <pt x="380" y="-15" on="0"/>
        <pt x="226" y="64" on="0"/>
        <pt x="172" y="132" on="1"/>
        <pt x="57" y="273" on="0"/>
        <pt x="57" y="484" on="1"/>
        <pt x="57" y="712" on="0"/>
        <pt x="190" y="872" on="1"/>
        <pt x="319" y="1025" on="0"/>
        <pt x="497" y="1025" on="1"/>
        <pt x="566" y="1025" on="0"/>
        <pt x="610" y="1006" on="1"/>
        <pt x="610" y="892" on="1"/>
        <pt x="589" y="905" on="0"/>
        <pt x="506" y="905" on="0"/>
        <pt x="443" y="841" on="0"/>
        <pt x="424" y="788" on="1"/>
        <pt x="389" y="689" on="0"/>
        <pt x="389" y="427" on="0"/>
        <pt x="399" y="277" on="0"/>
        <pt x="416" y="222" on="1"/>
        <pt x="451" y="105" on="0"/>
        <pt x="546" y="105" on="1"/>
        <pt x="590" y="105" on="0"/>
        <pt x="610" y="123" on="1"/>
      </contour>
    </TTGlyph>
    <TTGlyph name="dagger" xMin="51" yMin="-197" xMax="913" yMax="1493">
      <contour>
        <pt x="380" y="1493" on="1"/>
        <pt x="584" y="1493" on="1"/>
        <pt x="547" y="1055" on="1"/>
        <pt x="913" y="1090" on="1"/>
        <pt x="913" y="874" on="1"/>
        <pt x="547" y="909" on="1"/>
        <pt x="547" y="-197" on="1"/>
        <pt x="380" y="-197" on="1"/>
        <pt x="380" y="909" on="1"/>
        <pt x="51" y="874" on="1"/>
        <pt x="51" y="1090" on="1"/>
        <pt x="417" y="1055" on="1"/>
      </contour>
    </TTGlyph>
    <TTGlyph name="daggerdbl" xMin="51" yMin="-197" xMax="913" yMax="1493">
      <contour>
        <pt x="380" y="1493" on="1"/>
        <pt x="584" y="1493" on="1"/>
        <pt x="547" y="1055" on="1"/>
        <pt x="913" y="1090" on="1"/>
        <pt x="913" y="874" on="1"/>
        <pt x="547" y="909" on="1"/>
        <pt x="584" y="647" on="1"/>
        <pt x="547" y="387" on="1"/>
        <pt x="913" y="422" on="1"/>
        <pt x="913" y="207" on="1"/>
        <pt x="547" y="242" on="1"/>
        <pt x="584" y="-197" on="1"/>
        <pt x="380" y="-197" on="1"/>
        <pt x="417" y="242" on="1"/>
        <pt x="51" y="207" on="1"/>
        <pt x="51" y="422" on="1"/>
        <pt x="417" y="387" on="1"/>
        <pt x="380" y="647" on="1"/>
        <pt x="417" y="909" on="1"/>
        <pt x="51" y="874" on="1"/>
        <pt x="51" y="1090" on="1"/>
        <pt x="417" y="1055" on="1"/>
      </contour>
    </TTGlyph>
    <TTGlyph name="degree" xMin="129" yMin="864" xMax="790" yMax="1452">
      <contour>
        <pt x="460" y="1341" on="1"/>
        <pt x="420" y="1341" on="0"/>
        <pt x="350" y="1310" on="0"/>
        <pt x="324" y="1284" on="1"/>
        <pt x="266" y="1229" on="0"/>
        <pt x="266" y="1157" on="1"/>
        <pt x="266" y="1084" on="0"/>
        <pt x="324" y="1030" on="1"/>
        <pt x="382" y="975" on="0"/>
        <pt x="459" y="975" on="1"/>
        <pt x="539" y="975" on="0"/>
        <pt x="598" y="1030" on="1"/>
        <pt x="655" y="1084" on="0"/>
        <pt x="655" y="1157" on="1"/>
        <pt x="655" y="1229" on="0"/>
        <pt x="598" y="1284" on="1"/>
        <pt x="539" y="1341" on="0"/>
      </contour>
      <contour>
        <pt x="461" y="1452" on="1"/>
        <pt x="531" y="1452" on="0"/>
        <pt x="650" y="1406" on="0"/>
        <pt x="694" y="1366" on="1"/>
        <pt x="790" y="1282" on="0"/>
        <pt x="790" y="1157" on="1"/>
        <pt x="790" y="1035" on="0"/>
        <pt x="694" y="949" on="1"/>
        <pt x="600" y="864" on="0"/>
        <pt x="462" y="864" on="1"/>
        <pt x="321" y="864" on="0"/>
        <pt x="225" y="949" on="1"/>
        <pt x="129" y="1034" on="0"/>
        <pt x="129" y="1157" on="1"/>
        <pt x="129" y="1282" on="0"/>
        <pt x="225" y="1366" on="1"/>
        <pt x="322" y="1452" on="0"/>
      </contour>
    </TTGlyph>
    <TTGlyph name="dieresis" xMin="-135" yMin="1141" xMax="774" yMax="1395">
      <contour>
        <pt x="-113" y="1195" on="0"/>
        <pt x="-135" y="1242" on="0"/>
        <pt x="-135" y="1295" on="0"/>
        <pt x="-113" y="1341" on="0"/>
        <pt x="-94" y="1358" on="1"/>
        <pt x="-53" y="1395" on="0"/>
        <pt x="37" y="1395" on="0"/>
        <pt x="89" y="1375" on="0"/>
        <pt x="108" y="1358" on="1"/>
        <pt x="151" y="1321" on="0"/>
        <pt x="151" y="1242" on="0"/>
        <pt x="128" y="1195" on="0"/>
        <pt x="108" y="1178" on="1"/>
        <pt x="66" y="1141" on="0"/>
        <pt x="-22" y="1141" on="0"/>
        <pt x="-75" y="1161" on="0"/>
      </contour>
      <contour>
        <pt x="510" y="1195" on="0"/>
        <pt x="488" y="1242" on="0"/>
        <pt x="488" y="1295" on="0"/>
        <pt x="510" y="1341" on="0"/>
        <pt x="529" y="1358" on="1"/>
        <pt x="570" y="1395" on="0"/>
        <pt x="660" y="1395" on="0"/>
        <pt x="712" y="1375" on="0"/>
        <pt x="732" y="1358" on="1"/>
        <pt x="774" y="1321" on="0"/>
        <pt x="774" y="1242" on="0"/>
        <pt x="751" y="1195" on="0"/>
        <pt x="732" y="1178" on="1"/>
        <pt x="689" y="1141" on="0"/>
        <pt x="601" y="1141" on="0"/>
        <pt x="548" y="1161" on="0"/>
      </contour>
    </TTGlyph>
    <TTGlyph name="divide" xMin="139" yMin="-93" xMax="1243" yMax="1074">
      <contour>
        <pt x="139" y="383" on="1"/>
        <pt x="139" y="598" on="1"/>
        <pt x="1243" y="598" on="1"/>
        <pt x="1243" y="383" on="1"/>
      </contour>
      <contour>
        <pt x="512" y="66" on="1"/>
        <pt x="512" y="98" on="0"/>
        <pt x="541" y="156" on="0"/>
        <pt x="566" y="178" on="1"/>
        <pt x="618" y="225" on="0"/>
        <pt x="691" y="225" on="1"/>
        <pt x="763" y="225" on="0"/>
        <pt x="816" y="177" on="1"/>
        <pt x="869" y="130" on="0"/>
        <pt x="869" y="65" on="1"/>
        <pt x="869" y="2" on="0"/>
        <pt x="816" y="-45" on="1"/>
        <pt x="763" y="-93" on="0"/>
        <pt x="691" y="-93" on="1"/>
        <pt x="618" y="-93" on="0"/>
        <pt x="566" y="-46" on="1"/>
        <pt x="512" y="0" on="0"/>
      </contour>
      <contour>
        <pt x="512" y="916" on="1"/>
        <pt x="512" y="948" on="0"/>
        <pt x="541" y="1006" on="0"/>
        <pt x="566" y="1028" on="1"/>
        <pt x="618" y="1074" on="0"/>
        <pt x="691" y="1074" on="1"/>
        <pt x="764" y="1074" on="0"/>
        <pt x="816" y="1028" on="1"/>
        <pt x="869" y="981" on="0"/>
        <pt x="869" y="916" on="1"/>
        <pt x="869" y="853" on="0"/>
        <pt x="816" y="804" on="1"/>
        <pt x="764" y="756" on="0"/>
        <pt x="691" y="756" on="1"/>
        <pt x="618" y="756" on="0"/>
        <pt x="566" y="803" on="1"/>
        <pt x="512" y="851" on="0"/>
      </contour>
    </TTGlyph>
    <TTGlyph name="dollar" xMin="92" yMin="-164" xMax="1053" yMax="1563">
      <contour>
        <pt x="425" y="1277" on="1"/>
        <pt x="371" y="1230" on="0"/>
        <pt x="371" y="1068" on="0"/>
        <pt x="445" y="979" on="0"/>
        <pt x="514" y="950" on="1"/>
        <pt x="514" y="1563" on="1"/>
        <pt x="633" y="1563" on="1"/>
        <pt x="633" y="907" on="1"/>
        <pt x="715" y="873" on="0"/>
        <pt x="866" y="800" on="0"/>
        <pt x="924" y="750" on="1"/>
        <pt x="1053" y="640" on="0"/>
        <pt x="1053" y="461" on="1"/>
        <pt x="1053" y="314" on="0"/>
        <pt x="964" y="196" on="1"/>
        <pt x="874" y="77" on="0"/>
        <pt x="723" y="31" on="1"/>
        <pt x="722" y="160" on="1"/>
        <pt x="805" y="222" on="0"/>
        <pt x="805" y="340" on="1"/>
        <pt x="805" y="464" on="0"/>
        <pt x="708" y="530" on="1"/>
        <pt x="676" y="551" on="0"/>
        <pt x="633" y="569" on="1"/>
        <pt x="633" y="-164" on="1"/>
        <pt x="514" y="-164" on="1"/>
        <pt x="514" y="608" on="1"/>
        <pt x="344" y="676" on="0"/>
        <pt x="207" y="794" on="0"/>
        <pt x="138" y="926" on="0"/>
        <pt x="138" y="1081" on="0"/>
        <pt x="174" y="1196" on="0"/>
        <pt x="210" y="1244" on="1"/>
        <pt x="286" y="1347" on="0"/>
        <pt x="425" y="1391" on="1"/>
      </contour>
      <contour>
        <pt x="277" y="221" on="1"/>
        <pt x="290" y="139" on="0"/>
        <pt x="425" y="116" on="1"/>
        <pt x="425" y="15" on="1"/>
        <pt x="286" y="42" on="0"/>
        <pt x="190" y="132" on="1"/>
        <pt x="92" y="227" on="0"/>
        <pt x="92" y="342" on="1"/>
        <pt x="92" y="424" on="0"/>
        <pt x="136" y="470" on="1"/>
        <pt x="175" y="511" on="0"/>
        <pt x="233" y="511" on="1"/>
        <pt x="291" y="511" on="0"/>
        <pt x="334" y="470" on="1"/>
        <pt x="379" y="426" on="0"/>
        <pt x="379" y="316" on="0"/>
        <pt x="353" y="273" on="0"/>
        <pt x="319" y="247" on="0"/>
        <pt x="285" y="231" on="0"/>
      </contour>
      <contour>
        <pt x="779" y="1260" on="1"/>
        <pt x="767" y="1295" on="0"/>
        <pt x="722" y="1313" on="1"/>
        <pt x="722" y="1406" on="1"/>
        <pt x="906" y="1371" on="0"/>
        <pt x="969" y="1239" on="1"/>
        <pt x="989" y="1197" on="0"/>
        <pt x="989" y="1120" on="0"/>
        <pt x="971" y="1068" on="0"/>
        <pt x="953" y="1048" on="1"/>
        <pt x="914" y="1006" on="0"/>
        <pt x="842" y="1006" on="1"/>
        <pt x="738" y="1006" on="0"/>
        <pt x="711" y="1082" on="1"/>
        <pt x="703" y="1104" on="0"/>
        <pt x="703" y="1128" on="1"/>
        <pt x="703" y="1190" on="0"/>
      </contour>
    </TTGlyph>
    <TTGlyph name="dotaccent" xMin="188" yMin="1141" xMax="454" yMax="1395">
      <contour>
        <pt x="208" y="1195" on="0"/>
        <pt x="188" y="1242" on="0"/>
        <pt x="188" y="1295" on="0"/>
        <pt x="208" y="1341" on="0"/>
        <pt x="226" y="1358" on="1"/>
        <pt x="265" y="1395" on="0"/>
        <pt x="348" y="1395" on="0"/>
        <pt x="396" y="1375" on="0"/>
        <pt x="414" y="1358" on="1"/>
        <pt x="454" y="1322" on="0"/>
        <pt x="454" y="1242" on="0"/>
        <pt x="433" y="1195" on="0"/>
        <pt x="414" y="1178" on="1"/>
        <pt x="374" y="1141" on="0"/>
        <pt x="293" y="1141" on="0"/>
        <pt x="244" y="1161" on="0"/>
      </contour>
    </TTGlyph>
    <TTGlyph name="dotaccentcmb" xMin="178" yMin="1141" xMax="464" yMax="1395">
      <contour>
        <pt x="200" y="1195" on="0"/>
        <pt x="178" y="1242" on="0"/>
        <pt x="178" y="1295" on="0"/>
        <pt x="200" y="1341" on="0"/>
        <pt x="219" y="1358" on="1"/>
        <pt x="260" y="1395" on="0"/>
        <pt x="350" y="1395" on="0"/>
        <pt x="402" y="1375" on="0"/>
        <pt x="422" y="1358" on="1"/>
        <pt x="464" y="1321" on="0"/>
        <pt x="464" y="1242" on="0"/>
        <pt x="441" y="1195" on="0"/>
        <pt x="422" y="1178" on="1"/>
        <pt x="379" y="1141" on="0"/>
        <pt x="291" y="1141" on="0"/>
        <pt x="238" y="1161" on="0"/>
      </contour>
    </TTGlyph>
    <TTGlyph name="dotlessi" xMin="39" yMin="0" xMax="602" yMax="981">
      <contour>
        <pt x="468" y="164" on="1"/>
        <pt x="468" y="114" on="0"/>
        <pt x="516" y="95" on="1"/>
        <pt x="536" y="87" on="0"/>
        <pt x="582" y="76" on="0"/>
        <pt x="602" y="63" on="1"/>
        <pt x="602" y="0" on="1"/>
        <pt x="39" y="0" on="1"/>
        <pt x="39" y="63" on="1"/>
        <pt x="58" y="76" on="0"/>
        <pt x="104" y="87" on="0"/>
        <pt x="124" y="95" on="1"/>
        <pt x="171" y="114" on="0"/>
        <pt x="171" y="164" on="1"/>
        <pt x="171" y="811" on="1"/>
        <pt x="171" y="862" on="0"/>
        <pt x="124" y="881" on="1"/>
        <pt x="104" y="889" on="0"/>
        <pt x="58" y="900" on="0"/>
        <pt x="39" y="913" on="1"/>
        <pt x="39" y="981" on="1"/>
        <pt x="468" y="981" on="1"/>
      </contour>
    </TTGlyph>
    <TTGlyph name="dotlessj" xMin="-193" yMin="-420" xMax="502" yMax="1005">
      <contour>
        <pt x="36" y="-254" on="1"/>
        <pt x="53" y="-304" on="0"/>
        <pt x="97" y="-314" on="1"/>
        <pt x="97" y="-420" on="1"/>
        <pt x="89" y="-420" on="1"/>
        <pt x="-34" y="-420" on="0"/>
        <pt x="-193" y="-299" on="0"/>
        <pt x="-193" y="-208" on="1"/>
        <pt x="-193" y="-146" on="0"/>
        <pt x="-164" y="-115" on="1"/>
        <pt x="-115" y="-60" on="0"/>
        <pt x="-45" y="-60" on="1"/>
        <pt x="49" y="-60" on="0"/>
        <pt x="74" y="-133" on="1"/>
        <pt x="81" y="-155" on="0"/>
        <pt x="81" y="-179" on="1"/>
        <pt x="81" y="-239" on="0"/>
      </contour>
      <contour>
        <pt x="186" y="-299" on="1"/>
        <pt x="224" y="-272" on="0"/>
        <pt x="224" y="-212" on="1"/>
        <pt x="224" y="-180" on="0"/>
        <pt x="218" y="-130" on="1"/>
        <pt x="205" y="-34" on="0"/>
        <pt x="205" y="10" on="1"/>
        <pt x="205" y="831" on="1"/>
        <pt x="205" y="883" on="0"/>
        <pt x="158" y="900" on="1"/>
        <pt x="138" y="908" on="0"/>
        <pt x="93" y="917" on="0"/>
        <pt x="74" y="931" on="1"/>
        <pt x="74" y="1005" on="1"/>
        <pt x="502" y="1005" on="1"/>
        <pt x="502" y="54" on="1"/>
        <pt x="502" y="-364" on="0"/>
        <pt x="186" y="-413" on="1"/>
      </contour>
    </TTGlyph>
    <TTGlyph name="e" xMin="62" yMin="-15" xMax="996" yMax="1025">
      <contour>
        <pt x="625" y="105" on="1"/>
        <pt x="826" y="115" on="0"/>
        <pt x="895" y="327" on="1"/>
        <pt x="987" y="285" on="1"/>
        <pt x="912" y="10" on="0"/>
        <pt x="625" y="-15" on="1"/>
      </contour>
      <contour>
        <pt x="595" y="1025" on="1"/>
        <pt x="801" y="1010" on="0"/>
        <pt x="904" y="861" on="1"/>
        <pt x="996" y="729" on="0"/>
        <pt x="996" y="508" on="1"/>
        <pt x="481" y="508" on="1"/>
        <pt x="481" y="610" on="1"/>
        <pt x="688" y="610" on="1"/>
        <pt x="688" y="738" on="0"/>
        <pt x="649" y="887" on="0"/>
        <pt x="595" y="905" on="1"/>
      </contour>
      <contour>
        <pt x="536" y="-15" on="1"/>
        <pt x="319" y="2" on="0"/>
        <pt x="186" y="154" on="1"/>
        <pt x="62" y="295" on="0"/>
        <pt x="62" y="501" on="1"/>
        <pt x="62" y="717" on="0"/>
        <pt x="187" y="864" on="1"/>
        <pt x="311" y="1011" on="0"/>
        <pt x="506" y="1025" on="1"/>
        <pt x="506" y="905" on="1"/>
        <pt x="440" y="882" on="0"/>
        <pt x="387" y="680" on="0"/>
        <pt x="387" y="427" on="0"/>
        <pt x="400" y="302" on="0"/>
        <pt x="417" y="252" on="1"/>
        <pt x="452" y="147" on="0"/>
        <pt x="536" y="105" on="1"/>
      </contour>
    </TTGlyph>
    <TTGlyph name="eacute" xMin="62" yMin="-15" xMax="996" yMax="1493">
      <component glyphName="e" x="0" y="0" flags="0x1204"/>
      <component glyphName="acute" x="134" y="0" flags="0x1004"/>
    </TTGlyph>
    <TTGlyph name="ecircumflex" xMin="62" yMin="-15" xMax="996" yMax="1477">
      <component glyphName="e" x="0" y="0" flags="0x1204"/>
      <component glyphName="circumflex" x="225" y="0" flags="0x1004"/>
    </TTGlyph>
    <TTGlyph name="edieresis" xMin="62" yMin="-15" xMax="999" yMax="1395">
      <component glyphName="e" x="0" y="0" flags="0x1204"/>
      <component glyphName="dieresis" x="225" y="0" flags="0x1004"/>
    </TTGlyph>
    <TTGlyph name="egrave" xMin="62" yMin="-15" xMax="996" yMax="1493">
      <component glyphName="e" x="0" y="0" flags="0x1204"/>
      <component glyphName="grave" x="314" y="0" flags="0x1004"/>
    </TTGlyph>
    <TTGlyph name="eight" xMin="81" yMin="-20" xMax="1055" yMax="1452">
      <contour>
        <pt x="717" y="905" on="1"/>
        <pt x="782" y="974" on="0"/>
        <pt x="782" y="1109" on="1"/>
        <pt x="782" y="1261" on="0"/>
        <pt x="686" y="1330" on="1"/>
        <pt x="653" y="1354" on="0"/>
        <pt x="610" y="1360" on="1"/>
        <pt x="610" y="1452" on="1"/>
        <pt x="786" y="1442" on="0"/>
        <pt x="890" y="1352" on="1"/>
        <pt x="1000" y="1258" on="0"/>
        <pt x="1000" y="1102" on="1"/>
        <pt x="1000" y="969" on="0"/>
        <pt x="901" y="890" on="1"/>
        <pt x="870" y="866" on="0"/>
        <pt x="832" y="844" on="1"/>
      </contour>
      <contour>
        <pt x="393" y="560" on="1"/>
        <pt x="316" y="475" on="0"/>
        <pt x="316" y="350" on="1"/>
        <pt x="316" y="190" on="0"/>
        <pt x="426" y="109" on="1"/>
        <pt x="462" y="82" on="0"/>
        <pt x="511" y="72" on="1"/>
        <pt x="511" y="-20" on="1"/>
        <pt x="331" y="-12" on="0"/>
        <pt x="210" y="86" on="1"/>
        <pt x="81" y="189" on="0"/>
        <pt x="81" y="352" on="1"/>
        <pt x="81" y="508" on="0"/>
        <pt x="277" y="629" on="1"/>
      </contour>
      <contour>
        <pt x="509" y="590" on="0"/>
        <pt x="426" y="629" on="0"/>
        <pt x="309" y="698" on="0"/>
        <pt x="202" y="793" on="0"/>
        <pt x="170" y="842" on="1"/>
        <pt x="115" y="927" on="0"/>
        <pt x="115" y="1125" on="0"/>
        <pt x="172" y="1266" on="0"/>
        <pt x="224" y="1320" on="1"/>
        <pt x="338" y="1436" on="0"/>
        <pt x="521" y="1452" on="1"/>
        <pt x="521" y="1361" on="1"/>
        <pt x="454" y="1350" on="0"/>
        <pt x="371" y="1246" on="0"/>
        <pt x="371" y="1089" on="0"/>
        <pt x="438" y="990" on="0"/>
        <pt x="536" y="914" on="0"/>
        <pt x="649" y="857" on="0"/>
        <pt x="788" y="788" on="0"/>
        <pt x="924" y="701" on="0"/>
        <pt x="968" y="652" on="1"/>
        <pt x="1055" y="555" on="0"/>
        <pt x="1055" y="410" on="1"/>
        <pt x="1055" y="233" on="0"/>
        <pt x="929" y="114" on="1"/>
        <pt x="803" y="-4" on="0"/>
        <pt x="600" y="-20" on="1"/>
        <pt x="600" y="72" on="1"/>
        <pt x="683" y="85" on="0"/>
        <pt x="731" y="150" on="1"/>
        <pt x="774" y="207" on="0"/>
        <pt x="774" y="348" on="0"/>
        <pt x="736" y="428" on="0"/>
        <pt x="674" y="493" on="0"/>
        <pt x="593" y="546" on="0"/>
      </contour>
    </TTGlyph>
    <TTGlyph name="ellipsis" xMin="217" yMin="-18" xMax="2088" yMax="334">
      <contour>
        <pt x="217" y="158" on="1"/>
        <pt x="217" y="232" on="0"/>
        <pt x="264" y="283" on="1"/>
        <pt x="311" y="334" on="0"/>
        <pt x="385" y="334" on="1"/>
        <pt x="459" y="334" on="0"/>
        <pt x="506" y="283" on="1"/>
        <pt x="554" y="232" on="0"/>
        <pt x="554" y="158" on="1"/>
        <pt x="554" y="84" on="0"/>
        <pt x="506" y="33" on="1"/>
        <pt x="459" y="-18" on="0"/>
        <pt x="385" y="-18" on="1"/>
        <pt x="271" y="-18" on="0"/>
        <pt x="230" y="89" on="1"/>
        <pt x="217" y="121" on="0"/>
      </contour>
      <contour>
        <pt x="984" y="158" on="1"/>
        <pt x="984" y="232" on="0"/>
        <pt x="1032" y="283" on="1"/>
        <pt x="1079" y="334" on="0"/>
        <pt x="1153" y="334" on="1"/>
        <pt x="1267" y="334" on="0"/>
        <pt x="1308" y="227" on="1"/>
        <pt x="1321" y="195" on="0"/>
        <pt x="1321" y="158" on="1"/>
        <pt x="1321" y="84" on="0"/>
        <pt x="1274" y="33" on="1"/>
        <pt x="1227" y="-18" on="0"/>
        <pt x="1153" y="-18" on="1"/>
        <pt x="1079" y="-18" on="0"/>
        <pt x="1032" y="33" on="1"/>
        <pt x="984" y="84" on="0"/>
      </contour>
      <contour>
        <pt x="1752" y="158" on="1"/>
        <pt x="1752" y="232" on="0"/>
        <pt x="1799" y="283" on="1"/>
        <pt x="1846" y="334" on="0"/>
        <pt x="1921" y="334" on="1"/>
        <pt x="1994" y="334" on="0"/>
        <pt x="2041" y="283" on="1"/>
        <pt x="2088" y="232" on="0"/>
        <pt x="2088" y="158" on="1"/>
        <pt x="2088" y="84" on="0"/>
        <pt x="2041" y="33" on="1"/>
        <pt x="1994" y="-18" on="0"/>
        <pt x="1921" y="-18" on="1"/>
        <pt x="1806" y="-18" on="0"/>
        <pt x="1764" y="89" on="1"/>
        <pt x="1752" y="121" on="0"/>
      </contour>
    </TTGlyph>
    <TTGlyph name="emdash" xMin="0" yMin="410" xMax="2305" yMax="569">
      <contour>
        <pt x="0" y="410" on="1"/>
        <pt x="0" y="569" on="1"/>
        <pt x="2305" y="569" on="1"/>
        <pt x="2305" y="410" on="1"/>
      </contour>
    </TTGlyph>
    <TTGlyph name="endash" xMin="0" yMin="410" xMax="1153" yMax="569">
      <contour>
        <pt x="0" y="410" on="1"/>
        <pt x="0" y="569" on="1"/>
        <pt x="1153" y="569" on="1"/>
        <pt x="1153" y="410" on="1"/>
      </contour>
    </TTGlyph>
    <TTGlyph name="equal" xMin="139" yMin="170" xMax="1243" yMax="809">
      <contour>
        <pt x="1243" y="594" on="1"/>
        <pt x="139" y="594" on="1"/>
        <pt x="139" y="809" on="1"/>
        <pt x="1243" y="809" on="1"/>
      </contour>
      <contour>
        <pt x="1243" y="170" on="1"/>
        <pt x="139" y="170" on="1"/>
        <pt x="139" y="385" on="1"/>
        <pt x="1243" y="385" on="1"/>
      </contour>
    </TTGlyph>
    <TTGlyph name="eth" xMin="62" yMin="-26" xMax="1067" yMax="1473">
      <contour>
        <pt x="399" y="463" on="1"/>
        <pt x="399" y="106" on="0"/>
        <pt x="529" y="65" on="1"/>
        <pt x="529" y="-26" on="1"/>
        <pt x="324" y="-12" on="0"/>
        <pt x="190" y="137" on="1"/>
        <pt x="62" y="280" on="0"/>
        <pt x="62" y="463" on="1"/>
        <pt x="62" y="647" on="0"/>
        <pt x="190" y="788" on="1"/>
        <pt x="325" y="938" on="0"/>
        <pt x="529" y="951" on="1"/>
        <pt x="529" y="862" on="1"/>
        <pt x="460" y="843" on="0"/>
        <pt x="399" y="647" on="0"/>
      </contour>
      <contour>
        <pt x="353" y="1473" on="1"/>
        <pt x="510" y="1431" on="0"/>
        <pt x="638" y="1339" on="1"/>
        <pt x="862" y="1473" on="1"/>
        <pt x="924" y="1395" on="1"/>
        <pt x="724" y="1274" on="1"/>
        <pt x="884" y="1138" on="0"/>
        <pt x="978" y="920" on="1"/>
        <pt x="1063" y="721" on="0"/>
        <pt x="1067" y="520" on="1"/>
        <pt x="1063" y="272" on="0"/>
        <pt x="926" y="124" on="1"/>
        <pt x="799" y="-13" on="0"/>
        <pt x="598" y="-26" on="1"/>
        <pt x="598" y="63" on="1"/>
        <pt x="731" y="99" on="0"/>
        <pt x="731" y="826" on="0"/>
        <pt x="598" y="862" on="1"/>
        <pt x="598" y="951" on="1"/>
        <pt x="644" y="947" on="0"/>
        <pt x="680" y="938" on="1"/>
        <pt x="651" y="1083" on="0"/>
        <pt x="572" y="1184" on="1"/>
        <pt x="345" y="1051" on="1"/>
        <pt x="283" y="1128" on="1"/>
        <pt x="500" y="1257" on="1"/>
        <pt x="472" y="1284" on="0"/>
        <pt x="421" y="1319" on="1"/>
        <pt x="335" y="1379" on="0"/>
        <pt x="321" y="1401" on="1"/>
      </contour>
    </TTGlyph>
    <TTGlyph name="exclam" xMin="165" yMin="-25" xMax="514" yMax="1452">
      <contour>
        <pt x="290" y="428" on="1"/>
        <pt x="270" y="592" on="0"/>
        <pt x="191" y="1029" on="0"/>
        <pt x="165" y="1185" on="0"/>
        <pt x="165" y="1283" on="0"/>
        <pt x="186" y="1363" on="0"/>
        <pt x="208" y="1392" on="1"/>
        <pt x="253" y="1452" on="0"/>
        <pt x="341" y="1452" on="1"/>
        <pt x="514" y="1452" on="0"/>
        <pt x="514" y="1235" on="1"/>
        <pt x="514" y="1174" on="0"/>
        <pt x="482" y="998" on="1"/>
        <pt x="412" y="606" on="0"/>
        <pt x="391" y="428" on="1"/>
      </contour>
      <contour>
        <pt x="188" y="82" on="1"/>
        <pt x="175" y="114" on="0"/>
        <pt x="175" y="189" on="0"/>
        <pt x="200" y="253" on="0"/>
        <pt x="222" y="277" on="1"/>
        <pt x="269" y="328" on="0"/>
        <pt x="343" y="328" on="1"/>
        <pt x="417" y="328" on="0"/>
        <pt x="464" y="277" on="1"/>
        <pt x="512" y="226" on="0"/>
        <pt x="512" y="152" on="1"/>
        <pt x="512" y="77" on="0"/>
        <pt x="464" y="26" on="1"/>
        <pt x="417" y="-25" on="0"/>
        <pt x="343" y="-25" on="1"/>
        <pt x="229" y="-25" on="0"/>
      </contour>
    </TTGlyph>
    <TTGlyph name="exclamdown" xMin="169" yMin="-449" xMax="517" yMax="1028">
      <contour>
        <pt x="392" y="575" on="1"/>
        <pt x="412" y="411" on="0"/>
        <pt x="491" y="-26" on="0"/>
        <pt x="517" y="-183" on="0"/>
        <pt x="517" y="-281" on="0"/>
        <pt x="496" y="-360" on="0"/>
        <pt x="474" y="-388" on="1"/>
        <pt x="429" y="-449" on="0"/>
        <pt x="341" y="-449" on="1"/>
        <pt x="169" y="-449" on="0"/>
        <pt x="169" y="-233" on="1"/>
        <pt x="169" y="-168" on="0"/>
        <pt x="200" y="5" on="1"/>
        <pt x="270" y="406" on="0"/>
        <pt x="291" y="575" on="1"/>
      </contour>
      <contour>
        <pt x="173" y="852" on="1"/>
        <pt x="173" y="926" on="0"/>
        <pt x="220" y="977" on="1"/>
        <pt x="267" y="1028" on="0"/>
        <pt x="341" y="1028" on="1"/>
        <pt x="415" y="1028" on="0"/>
        <pt x="462" y="977" on="1"/>
        <pt x="510" y="926" on="0"/>
        <pt x="510" y="852" on="1"/>
        <pt x="510" y="778" on="0"/>
        <pt x="462" y="727" on="1"/>
        <pt x="415" y="676" on="0"/>
        <pt x="341" y="676" on="1"/>
        <pt x="227" y="676" on="0"/>
        <pt x="186" y="783" on="1"/>
        <pt x="173" y="815" on="0"/>
      </contour>
    </TTGlyph>
    <TTGlyph name="f" xMin="39" yMin="0" xMax="873" yMax="1487">
      <contour>
        <pt x="486" y="170" on="1"/>
        <pt x="486" y="116" on="0"/>
        <pt x="544" y="100" on="1"/>
        <pt x="569" y="92" on="0"/>
        <pt x="632" y="79" on="0"/>
        <pt x="662" y="64" on="1"/>
        <pt x="662" y="0" on="1"/>
        <pt x="46" y="0" on="1"/>
        <pt x="46" y="64" on="1"/>
        <pt x="68" y="77" on="0"/>
        <pt x="119" y="89" on="0"/>
        <pt x="140" y="97" on="1"/>
        <pt x="189" y="116" on="0"/>
        <pt x="189" y="168" on="1"/>
        <pt x="189" y="871" on="1"/>
        <pt x="39" y="871" on="1"/>
        <pt x="39" y="943" on="1"/>
        <pt x="51" y="956" on="0"/>
        <pt x="90" y="962" on="0"/>
        <pt x="112" y="965" on="1"/>
        <pt x="169" y="973" on="0"/>
        <pt x="189" y="1001" on="1"/>
        <pt x="196" y="1223" on="0"/>
        <pt x="252" y="1330" on="1"/>
        <pt x="319" y="1461" on="0"/>
        <pt x="486" y="1487" on="1"/>
      </contour>
      <contour>
        <pt x="596" y="1396" on="1"/>
        <pt x="585" y="1396" on="0"/>
        <pt x="575" y="1394" on="1"/>
        <pt x="575" y="1487" on="1"/>
        <pt x="722" y="1487" on="0"/>
        <pt x="873" y="1376" on="0"/>
        <pt x="873" y="1279" on="1"/>
        <pt x="873" y="1186" on="0"/>
        <pt x="786" y="1154" on="1"/>
        <pt x="758" y="1143" on="0"/>
        <pt x="658" y="1143" on="0"/>
        <pt x="587" y="1210" on="0"/>
        <pt x="587" y="1302" on="0"/>
        <pt x="632" y="1353" on="0"/>
        <pt x="659" y="1361" on="1"/>
        <pt x="649" y="1396" on="0"/>
      </contour>
      <contour>
        <pt x="575" y="981" on="1"/>
        <pt x="717" y="981" on="1"/>
        <pt x="717" y="871" on="1"/>
        <pt x="575" y="871" on="1"/>
      </contour>
    </TTGlyph>
    <TTGlyph name="fi" xMin="39" yMin="0" xMax="1319" yMax="1460">
      <contour>
        <pt x="486" y="166" on="1"/>
        <pt x="486" y="114" on="0"/>
        <pt x="544" y="98" on="1"/>
        <pt x="569" y="90" on="0"/>
        <pt x="632" y="78" on="0"/>
        <pt x="662" y="63" on="1"/>
        <pt x="662" y="0" on="1"/>
        <pt x="46" y="0" on="1"/>
        <pt x="46" y="63" on="1"/>
        <pt x="68" y="76" on="0"/>
        <pt x="119" y="87" on="0"/>
        <pt x="140" y="94" on="1"/>
        <pt x="189" y="112" on="0"/>
        <pt x="189" y="164" on="1"/>
        <pt x="189" y="874" on="1"/>
        <pt x="39" y="874" on="1"/>
        <pt x="39" y="944" on="1"/>
        <pt x="50" y="956" on="0"/>
        <pt x="90" y="963" on="0"/>
        <pt x="112" y="966" on="1"/>
        <pt x="169" y="976" on="0"/>
        <pt x="189" y="1006" on="1"/>
        <pt x="196" y="1207" on="0"/>
        <pt x="252" y="1305" on="1"/>
        <pt x="320" y="1425" on="0"/>
        <pt x="486" y="1447" on="1"/>
      </contour>
      <contour>
        <pt x="888" y="811" on="1"/>
        <pt x="888" y="856" on="0"/>
        <pt x="857" y="874" on="1"/>
        <pt x="575" y="874" on="1"/>
        <pt x="575" y="981" on="1"/>
        <pt x="1185" y="981" on="1"/>
        <pt x="1185" y="164" on="1"/>
        <pt x="1185" y="114" on="0"/>
        <pt x="1232" y="95" on="1"/>
        <pt x="1253" y="87" on="0"/>
        <pt x="1299" y="76" on="0"/>
        <pt x="1319" y="63" on="1"/>
        <pt x="1319" y="0" on="1"/>
        <pt x="756" y="0" on="1"/>
        <pt x="756" y="63" on="1"/>
        <pt x="775" y="76" on="0"/>
        <pt x="821" y="87" on="0"/>
        <pt x="841" y="95" on="1"/>
        <pt x="888" y="114" on="0"/>
        <pt x="888" y="164" on="1"/>
      </contour>
      <contour>
        <pt x="575" y="1452" on="1"/>
        <pt x="643" y="1460" on="0"/>
        <pt x="806" y="1460" on="0"/>
        <pt x="977" y="1425" on="0"/>
        <pt x="1040" y="1394" on="1"/>
        <pt x="1175" y="1328" on="0"/>
        <pt x="1175" y="1229" on="1"/>
        <pt x="1175" y="1131" on="0"/>
        <pt x="1081" y="1097" on="1"/>
        <pt x="1051" y="1086" on="0"/>
        <pt x="945" y="1086" on="0"/>
        <pt x="867" y="1157" on="0"/>
        <pt x="867" y="1206" on="1"/>
        <pt x="867" y="1288" on="0"/>
        <pt x="939" y="1309" on="1"/>
        <pt x="896" y="1372" on="0"/>
        <pt x="695" y="1372" on="1"/>
        <pt x="624" y="1372" on="0"/>
        <pt x="575" y="1361" on="1"/>
      </contour>
    </TTGlyph>
    <TTGlyph name="five" xMin="99" yMin="-20" xMax="1045" yMax="1456">
      <contour>
        <pt x="443" y="-20" on="1"/>
        <pt x="287" y="-8" on="0"/>
        <pt x="192" y="80" on="1"/>
        <pt x="99" y="165" on="0"/>
        <pt x="99" y="290" on="1"/>
        <pt x="99" y="422" on="0"/>
        <pt x="206" y="466" on="1"/>
        <pt x="239" y="480" on="0"/>
        <pt x="317" y="480" on="0"/>
        <pt x="376" y="456" on="0"/>
        <pt x="396" y="436" on="1"/>
        <pt x="436" y="396" on="0"/>
        <pt x="436" y="331" on="1"/>
        <pt x="436" y="270" on="0"/>
        <pt x="368" y="236" on="1"/>
        <pt x="325" y="215" on="0"/>
        <pt x="300" y="188" on="0"/>
        <pt x="300" y="150" on="0"/>
        <pt x="322" y="113" on="0"/>
        <pt x="341" y="100" on="1"/>
        <pt x="381" y="74" on="0"/>
        <pt x="443" y="72" on="1"/>
      </contour>
      <contour>
        <pt x="758" y="1137" on="1"/>
        <pt x="529" y="1137" on="0"/>
        <pt x="279" y="1147" on="1"/>
        <pt x="279" y="682" on="1"/>
        <pt x="279" y="613" on="0"/>
        <pt x="161" y="613" on="0"/>
        <pt x="161" y="692" on="1"/>
        <pt x="166" y="770" on="1"/>
        <pt x="167" y="1425" on="1"/>
        <pt x="393" y="1401" on="0"/>
        <pt x="832" y="1401" on="0"/>
        <pt x="887" y="1456" on="1"/>
        <pt x="917" y="1456" on="0"/>
        <pt x="938" y="1446" on="1"/>
        <pt x="938" y="1208" on="0"/>
      </contour>
      <contour>
        <pt x="610" y="759" on="0"/>
        <pt x="525" y="803" on="0"/>
        <pt x="415" y="803" on="0"/>
        <pt x="368" y="775" on="1"/>
        <pt x="368" y="884" on="1"/>
        <pt x="452" y="928" on="0"/>
        <pt x="650" y="928" on="0"/>
        <pt x="832" y="860" on="0"/>
        <pt x="900" y="799" on="1"/>
        <pt x="1045" y="668" on="0"/>
        <pt x="1045" y="463" on="1"/>
        <pt x="1045" y="255" on="0"/>
        <pt x="902" y="124" on="1"/>
        <pt x="763" y="-6" on="0"/>
        <pt x="532" y="-20" on="1"/>
        <pt x="532" y="87" on="1"/>
        <pt x="616" y="117" on="0"/>
        <pt x="703" y="294" on="0"/>
        <pt x="703" y="522" on="0"/>
        <pt x="670" y="666" on="0"/>
      </contour>
    </TTGlyph>
    <TTGlyph name="fl" xMin="39" yMin="0" xMax="1349" yMax="1467">
      <contour>
        <pt x="486" y="981" on="1"/>
        <pt x="717" y="981" on="1"/>
        <pt x="717" y="874" on="1"/>
        <pt x="486" y="874" on="1"/>
        <pt x="486" y="166" on="1"/>
        <pt x="486" y="114" on="0"/>
        <pt x="544" y="98" on="1"/>
        <pt x="569" y="90" on="0"/>
        <pt x="632" y="78" on="0"/>
        <pt x="662" y="63" on="1"/>
        <pt x="662" y="0" on="1"/>
        <pt x="46" y="0" on="1"/>
        <pt x="46" y="63" on="1"/>
        <pt x="68" y="76" on="0"/>
        <pt x="119" y="87" on="0"/>
        <pt x="140" y="94" on="1"/>
        <pt x="189" y="112" on="0"/>
        <pt x="189" y="164" on="1"/>
        <pt x="189" y="874" on="1"/>
        <pt x="39" y="874" on="1"/>
        <pt x="39" y="944" on="1"/>
        <pt x="50" y="956" on="0"/>
        <pt x="90" y="963" on="0"/>
        <pt x="112" y="966" on="1"/>
        <pt x="169" y="976" on="0"/>
        <pt x="189" y="1006" on="1"/>
        <pt x="196" y="1207" on="0"/>
        <pt x="252" y="1305" on="1"/>
        <pt x="320" y="1425" on="0"/>
        <pt x="486" y="1447" on="1"/>
      </contour>
      <contour>
        <pt x="575" y="1361" on="1"/>
        <pt x="575" y="1452" on="1"/>
        <pt x="701" y="1467" on="0"/>
        <pt x="916" y="1467" on="0"/>
        <pt x="1076" y="1428" on="0"/>
        <pt x="1125" y="1395" on="1"/>
        <pt x="1215" y="1334" on="0"/>
        <pt x="1215" y="1229" on="1"/>
        <pt x="1215" y="164" on="1"/>
        <pt x="1215" y="114" on="0"/>
        <pt x="1262" y="95" on="1"/>
        <pt x="1283" y="87" on="0"/>
        <pt x="1329" y="76" on="0"/>
        <pt x="1349" y="63" on="1"/>
        <pt x="1349" y="0" on="1"/>
        <pt x="786" y="0" on="1"/>
        <pt x="786" y="63" on="1"/>
        <pt x="805" y="76" on="0"/>
        <pt x="851" y="87" on="0"/>
        <pt x="871" y="95" on="1"/>
        <pt x="918" y="114" on="0"/>
        <pt x="918" y="164" on="1"/>
        <pt x="918" y="1212" on="1"/>
        <pt x="918" y="1301" on="0"/>
        <pt x="880" y="1332" on="1"/>
        <pt x="838" y="1365" on="0"/>
        <pt x="651" y="1365" on="0"/>
      </contour>
    </TTGlyph>
    <TTGlyph name="florin" xMin="-206" yMin="-400" xMax="1190" yMax="1443">
      <contour>
        <pt x="925" y="1300" on="1"/>
        <pt x="925" y="1336" on="0"/>
        <pt x="896" y="1341" on="1"/>
        <pt x="896" y="1443" on="1"/>
        <pt x="1018" y="1437" on="0"/>
        <pt x="1100" y="1382" on="1"/>
        <pt x="1190" y="1324" on="0"/>
        <pt x="1190" y="1236" on="1"/>
        <pt x="1190" y="1179" on="0"/>
        <pt x="1112" y="1105" on="0"/>
        <pt x="1043" y="1105" on="1"/>
        <pt x="906" y="1105" on="0"/>
        <pt x="906" y="1211" on="1"/>
        <pt x="906" y="1238" on="0"/>
        <pt x="925" y="1287" on="0"/>
      </contour>
      <contour>
        <pt x="92" y="-400" on="1"/>
        <pt x="-118" y="-394" on="0"/>
        <pt x="-184" y="-291" on="1"/>
        <pt x="-206" y="-257" on="0"/>
        <pt x="-206" y="-185" on="0"/>
        <pt x="-185" y="-137" on="0"/>
        <pt x="-166" y="-119" on="1"/>
        <pt x="-123" y="-80" on="0"/>
        <pt x="1" y="-80" on="0"/>
        <pt x="76" y="-142" on="0"/>
        <pt x="76" y="-180" on="1"/>
        <pt x="76" y="-248" on="0"/>
        <pt x="36" y="-268" on="1"/>
        <pt x="55" y="-298" on="0"/>
        <pt x="92" y="-305" on="1"/>
      </contour>
      <contour>
        <pt x="181" y="-298" on="1"/>
        <pt x="248" y="-267" on="0"/>
        <pt x="270" y="-88" on="1"/>
        <pt x="371" y="766" on="1"/>
        <pt x="150" y="766" on="1"/>
        <pt x="175" y="866" on="1"/>
        <pt x="385" y="866" on="1"/>
        <pt x="433" y="1202" on="0"/>
        <pt x="572" y="1338" on="1"/>
        <pt x="667" y="1431" on="0"/>
        <pt x="807" y="1442" on="1"/>
        <pt x="807" y="1332" on="1"/>
        <pt x="739" y="1297" on="0"/>
        <pt x="710" y="1050" on="1"/>
        <pt x="701" y="969" on="0"/>
        <pt x="691" y="866" on="1"/>
        <pt x="945" y="866" on="1"/>
        <pt x="917" y="766" on="1"/>
        <pt x="680" y="766" on="1"/>
        <pt x="662" y="571" on="1"/>
        <pt x="633" y="260" on="0"/>
        <pt x="576" y="-5" on="0"/>
        <pt x="510" y="-178" on="0"/>
        <pt x="460" y="-242" on="1"/>
        <pt x="356" y="-378" on="0"/>
        <pt x="181" y="-397" on="1"/>
      </contour>
    </TTGlyph>
    <TTGlyph name="four" xMin="39" yMin="0" xMax="1152" yMax="1430">
      <contour>
        <pt x="472" y="938" on="1"/>
        <pt x="175" y="500" on="1"/>
        <pt x="472" y="500" on="1"/>
        <pt x="472" y="383" on="1"/>
        <pt x="39" y="383" on="1"/>
        <pt x="39" y="510" on="1"/>
        <pt x="472" y="1136" on="1"/>
      </contour>
      <contour>
        <pt x="973" y="500" on="1"/>
        <pt x="1152" y="500" on="1"/>
        <pt x="1152" y="383" on="1"/>
        <pt x="973" y="383" on="1"/>
      </contour>
      <contour>
        <pt x="885" y="172" on="1"/>
        <pt x="885" y="118" on="0"/>
        <pt x="934" y="98" on="1"/>
        <pt x="956" y="90" on="0"/>
        <pt x="1007" y="75" on="0"/>
        <pt x="1030" y="57" on="1"/>
        <pt x="1030" y="0" on="1"/>
        <pt x="389" y="0" on="1"/>
        <pt x="389" y="74" on="1"/>
        <pt x="418" y="86" on="0"/>
        <pt x="479" y="99" on="0"/>
        <pt x="504" y="110" on="1"/>
        <pt x="561" y="135" on="0"/>
        <pt x="561" y="207" on="1"/>
        <pt x="561" y="1264" on="1"/>
        <pt x="675" y="1430" on="1"/>
        <pt x="885" y="1430" on="1"/>
      </contour>
    </TTGlyph>
    <TTGlyph name="fraction" xMin="-387" yMin="-31" xMax="770" yMax="1452">
      <contour>
        <pt x="-187" y="-31" on="1"/>
        <pt x="-387" y="-31" on="1"/>
        <pt x="571" y="1452" on="1"/>
        <pt x="770" y="1452" on="1"/>
      </contour>
    </TTGlyph>
    <TTGlyph name="g" xMin="69" yMin="-449" xMax="1101" yMax="1199">
      <contour>
        <pt x="177" y="24" on="1"/>
        <pt x="76" y="56" on="0"/>
        <pt x="76" y="134" on="1"/>
        <pt x="76" y="217" on="0"/>
        <pt x="194" y="300" on="1"/>
        <pt x="308" y="264" on="1"/>
        <pt x="269" y="234" on="0"/>
        <pt x="269" y="154" on="1"/>
        <pt x="690" y="154" on="0"/>
        <pt x="848" y="88" on="1"/>
        <pt x="928" y="55" on="0"/>
        <pt x="990" y="-48" on="0"/>
        <pt x="990" y="-190" on="0"/>
        <pt x="919" y="-308" on="0"/>
        <pt x="859" y="-351" on="1"/>
        <pt x="734" y="-441" on="0"/>
        <pt x="552" y="-449" on="1"/>
        <pt x="552" y="-352" on="1"/>
        <pt x="695" y="-346" on="0"/>
        <pt x="736" y="-246" on="1"/>
        <pt x="748" y="-217" on="0"/>
        <pt x="748" y="-184" on="1"/>
        <pt x="748" y="-124" on="0"/>
        <pt x="626" y="-46" on="0"/>
        <pt x="536" y="-46" on="1"/>
        <pt x="396" y="-46" on="0"/>
        <pt x="333" y="-55" on="1"/>
        <pt x="318" y="-92" on="0"/>
        <pt x="318" y="-137" on="1"/>
        <pt x="318" y="-196" on="1"/>
        <pt x="318" y="-261" on="0"/>
        <pt x="380" y="-341" on="0"/>
        <pt x="463" y="-350" on="1"/>
        <pt x="463" y="-448" on="1"/>
        <pt x="228" y="-435" on="0"/>
        <pt x="150" y="-267" on="1"/>
        <pt x="123" y="-209" on="0"/>
        <pt x="123" y="-43" on="0"/>
      </contour>
      <contour>
        <pt x="858" y="1085" on="1"/>
        <pt x="794" y="1085" on="0"/>
        <pt x="794" y="1005" on="1"/>
        <pt x="794" y="965" on="0"/>
        <pt x="815" y="941" on="0"/>
        <pt x="838" y="923" on="0"/>
        <pt x="868" y="894" on="1"/>
        <pt x="932" y="831" on="0"/>
        <pt x="932" y="684" on="1"/>
        <pt x="932" y="523" on="0"/>
        <pt x="820" y="422" on="1"/>
        <pt x="713" y="325" on="0"/>
        <pt x="552" y="315" on="1"/>
        <pt x="552" y="410" on="1"/>
        <pt x="603" y="427" on="0"/>
        <pt x="642" y="557" on="0"/>
        <pt x="642" y="675" on="1"/>
        <pt x="642" y="793" on="0"/>
        <pt x="602" y="911" on="0"/>
        <pt x="552" y="926" on="1"/>
        <pt x="552" y="1025" on="1"/>
        <pt x="640" y="1022" on="0"/>
        <pt x="697" y="1002" on="1"/>
        <pt x="697" y="1138" on="0"/>
        <pt x="824" y="1184" on="1"/>
        <pt x="864" y="1199" on="0"/>
        <pt x="963" y="1199" on="0"/>
        <pt x="1034" y="1174" on="0"/>
        <pt x="1057" y="1152" on="1"/>
        <pt x="1101" y="1111" on="0"/>
        <pt x="1101" y="983" on="0"/>
        <pt x="1032" y="919" on="0"/>
        <pt x="920" y="919" on="0"/>
        <pt x="851" y="981" on="0"/>
        <pt x="851" y="1029" on="1"/>
        <pt x="851" y="1047" on="0"/>
        <pt x="862" y="1074" on="0"/>
        <pt x="862" y="1085" on="0"/>
      </contour>
      <contour>
        <pt x="463" y="313" on="1"/>
        <pt x="164" y="322" on="0"/>
        <pt x="94" y="510" on="1"/>
        <pt x="69" y="575" on="0"/>
        <pt x="69" y="751" on="0"/>
        <pt x="126" y="880" on="0"/>
        <pt x="178" y="924" on="1"/>
        <pt x="281" y="1013" on="0"/>
        <pt x="463" y="1025" on="1"/>
        <pt x="463" y="926" on="1"/>
        <pt x="404" y="916" on="0"/>
        <pt x="381" y="859" on="1"/>
        <pt x="359" y="804" on="0"/>
        <pt x="359" y="552" on="0"/>
        <pt x="405" y="420" on="0"/>
        <pt x="463" y="407" on="1"/>
      </contour>
    </TTGlyph>
    <TTGlyph name="germandbls" xMin="53" yMin="-37" xMax="1286" yMax="1449">
      <contour>
        <pt x="744" y="202" on="1"/>
        <pt x="744" y="101" on="0"/>
        <pt x="841" y="76" on="1"/>
        <pt x="841" y="-36" on="1"/>
        <pt x="648" y="-12" on="0"/>
        <pt x="582" y="146" on="1"/>
        <pt x="560" y="200" on="0"/>
        <pt x="560" y="295" on="0"/>
        <pt x="580" y="332" on="0"/>
        <pt x="596" y="344" on="1"/>
        <pt x="627" y="367" on="0"/>
        <pt x="696" y="367" on="0"/>
        <pt x="726" y="351" on="0"/>
        <pt x="734" y="338" on="1"/>
        <pt x="746" y="315" on="0"/>
        <pt x="746" y="272" on="1"/>
        <pt x="746" y="272" on="0"/>
      </contour>
      <contour>
        <pt x="481" y="0" on="1"/>
        <pt x="53" y="0" on="1"/>
        <pt x="53" y="63" on="1"/>
        <pt x="72" y="76" on="0"/>
        <pt x="117" y="87" on="0"/>
        <pt x="137" y="95" on="1"/>
        <pt x="184" y="114" on="0"/>
        <pt x="184" y="164" on="1"/>
        <pt x="184" y="887" on="1"/>
        <pt x="184" y="1325" on="0"/>
        <pt x="481" y="1421" on="1"/>
      </contour>
      <contour>
        <pt x="570" y="1442" on="1"/>
        <pt x="612" y="1449" on="0"/>
        <pt x="771" y="1449" on="0"/>
        <pt x="934" y="1403" on="0"/>
        <pt x="994" y="1360" on="1"/>
        <pt x="1120" y="1269" on="0"/>
        <pt x="1120" y="1122" on="1"/>
        <pt x="1120" y="928" on="0"/>
        <pt x="950" y="816" on="1"/>
        <pt x="875" y="768" on="0"/>
        <pt x="780" y="746" on="1"/>
        <pt x="780" y="712" on="0"/>
        <pt x="859" y="678" on="1"/>
        <pt x="895" y="662" on="0"/>
        <pt x="986" y="628" on="0"/>
        <pt x="1080" y="587" on="0"/>
        <pt x="1171" y="535" on="0"/>
        <pt x="1207" y="501" on="1"/>
        <pt x="1286" y="426" on="0"/>
        <pt x="1286" y="239" on="0"/>
        <pt x="1225" y="109" on="0"/>
        <pt x="1175" y="64" on="1"/>
        <pt x="1077" y="-26" on="0"/>
        <pt x="930" y="-37" on="1"/>
        <pt x="930" y="77" on="1"/>
        <pt x="1009" y="98" on="0"/>
        <pt x="1035" y="165" on="1"/>
        <pt x="1044" y="188" on="0"/>
        <pt x="1044" y="269" on="0"/>
        <pt x="972" y="345" on="0"/>
        <pt x="863" y="407" on="0"/>
        <pt x="737" y="465" on="0"/>
        <pt x="682" y="500" on="1"/>
        <pt x="556" y="580" on="0"/>
        <pt x="556" y="682" on="1"/>
        <pt x="556" y="757" on="0"/>
        <pt x="626" y="822" on="1"/>
        <pt x="655" y="849" on="0"/>
        <pt x="724" y="901" on="0"/>
        <pt x="754" y="932" on="1"/>
        <pt x="823" y="1005" on="0"/>
        <pt x="823" y="1098" on="1"/>
        <pt x="823" y="1216" on="0"/>
        <pt x="767" y="1318" on="0"/>
        <pt x="701" y="1362" on="0"/>
        <pt x="604" y="1362" on="0"/>
        <pt x="570" y="1348" on="1"/>
      </contour>
    </TTGlyph>
    <TTGlyph name="grave" xMin="-30" yMin="1120" xMax="491" yMax="1493">
      <contour>
        <pt x="367" y="1120" on="1"/>
        <pt x="53" y="1303" on="1"/>
        <pt x="6" y="1330" on="0"/>
        <pt x="-7" y="1343" on="1"/>
        <pt x="-30" y="1367" on="0"/>
        <pt x="-30" y="1427" on="0"/>
        <pt x="-11" y="1459" on="0"/>
        <pt x="4" y="1470" on="1"/>
        <pt x="34" y="1493" on="0"/>
        <pt x="67" y="1493" on="1"/>
        <pt x="135" y="1493" on="0"/>
        <pt x="199" y="1427" on="1"/>
        <pt x="491" y="1120" on="1"/>
      </contour>
    </TTGlyph>
    <TTGlyph name="greater" xMin="139" yMin="-16" xMax="1245" yMax="997">
      <contour>
        <pt x="1159" y="600" on="1"/>
        <pt x="1245" y="569" on="1"/>
        <pt x="1245" y="412" on="1"/>
        <pt x="139" y="-16" on="1"/>
        <pt x="139" y="209" on="1"/>
      </contour>
      <contour>
        <pt x="743" y="553" on="1"/>
        <pt x="139" y="774" on="1"/>
        <pt x="139" y="997" on="1"/>
        <pt x="1027" y="662" on="1"/>
      </contour>
    </TTGlyph>
    <TTGlyph name="greaterequal" xMin="115" yMin="-31" xMax="1030" yMax="1247">
      <contour>
        <pt x="1027" y="813" on="1"/>
        <pt x="1027" y="639" on="1"/>
        <pt x="115" y="205" on="1"/>
        <pt x="115" y="393" on="1"/>
        <pt x="859" y="725" on="1"/>
        <pt x="859" y="731" on="1"/>
        <pt x="115" y="1061" on="1"/>
        <pt x="115" y="1247" on="1"/>
      </contour>
      <contour>
        <pt x="115" y="-31" on="1"/>
        <pt x="115" y="133" on="1"/>
        <pt x="1030" y="133" on="1"/>
        <pt x="1030" y="-31" on="1"/>
      </contour>
    </TTGlyph>
    <TTGlyph name="guillemotleft" xMin="142" yMin="131" xMax="978" yMax="1069">
      <contour>
        <pt x="978" y="1069" on="1"/>
        <pt x="978" y="922" on="1"/>
        <pt x="763" y="600" on="1"/>
        <pt x="978" y="279" on="1"/>
        <pt x="978" y="131" on="1"/>
        <pt x="556" y="516" on="1"/>
        <pt x="556" y="684" on="1"/>
      </contour>
      <contour>
        <pt x="564" y="1069" on="1"/>
        <pt x="564" y="922" on="1"/>
        <pt x="348" y="600" on="1"/>
        <pt x="564" y="279" on="1"/>
        <pt x="564" y="131" on="1"/>
        <pt x="142" y="516" on="1"/>
        <pt x="142" y="684" on="1"/>
      </contour>
    </TTGlyph>
    <TTGlyph name="guillemotright" xMin="174" yMin="131" xMax="1010" yMax="1069">
      <contour>
        <pt x="174" y="1069" on="1"/>
        <pt x="596" y="684" on="1"/>
        <pt x="596" y="516" on="1"/>
        <pt x="174" y="131" on="1"/>
        <pt x="174" y="279" on="1"/>
        <pt x="389" y="600" on="1"/>
        <pt x="174" y="922" on="1"/>
      </contour>
      <contour>
        <pt x="588" y="1069" on="1"/>
        <pt x="1010" y="684" on="1"/>
        <pt x="1010" y="516" on="1"/>
        <pt x="588" y="131" on="1"/>
        <pt x="588" y="279" on="1"/>
        <pt x="804" y="600" on="1"/>
        <pt x="588" y="922" on="1"/>
      </contour>
    </TTGlyph>
    <TTGlyph name="guilsinglleft" xMin="142" yMin="131" xMax="564" yMax="1069">
      <contour>
        <pt x="564" y="1069" on="1"/>
        <pt x="564" y="922" on="1"/>
        <pt x="348" y="600" on="1"/>
        <pt x="564" y="279" on="1"/>
        <pt x="564" y="131" on="1"/>
        <pt x="142" y="516" on="1"/>
        <pt x="142" y="684" on="1"/>
      </contour>
    </TTGlyph>
    <TTGlyph name="guilsinglright" xMin="174" yMin="131" xMax="596" yMax="1069">
      <contour>
        <pt x="174" y="1069" on="1"/>
        <pt x="596" y="684" on="1"/>
        <pt x="596" y="516" on="1"/>
        <pt x="174" y="131" on="1"/>
        <pt x="174" y="279" on="1"/>
        <pt x="389" y="600" on="1"/>
        <pt x="174" y="922" on="1"/>
      </contour>
    </TTGlyph>
    <TTGlyph name="h" xMin="39" yMin="0" xMax="1155" yMax="1455">
      <contour>
        <pt x="704" y="880" on="0"/>
        <pt x="668" y="905" on="0"/>
        <pt x="589" y="905" on="0"/>
        <pt x="555" y="888" on="1"/>
        <pt x="555" y="977" on="1"/>
        <pt x="637" y="1025" on="0"/>
        <pt x="802" y="1025" on="0"/>
        <pt x="909" y="987" on="0"/>
        <pt x="946" y="950" on="1"/>
        <pt x="1025" y="871" on="0"/>
        <pt x="1025" y="729" on="1"/>
        <pt x="1025" y="168" on="1"/>
        <pt x="1025" y="116" on="0"/>
        <pt x="1073" y="97" on="1"/>
        <pt x="1093" y="89" on="0"/>
        <pt x="1138" y="77" on="0"/>
        <pt x="1155" y="64" on="1"/>
        <pt x="1155" y="0" on="1"/>
        <pt x="680" y="0" on="1"/>
        <pt x="680" y="63" on="1"/>
        <pt x="687" y="75" on="0"/>
        <pt x="704" y="89" on="0"/>
        <pt x="711" y="97" on="1"/>
        <pt x="728" y="116" on="0"/>
        <pt x="728" y="154" on="1"/>
        <pt x="728" y="715" on="1"/>
        <pt x="728" y="819" on="0"/>
      </contour>
      <contour>
        <pt x="466" y="168" on="1"/>
        <pt x="466" y="115" on="0"/>
        <pt x="508" y="97" on="1"/>
        <pt x="527" y="89" on="0"/>
        <pt x="571" y="77" on="0"/>
        <pt x="590" y="64" on="1"/>
        <pt x="590" y="0" on="1"/>
        <pt x="39" y="0" on="1"/>
        <pt x="39" y="64" on="1"/>
        <pt x="56" y="77" on="0"/>
        <pt x="101" y="89" on="0"/>
        <pt x="121" y="97" on="1"/>
        <pt x="169" y="116" on="0"/>
        <pt x="169" y="168" on="1"/>
        <pt x="169" y="1281" on="1"/>
        <pt x="169" y="1333" on="0"/>
        <pt x="121" y="1354" on="1"/>
        <pt x="101" y="1362" on="0"/>
        <pt x="56" y="1373" on="0"/>
        <pt x="39" y="1386" on="1"/>
        <pt x="39" y="1455" on="1"/>
        <pt x="466" y="1455" on="1"/>
      </contour>
    </TTGlyph>
    <TTGlyph name="hbar" xMin="0" yMin="0" xMax="1155" yMax="1455">
      <contour>
        <pt x="555" y="1111" on="1"/>
        <pt x="555" y="1218" on="1"/>
        <pt x="865" y="1218" on="1"/>
        <pt x="865" y="1111" on="1"/>
      </contour>
      <contour>
        <pt x="0" y="1111" on="1"/>
        <pt x="0" y="1218" on="1"/>
        <pt x="82" y="1218" on="1"/>
        <pt x="82" y="1111" on="1"/>
      </contour>
      <contour>
        <pt x="704" y="880" on="0"/>
        <pt x="668" y="905" on="0"/>
        <pt x="589" y="905" on="0"/>
        <pt x="555" y="888" on="1"/>
        <pt x="555" y="977" on="1"/>
        <pt x="637" y="1025" on="0"/>
        <pt x="802" y="1025" on="0"/>
        <pt x="909" y="987" on="0"/>
        <pt x="946" y="950" on="1"/>
        <pt x="1025" y="871" on="0"/>
        <pt x="1025" y="729" on="1"/>
        <pt x="1025" y="168" on="1"/>
        <pt x="1025" y="116" on="0"/>
        <pt x="1073" y="97" on="1"/>
        <pt x="1093" y="89" on="0"/>
        <pt x="1138" y="77" on="0"/>
        <pt x="1155" y="64" on="1"/>
        <pt x="1155" y="0" on="1"/>
        <pt x="680" y="0" on="1"/>
        <pt x="680" y="63" on="1"/>
        <pt x="687" y="75" on="0"/>
        <pt x="704" y="89" on="0"/>
        <pt x="711" y="97" on="1"/>
        <pt x="728" y="116" on="0"/>
        <pt x="728" y="154" on="1"/>
        <pt x="728" y="715" on="1"/>
        <pt x="728" y="819" on="0"/>
      </contour>
      <contour>
        <pt x="466" y="168" on="1"/>
        <pt x="466" y="115" on="0"/>
        <pt x="508" y="97" on="1"/>
        <pt x="527" y="89" on="0"/>
        <pt x="571" y="77" on="0"/>
        <pt x="590" y="64" on="1"/>
        <pt x="590" y="0" on="1"/>
        <pt x="39" y="0" on="1"/>
        <pt x="39" y="64" on="1"/>
        <pt x="56" y="77" on="0"/>
        <pt x="101" y="89" on="0"/>
        <pt x="121" y="97" on="1"/>
        <pt x="169" y="116" on="0"/>
        <pt x="169" y="168" on="1"/>
        <pt x="169" y="1281" on="1"/>
        <pt x="169" y="1333" on="0"/>
        <pt x="121" y="1354" on="1"/>
        <pt x="101" y="1362" on="0"/>
        <pt x="56" y="1373" on="0"/>
        <pt x="39" y="1386" on="1"/>
        <pt x="39" y="1455" on="1"/>
        <pt x="466" y="1455" on="1"/>
      </contour>
    </TTGlyph>
    <TTGlyph name="hungarumlaut" xMin="-13" yMin="1120" xMax="874" yMax="1493">
      <contour>
        <pt x="-13" y="1120" on="1"/>
        <pt x="251" y="1423" on="1"/>
        <pt x="312" y="1493" on="0"/>
        <pt x="381" y="1493" on="1"/>
        <pt x="422" y="1493" on="0"/>
        <pt x="475" y="1442" on="0"/>
        <pt x="475" y="1409" on="1"/>
        <pt x="475" y="1356" on="0"/>
        <pt x="401" y="1309" on="1"/>
        <pt x="107" y="1120" on="1"/>
      </contour>
      <contour>
        <pt x="353" y="1120" on="1"/>
        <pt x="645" y="1427" on="1"/>
        <pt x="707" y="1493" on="0"/>
        <pt x="773" y="1493" on="1"/>
        <pt x="835" y="1493" on="0"/>
        <pt x="864" y="1443" on="1"/>
        <pt x="874" y="1427" on="0"/>
        <pt x="874" y="1385" on="0"/>
        <pt x="863" y="1356" on="0"/>
        <pt x="852" y="1345" on="1"/>
        <pt x="839" y="1332" on="0"/>
        <pt x="788" y="1303" on="1"/>
        <pt x="475" y="1120" on="1"/>
      </contour>
    </TTGlyph>
    <TTGlyph name="hyphen" xMin="51" yMin="389" xMax="587" yMax="590">
      <contour>
        <pt x="51" y="389" on="1"/>
        <pt x="51" y="590" on="1"/>
        <pt x="587" y="590" on="1"/>
        <pt x="587" y="389" on="1"/>
      </contour>
    </TTGlyph>
    <TTGlyph name="i" xMin="39" yMin="0" xMax="602" yMax="1473">
      <contour>
        <pt x="468" y="168" on="1"/>
        <pt x="468" y="116" on="0"/>
        <pt x="516" y="97" on="1"/>
        <pt x="536" y="89" on="0"/>
        <pt x="582" y="77" on="0"/>
        <pt x="602" y="64" on="1"/>
        <pt x="602" y="0" on="1"/>
        <pt x="39" y="0" on="1"/>
        <pt x="39" y="64" on="1"/>
        <pt x="58" y="77" on="0"/>
        <pt x="104" y="89" on="0"/>
        <pt x="124" y="97" on="1"/>
        <pt x="171" y="116" on="0"/>
        <pt x="171" y="168" on="1"/>
        <pt x="171" y="831" on="1"/>
        <pt x="171" y="885" on="0"/>
        <pt x="124" y="902" on="1"/>
        <pt x="104" y="910" on="0"/>
        <pt x="58" y="921" on="0"/>
        <pt x="39" y="935" on="1"/>
        <pt x="39" y="1005" on="1"/>
        <pt x="468" y="1005" on="1"/>
      </contour>
      <contour>
        <pt x="302" y="1124" on="1"/>
        <pt x="264" y="1124" on="0"/>
        <pt x="202" y="1152" on="0"/>
        <pt x="180" y="1176" on="1"/>
        <pt x="134" y="1226" on="0"/>
        <pt x="134" y="1298" on="1"/>
        <pt x="134" y="1368" on="0"/>
        <pt x="180" y="1420" on="1"/>
        <pt x="228" y="1473" on="0"/>
        <pt x="302" y="1473" on="1"/>
        <pt x="377" y="1473" on="0"/>
        <pt x="425" y="1420" on="1"/>
        <pt x="471" y="1368" on="0"/>
        <pt x="471" y="1298" on="1"/>
        <pt x="471" y="1226" on="0"/>
        <pt x="425" y="1176" on="1"/>
        <pt x="377" y="1124" on="0"/>
      </contour>
    </TTGlyph>
    <TTGlyph name="iacute" xMin="39" yMin="0" xMax="602" yMax="1493">
      <component glyphName="dotlessi" x="0" y="0" flags="0x1204"/>
      <component glyphName="acute" x="-88" y="0" flags="0x1004"/>
    </TTGlyph>
    <TTGlyph name="icircumflex" xMin="-40" yMin="0" xMax="681" yMax="1477">
      <component glyphName="dotlessi" x="0" y="0" flags="0x1204"/>
      <component glyphName="circumflex" x="1" y="0" flags="0x1004"/>
    </TTGlyph>
    <TTGlyph name="idieresis" xMin="-134" yMin="0" xMax="775" yMax="1395">
      <component glyphName="dotlessi" x="0" y="0" flags="0x1204"/>
      <component glyphName="dieresis" x="1" y="0" flags="0x1004"/>
    </TTGlyph>
    <TTGlyph name="igrave" xMin="39" yMin="0" xMax="602" yMax="1493">
      <component glyphName="dotlessi" x="0" y="0" flags="0x1204"/>
      <component glyphName="grave" x="90" y="0" flags="0x1004"/>
    </TTGlyph>
    <TTGlyph name="ij" xMin="39" yMin="-420" xMax="1143" yMax="1473">
      <component glyphName="i" x="0" y="0" flags="0x1004"/>
      <component glyphName="j" x="641" y="0" flags="0x1004"/>
    </TTGlyph>
    <TTGlyph name="infinity" xMin="99" yMin="242" xMax="1577" yMax="918">
      <contour>
        <pt x="1215" y="770" on="1"/>
        <pt x="1110" y="770" on="0"/>
        <pt x="990" y="645" on="1"/>
        <pt x="899" y="763" on="1"/>
        <pt x="971" y="835" on="0"/>
        <pt x="1022" y="863" on="1"/>
        <pt x="1122" y="918" on="0"/>
        <pt x="1301" y="918" on="0"/>
        <pt x="1428" y="873" on="0"/>
        <pt x="1475" y="830" on="1"/>
        <pt x="1577" y="738" on="0"/>
        <pt x="1577" y="590" on="1"/>
        <pt x="1577" y="588" on="1"/>
        <pt x="1577" y="430" on="0"/>
        <pt x="1468" y="333" on="1"/>
        <pt x="1365" y="242" on="0"/>
        <pt x="1221" y="242" on="1"/>
        <pt x="1123" y="242" on="0"/>
        <pt x="1058" y="274" on="1"/>
        <pt x="941" y="334" on="0"/>
        <pt x="777" y="539" on="0"/>
        <pt x="679" y="658" on="0"/>
        <pt x="636" y="696" on="1"/>
        <pt x="554" y="770" on="0"/>
        <pt x="461" y="770" on="1"/>
        <pt x="373" y="770" on="0"/>
        <pt x="322" y="716" on="1"/>
        <pt x="273" y="663" on="0"/>
        <pt x="273" y="575" on="1"/>
        <pt x="273" y="497" on="0"/>
        <pt x="328" y="446" on="1"/>
        <pt x="384" y="393" on="0"/>
        <pt x="469" y="393" on="1"/>
        <pt x="471" y="393" on="1"/>
        <pt x="583" y="393" on="0"/>
        <pt x="707" y="522" on="1"/>
        <pt x="796" y="404" on="1"/>
        <pt x="634" y="242" on="0"/>
        <pt x="447" y="242" on="1"/>
        <pt x="305" y="242" on="0"/>
        <pt x="205" y="334" on="1"/>
        <pt x="99" y="431" on="0"/>
        <pt x="99" y="578" on="1"/>
        <pt x="99" y="728" on="0"/>
        <pt x="204" y="824" on="1"/>
        <pt x="308" y="918" on="0"/>
        <pt x="466" y="918" on="1"/>
        <pt x="636" y="918" on="0"/>
        <pt x="766" y="800" on="1"/>
        <pt x="815" y="755" on="0"/>
        <pt x="985" y="538" on="0"/>
        <pt x="1030" y="493" on="1"/>
        <pt x="1132" y="393" on="0"/>
        <pt x="1227" y="393" on="1"/>
        <pt x="1307" y="393" on="0"/>
        <pt x="1358" y="455" on="1"/>
        <pt x="1404" y="510" on="0"/>
        <pt x="1404" y="617" on="0"/>
        <pt x="1378" y="688" on="0"/>
        <pt x="1354" y="714" on="1"/>
        <pt x="1302" y="770" on="0"/>
        <pt x="1217" y="770" on="1"/>
      </contour>
    </TTGlyph>
    <TTGlyph name="integral" xMin="121" yMin="-367" xMax="1274" yMax="1680">
      <contour>
        <pt x="1021" y="1660" on="1"/>
        <pt x="1056" y="1654" on="0"/>
        <pt x="1139" y="1647" on="0"/>
        <pt x="1176" y="1634" on="1"/>
        <pt x="1264" y="1605" on="0"/>
        <pt x="1274" y="1515" on="1"/>
        <pt x="1274" y="1427" on="0"/>
        <pt x="1188" y="1400" on="1"/>
        <pt x="1165" y="1392" on="0"/>
        <pt x="1111" y="1392" on="0"/>
        <pt x="1072" y="1422" on="0"/>
        <pt x="1047" y="1467" on="0"/>
        <pt x="1030" y="1519" on="0"/>
        <pt x="1021" y="1540" on="1"/>
      </contour>
      <contour>
        <pt x="354" y="-361" on="1"/>
        <pt x="338" y="-366" on="0"/>
        <pt x="309" y="-366" on="0"/>
        <pt x="266" y="-367" on="0"/>
        <pt x="206" y="-352" on="0"/>
        <pt x="180" y="-337" on="1"/>
        <pt x="123" y="-303" on="0"/>
        <pt x="121" y="-246" on="1"/>
        <pt x="121" y="-188" on="0"/>
        <pt x="167" y="-153" on="1"/>
        <pt x="207" y="-123" on="0"/>
        <pt x="286" y="-123" on="0"/>
        <pt x="316" y="-143" on="0"/>
        <pt x="335" y="-173" on="0"/>
        <pt x="348" y="-207" on="0"/>
        <pt x="354" y="-221" on="1"/>
      </contour>
      <contour>
        <pt x="443" y="-212" on="1"/>
        <pt x="500" y="-120" on="0"/>
        <pt x="530" y="310" on="1"/>
        <pt x="570" y="900" on="0"/>
        <pt x="613" y="1212" on="0"/>
        <pt x="662" y="1428" on="0"/>
        <pt x="697" y="1508" on="1"/>
        <pt x="772" y="1680" on="0"/>
        <pt x="891" y="1680" on="1"/>
        <pt x="907" y="1680" on="0"/>
        <pt x="932" y="1675" on="1"/>
        <pt x="932" y="1551" on="1"/>
        <pt x="875" y="1457" on="0"/>
        <pt x="844" y="1026" on="1"/>
        <pt x="835" y="902" on="0"/>
        <pt x="816" y="639" on="0"/>
        <pt x="793" y="372" on="0"/>
        <pt x="759" y="124" on="0"/>
        <pt x="711" y="-91" on="0"/>
        <pt x="676" y="-170" on="1"/>
        <pt x="600" y="-342" on="0"/>
        <pt x="486" y="-342" on="1"/>
        <pt x="465" y="-342" on="0"/>
        <pt x="443" y="-336" on="1"/>
      </contour>
    </TTGlyph>
    <TTGlyph name="itilde" xMin="-59" yMin="0" xMax="700" yMax="1411">
      <component glyphName="dotlessi" x="0" y="0" flags="0x1204"/>
      <component glyphName="tilde" x="1" y="0" flags="0x1004"/>
    </TTGlyph>
    <TTGlyph name="j" xMin="-193" yMin="-420" xMax="502" yMax="1473">
      <contour>
        <pt x="36" y="-254" on="1"/>
        <pt x="53" y="-304" on="0"/>
        <pt x="97" y="-314" on="1"/>
        <pt x="97" y="-420" on="1"/>
        <pt x="89" y="-420" on="1"/>
        <pt x="-34" y="-420" on="0"/>
        <pt x="-193" y="-299" on="0"/>
        <pt x="-193" y="-208" on="1"/>
        <pt x="-193" y="-146" on="0"/>
        <pt x="-164" y="-115" on="1"/>
        <pt x="-115" y="-60" on="0"/>
        <pt x="-45" y="-60" on="1"/>
        <pt x="49" y="-60" on="0"/>
        <pt x="74" y="-133" on="1"/>
        <pt x="81" y="-155" on="0"/>
        <pt x="81" y="-179" on="1"/>
        <pt x="81" y="-239" on="0"/>
      </contour>
      <contour>
        <pt x="186" y="-299" on="1"/>
        <pt x="224" y="-272" on="0"/>
        <pt x="224" y="-212" on="1"/>
        <pt x="224" y="-180" on="0"/>
        <pt x="218" y="-130" on="1"/>
        <pt x="205" y="-34" on="0"/>
        <pt x="205" y="10" on="1"/>
        <pt x="205" y="831" on="1"/>
        <pt x="205" y="883" on="0"/>
        <pt x="158" y="900" on="1"/>
        <pt x="138" y="908" on="0"/>
        <pt x="93" y="917" on="0"/>
        <pt x="74" y="931" on="1"/>
        <pt x="74" y="1005" on="1"/>
        <pt x="502" y="1005" on="1"/>
        <pt x="502" y="54" on="1"/>
        <pt x="502" y="-364" on="0"/>
        <pt x="186" y="-413" on="1"/>
      </contour>
      <contour>
        <pt x="433" y="1152" on="0"/>
        <pt x="371" y="1124" on="0"/>
        <pt x="294" y="1124" on="0"/>
        <pt x="232" y="1152" on="0"/>
        <pt x="210" y="1176" on="1"/>
        <pt x="163" y="1226" on="0"/>
        <pt x="163" y="1298" on="1"/>
        <pt x="163" y="1369" on="0"/>
        <pt x="210" y="1420" on="1"/>
        <pt x="259" y="1473" on="0"/>
        <pt x="332" y="1473" on="1"/>
        <pt x="408" y="1473" on="0"/>
        <pt x="454" y="1420" on="1"/>
        <pt x="500" y="1368" on="0"/>
        <pt x="500" y="1263" on="0"/>
        <pt x="476" y="1200" on="0"/>
      </contour>
    </TTGlyph>
    <TTGlyph name="jcircumflex" xMin="-193" yMin="-420" xMax="681" yMax="1477">
      <component glyphName="dotlessj" x="0" y="0" flags="0x1204"/>
      <component glyphName="circumflex" x="1" y="0" flags="0x1004"/>
    </TTGlyph>
    <TTGlyph name="k" xMin="24" yMin="0" xMax="1208" yMax="1455">
      <contour>
        <pt x="552" y="629" on="1"/>
        <pt x="717" y="774" on="1"/>
        <pt x="754" y="806" on="0"/>
        <pt x="791" y="846" on="0"/>
        <pt x="791" y="884" on="0"/>
        <pt x="768" y="901" on="0"/>
        <pt x="734" y="911" on="0"/>
        <pt x="694" y="922" on="0"/>
        <pt x="678" y="935" on="1"/>
        <pt x="678" y="1005" on="1"/>
        <pt x="1137" y="1005" on="1"/>
        <pt x="1137" y="954" on="1"/>
        <pt x="1137" y="931" on="0"/>
        <pt x="1088" y="907" on="1"/>
        <pt x="980" y="853" on="0"/>
        <pt x="955" y="831" on="1"/>
        <pt x="773" y="671" on="1"/>
        <pt x="1049" y="212" on="1"/>
        <pt x="1099" y="124" on="0"/>
        <pt x="1174" y="88" on="1"/>
        <pt x="1191" y="79" on="0"/>
        <pt x="1208" y="64" on="1"/>
        <pt x="1208" y="0" on="1"/>
        <pt x="682" y="0" on="1"/>
        <pt x="681" y="68" on="1"/>
        <pt x="681" y="82" on="0"/>
        <pt x="738" y="93" on="0"/>
        <pt x="765" y="101" on="0"/>
        <pt x="765" y="110" on="1"/>
        <pt x="752" y="144" on="0"/>
        <pt x="664" y="299" on="0"/>
        <pt x="646" y="331" on="1"/>
        <pt x="552" y="489" on="1"/>
      </contour>
      <contour>
        <pt x="165" y="1237" on="1"/>
        <pt x="165" y="1328" on="0"/>
        <pt x="138" y="1344" on="1"/>
        <pt x="120" y="1356" on="0"/>
        <pt x="47" y="1373" on="0"/>
        <pt x="35" y="1386" on="1"/>
        <pt x="35" y="1455" on="1"/>
        <pt x="463" y="1455" on="1"/>
        <pt x="462" y="180" on="1"/>
        <pt x="462" y="126" on="0"/>
        <pt x="505" y="104" on="1"/>
        <pt x="524" y="95" on="0"/>
        <pt x="572" y="80" on="0"/>
        <pt x="596" y="68" on="1"/>
        <pt x="596" y="0" on="1"/>
        <pt x="24" y="0" on="1"/>
        <pt x="24" y="64" on="1"/>
        <pt x="46" y="77" on="0"/>
        <pt x="96" y="90" on="0"/>
        <pt x="117" y="99" on="1"/>
        <pt x="165" y="120" on="0"/>
        <pt x="165" y="180" on="1"/>
      </contour>
    </TTGlyph>
    <TTGlyph name="kcommaaccent" xMin="24" yMin="-831" xMax="1208" yMax="1455">
      <component glyphName="k" x="0" y="0" flags="0x1204"/>
      <component glyphName="uni0326" x="283" y="0" flags="0x1004"/>
    </TTGlyph>
    <TTGlyph name="kgreenlandic" xMin="24" yMin="0" xMax="1208" yMax="1005">
      <contour>
        <pt x="552" y="589" on="1"/>
        <pt x="717" y="774" on="1"/>
        <pt x="733" y="792" on="0"/>
        <pt x="760" y="818" on="0"/>
        <pt x="770" y="828" on="1"/>
        <pt x="791" y="851" on="0"/>
        <pt x="791" y="884" on="0"/>
        <pt x="768" y="901" on="0"/>
        <pt x="734" y="911" on="0"/>
        <pt x="694" y="922" on="0"/>
        <pt x="678" y="935" on="1"/>
        <pt x="678" y="1005" on="1"/>
        <pt x="1137" y="1005" on="1"/>
        <pt x="1137" y="954" on="1"/>
        <pt x="1137" y="933" on="0"/>
        <pt x="1087" y="909" on="1"/>
        <pt x="982" y="860" on="0"/>
        <pt x="955" y="831" on="1"/>
        <pt x="773" y="631" on="1"/>
        <pt x="1049" y="212" on="1"/>
        <pt x="1099" y="124" on="0"/>
        <pt x="1174" y="88" on="1"/>
        <pt x="1191" y="79" on="0"/>
        <pt x="1208" y="64" on="1"/>
        <pt x="1208" y="0" on="1"/>
        <pt x="682" y="0" on="1"/>
        <pt x="681" y="68" on="1"/>
        <pt x="681" y="82" on="0"/>
        <pt x="738" y="93" on="0"/>
        <pt x="765" y="101" on="0"/>
        <pt x="766" y="106" on="1"/>
        <pt x="766" y="113" on="0"/>
        <pt x="704" y="218" on="1"/>
        <pt x="552" y="449" on="1"/>
      </contour>
      <contour>
        <pt x="165" y="786" on="1"/>
        <pt x="165" y="877" on="0"/>
        <pt x="138" y="894" on="1"/>
        <pt x="120" y="905" on="0"/>
        <pt x="47" y="922" on="0"/>
        <pt x="35" y="935" on="1"/>
        <pt x="35" y="1004" on="1"/>
        <pt x="462" y="1004" on="1"/>
        <pt x="462" y="180" on="1"/>
        <pt x="462" y="126" on="0"/>
        <pt x="505" y="104" on="1"/>
        <pt x="524" y="95" on="0"/>
        <pt x="572" y="80" on="0"/>
        <pt x="596" y="68" on="1"/>
        <pt x="596" y="0" on="1"/>
        <pt x="24" y="0" on="1"/>
        <pt x="24" y="64" on="1"/>
        <pt x="46" y="77" on="0"/>
        <pt x="96" y="90" on="0"/>
        <pt x="117" y="99" on="1"/>
        <pt x="165" y="120" on="0"/>
        <pt x="165" y="180" on="1"/>
      </contour>
    </TTGlyph>
    <TTGlyph name="l" xMin="39" yMin="0" xMax="602" yMax="1455">
      <contour>
        <pt x="468" y="168" on="1"/>
        <pt x="468" y="116" on="0"/>
        <pt x="516" y="97" on="1"/>
        <pt x="536" y="89" on="0"/>
        <pt x="582" y="77" on="0"/>
        <pt x="602" y="64" on="1"/>
        <pt x="602" y="0" on="1"/>
        <pt x="39" y="0" on="1"/>
        <pt x="39" y="64" on="1"/>
        <pt x="58" y="77" on="0"/>
        <pt x="104" y="89" on="0"/>
        <pt x="124" y="97" on="1"/>
        <pt x="171" y="116" on="0"/>
        <pt x="171" y="168" on="1"/>
        <pt x="171" y="1281" on="1"/>
        <pt x="171" y="1334" on="0"/>
        <pt x="124" y="1354" on="1"/>
        <pt x="104" y="1362" on="0"/>
        <pt x="58" y="1373" on="0"/>
        <pt x="39" y="1386" on="1"/>
        <pt x="39" y="1455" on="1"/>
        <pt x="468" y="1455" on="1"/>
      </contour>
    </TTGlyph>
    <TTGlyph name="ldot" xMin="39" yMin="0" xMax="838" yMax="1455">
      <component glyphName="l" x="0" y="0" flags="0x1204"/>
      <component glyphName="dotaccent" x="384" y="-460" flags="0x1004"/>
    </TTGlyph>
    <TTGlyph name="less" xMin="139" yMin="-16" xMax="1245" yMax="997">
      <contour>
        <pt x="225" y="381" on="1"/>
        <pt x="139" y="412" on="1"/>
        <pt x="139" y="569" on="1"/>
        <pt x="1245" y="997" on="1"/>
        <pt x="1245" y="772" on="1"/>
      </contour>
      <contour>
        <pt x="641" y="428" on="1"/>
        <pt x="1245" y="207" on="1"/>
        <pt x="1245" y="-16" on="1"/>
        <pt x="357" y="319" on="1"/>
      </contour>
    </TTGlyph>
    <TTGlyph name="lessequal" xMin="103" yMin="-31" xMax="1033" yMax="1247">
      <contour>
        <pt x="110" y="641" on="1"/>
        <pt x="110" y="813" on="1"/>
        <pt x="1023" y="1247" on="1"/>
        <pt x="1023" y="1061" on="1"/>
        <pt x="279" y="729" on="1"/>
        <pt x="279" y="725" on="1"/>
        <pt x="1023" y="395" on="1"/>
        <pt x="1023" y="205" on="1"/>
      </contour>
      <contour>
        <pt x="103" y="-31" on="1"/>
        <pt x="103" y="133" on="1"/>
        <pt x="1033" y="133" on="1"/>
        <pt x="1033" y="-31" on="1"/>
      </contour>
    </TTGlyph>
    <TTGlyph name="logicalnot" xMin="139" yMin="170" xMax="1243" yMax="809">
      <contour>
        <pt x="1001" y="594" on="1"/>
        <pt x="139" y="594" on="1"/>
        <pt x="139" y="809" on="1"/>
        <pt x="1243" y="809" on="1"/>
        <pt x="1243" y="170" on="1"/>
        <pt x="1001" y="170" on="1"/>
      </contour>
    </TTGlyph>
    <TTGlyph name="lozenge" xMin="103" yMin="-139" xMax="1124" yMax="1526">
      <contour>
        <pt x="726" y="-139" on="1"/>
        <pt x="499" y="-139" on="1"/>
        <pt x="103" y="690" on="1"/>
        <pt x="507" y="1526" on="1"/>
        <pt x="728" y="1526" on="1"/>
        <pt x="1124" y="690" on="1"/>
      </contour>
      <contour>
        <pt x="620" y="1356" on="1"/>
        <pt x="611" y="1356" on="1"/>
        <pt x="304" y="692" on="1"/>
        <pt x="613" y="23" on="1"/>
        <pt x="620" y="23" on="1"/>
        <pt x="924" y="690" on="1"/>
      </contour>
    </TTGlyph>
    <TTGlyph name="lslash" xMin="-39" yMin="0" xMax="680" yMax="1421">
      <contour>
        <pt x="540" y="931" on="1"/>
        <pt x="680" y="993" on="1"/>
        <pt x="680" y="887" on="1"/>
        <pt x="540" y="825" on="1"/>
      </contour>
      <contour>
        <pt x="101" y="625" on="1"/>
        <pt x="-39" y="561" on="1"/>
        <pt x="-39" y="668" on="1"/>
        <pt x="101" y="732" on="1"/>
      </contour>
      <contour>
        <pt x="171" y="1210" on="1"/>
        <pt x="171" y="1282" on="0"/>
        <pt x="138" y="1318" on="0"/>
        <pt x="111" y="1325" on="0"/>
        <pt x="96" y="1328" on="1"/>
        <pt x="58" y="1334" on="0"/>
        <pt x="39" y="1354" on="1"/>
        <pt x="39" y="1421" on="1"/>
        <pt x="468" y="1421" on="1"/>
        <pt x="468" y="205" on="1"/>
        <pt x="468" y="111" on="0"/>
        <pt x="514" y="95" on="1"/>
        <pt x="534" y="88" on="0"/>
        <pt x="581" y="82" on="0"/>
        <pt x="602" y="63" on="1"/>
        <pt x="602" y="0" on="1"/>
        <pt x="39" y="0" on="1"/>
        <pt x="39" y="63" on="1"/>
        <pt x="56" y="80" on="0"/>
        <pt x="111" y="91" on="0"/>
        <pt x="138" y="99" on="0"/>
        <pt x="148" y="111" on="1"/>
        <pt x="171" y="137" on="0"/>
        <pt x="171" y="207" on="1"/>
      </contour>
    </TTGlyph>
    <TTGlyph name="m" xMin="21" yMin="0" xMax="1673" yMax="1025">
      <contour>
        <pt x="548" y="971" on="1"/>
        <pt x="618" y="1025" on="0"/>
        <pt x="719" y="1025" on="1"/>
        <pt x="867" y="1025" on="0"/>
        <pt x="1003" y="892" on="0"/>
        <pt x="1003" y="750" on="1"/>
        <pt x="1003" y="168" on="1"/>
        <pt x="1003" y="116" on="0"/>
        <pt x="1039" y="98" on="1"/>
        <pt x="1055" y="90" on="0"/>
        <pt x="1092" y="77" on="0"/>
        <pt x="1109" y="64" on="1"/>
        <pt x="1109" y="0" on="1"/>
        <pt x="705" y="0" on="1"/>
        <pt x="705" y="715" on="1"/>
        <pt x="705" y="814" on="0"/>
        <pt x="692" y="847" on="1"/>
        <pt x="667" y="905" on="0"/>
        <pt x="610" y="905" on="1"/>
        <pt x="576" y="905" on="0"/>
        <pt x="548" y="884" on="1"/>
      </contour>
      <contour>
        <pt x="1093" y="984" on="1"/>
        <pt x="1165" y="1025" on="0"/>
        <pt x="1332" y="1025" on="0"/>
        <pt x="1438" y="987" on="0"/>
        <pt x="1473" y="946" on="1"/>
        <pt x="1544" y="863" on="0"/>
        <pt x="1544" y="689" on="1"/>
        <pt x="1544" y="214" on="1"/>
        <pt x="1544" y="142" on="0"/>
        <pt x="1575" y="103" on="0"/>
        <pt x="1601" y="94" on="0"/>
        <pt x="1616" y="91" on="1"/>
        <pt x="1652" y="83" on="0"/>
        <pt x="1673" y="64" on="1"/>
        <pt x="1673" y="0" on="1"/>
        <pt x="1247" y="0" on="1"/>
        <pt x="1247" y="715" on="1"/>
        <pt x="1247" y="817" on="0"/>
        <pt x="1234" y="848" on="1"/>
        <pt x="1212" y="905" on="0"/>
        <pt x="1153" y="905" on="1"/>
        <pt x="1121" y="905" on="0"/>
        <pt x="1093" y="886" on="1"/>
      </contour>
      <contour>
        <pt x="161" y="786" on="1"/>
        <pt x="161" y="861" on="0"/>
        <pt x="129" y="899" on="0"/>
        <pt x="103" y="906" on="0"/>
        <pt x="89" y="908" on="1"/>
        <pt x="51" y="915" on="0"/>
        <pt x="35" y="935" on="1"/>
        <pt x="35" y="1005" on="1"/>
        <pt x="459" y="1005" on="1"/>
        <pt x="459" y="180" on="1"/>
        <pt x="459" y="126" on="0"/>
        <pt x="508" y="102" on="1"/>
        <pt x="530" y="92" on="0"/>
        <pt x="585" y="76" on="0"/>
        <pt x="613" y="64" on="1"/>
        <pt x="613" y="0" on="1"/>
        <pt x="21" y="0" on="1"/>
        <pt x="21" y="64" on="1"/>
        <pt x="43" y="77" on="0"/>
        <pt x="92" y="90" on="0"/>
        <pt x="113" y="99" on="1"/>
        <pt x="161" y="120" on="0"/>
        <pt x="161" y="180" on="1"/>
      </contour>
    </TTGlyph>
    <TTGlyph name="macron" xMin="-28" yMin="1198" xMax="666" yMax="1331">
      <contour>
        <pt x="-28" y="1198" on="1"/>
        <pt x="-28" y="1331" on="1"/>
        <pt x="666" y="1331" on="1"/>
        <pt x="666" y="1198" on="1"/>
      </contour>
    </TTGlyph>
    <TTGlyph name="minus" xMin="139" yMin="383" xMax="1243" yMax="598">
      <contour>
        <pt x="139" y="383" on="1"/>
        <pt x="139" y="598" on="1"/>
        <pt x="1243" y="598" on="1"/>
        <pt x="1243" y="383" on="1"/>
      </contour>
    </TTGlyph>
    <TTGlyph name="mu" xMin="39" yMin="-389" xMax="1175" yMax="981">
      <contour>
        <pt x="466" y="-389" on="1"/>
        <pt x="39" y="-389" on="1"/>
        <pt x="39" y="-326" on="1"/>
        <pt x="56" y="-313" on="0"/>
        <pt x="101" y="-302" on="0"/>
        <pt x="121" y="-294" on="1"/>
        <pt x="169" y="-275" on="0"/>
        <pt x="169" y="-225" on="1"/>
        <pt x="169" y="811" on="1"/>
        <pt x="169" y="864" on="0"/>
        <pt x="121" y="882" on="1"/>
        <pt x="101" y="889" on="0"/>
        <pt x="56" y="900" on="0"/>
        <pt x="39" y="913" on="1"/>
        <pt x="39" y="981" on="1"/>
        <pt x="466" y="981" on="1"/>
      </contour>
      <contour>
        <pt x="592" y="104" on="1"/>
        <pt x="701" y="104" on="0"/>
        <pt x="748" y="270" on="1"/>
        <pt x="748" y="811" on="1"/>
        <pt x="748" y="864" on="0"/>
        <pt x="701" y="882" on="1"/>
        <pt x="681" y="889" on="0"/>
        <pt x="636" y="900" on="0"/>
        <pt x="617" y="913" on="1"/>
        <pt x="617" y="981" on="1"/>
        <pt x="1045" y="981" on="1"/>
        <pt x="1045" y="168" on="1"/>
        <pt x="1045" y="118" on="0"/>
        <pt x="1093" y="100" on="1"/>
        <pt x="1113" y="92" on="0"/>
        <pt x="1158" y="81" on="0"/>
        <pt x="1175" y="68" on="1"/>
        <pt x="1175" y="0" on="1"/>
        <pt x="767" y="0" on="1"/>
        <pt x="767" y="94" on="1"/>
        <pt x="669" y="-4" on="0"/>
        <pt x="555" y="-22" on="1"/>
        <pt x="555" y="109" on="1"/>
        <pt x="570" y="104" on="0"/>
      </contour>
    </TTGlyph>
    <TTGlyph name="multiply" xMin="139" yMin="0" xMax="1243" yMax="981">
      <contour>
        <pt x="139" y="827" on="1"/>
        <pt x="311" y="981" on="1"/>
        <pt x="691" y="643" on="1"/>
        <pt x="1072" y="981" on="1"/>
        <pt x="1243" y="827" on="1"/>
        <pt x="863" y="489" on="1"/>
        <pt x="1243" y="152" on="1"/>
        <pt x="1072" y="0" on="1"/>
        <pt x="691" y="338" on="1"/>
        <pt x="311" y="0" on="1"/>
        <pt x="139" y="152" on="1"/>
        <pt x="521" y="489" on="1"/>
      </contour>
    </TTGlyph>
    <TTGlyph name="n" xMin="39" yMin="0" xMax="1155" yMax="1025">
      <contour>
        <pt x="555" y="961" on="1"/>
        <pt x="634" y="1025" on="0"/>
        <pt x="802" y="1025" on="0"/>
        <pt x="909" y="987" on="0"/>
        <pt x="946" y="950" on="1"/>
        <pt x="1025" y="871" on="0"/>
        <pt x="1025" y="729" on="1"/>
        <pt x="1025" y="210" on="1"/>
        <pt x="1025" y="110" on="0"/>
        <pt x="1070" y="97" on="1"/>
        <pt x="1084" y="93" on="0"/>
        <pt x="1098" y="90" on="1"/>
        <pt x="1137" y="82" on="0"/>
        <pt x="1155" y="64" on="1"/>
        <pt x="1155" y="0" on="1"/>
        <pt x="680" y="0" on="1"/>
        <pt x="680" y="70" on="1"/>
        <pt x="680" y="92" on="0"/>
        <pt x="713" y="120" on="0"/>
        <pt x="728" y="141" on="0"/>
        <pt x="728" y="164" on="1"/>
        <pt x="728" y="719" on="1"/>
        <pt x="728" y="822" on="0"/>
        <pt x="714" y="851" on="1"/>
        <pt x="690" y="905" on="0"/>
        <pt x="588" y="905" on="0"/>
        <pt x="555" y="880" on="1"/>
      </contour>
      <contour>
        <pt x="466" y="210" on="1"/>
        <pt x="466" y="111" on="0"/>
        <pt x="508" y="97" on="1"/>
        <pt x="521" y="93" on="0"/>
        <pt x="535" y="90" on="1"/>
        <pt x="572" y="82" on="0"/>
        <pt x="590" y="64" on="1"/>
        <pt x="590" y="0" on="1"/>
        <pt x="39" y="0" on="1"/>
        <pt x="39" y="64" on="1"/>
        <pt x="56" y="77" on="0"/>
        <pt x="101" y="89" on="0"/>
        <pt x="121" y="97" on="1"/>
        <pt x="169" y="116" on="0"/>
        <pt x="169" y="168" on="1"/>
        <pt x="169" y="786" on="1"/>
        <pt x="169" y="857" on="0"/>
        <pt x="136" y="889" on="1"/>
        <pt x="110" y="915" on="0"/>
        <pt x="39" y="935" on="1"/>
        <pt x="39" y="1005" on="1"/>
        <pt x="466" y="1005" on="1"/>
      </contour>
    </TTGlyph>
    <TTGlyph name="nacute" xMin="39" yMin="0" xMax="1155" yMax="1493">
      <component glyphName="n" x="0" y="0" flags="0x1204"/>
      <component glyphName="acute" x="186" y="0" flags="0x1004"/>
    </TTGlyph>
</ttFont>
